<svg width="240" height="73" viewBox="0 0 240 73" fill="none" xmlns="http://www.w3.org/2000/svg">
<g clip-path="url(#clip0_2719_8406)">
<path d="M148.684 56.3785C134.838 66.5841 114.769 72.0291 97.4901 72.0291C73.2623 72.0291 51.451 63.0681 34.95 48.1643C33.6535 46.9923 34.8151 45.3951 36.3709 46.3078C54.1787 56.6689 76.1974 62.9022 98.9421 62.9022C114.282 62.9022 131.156 59.7285 146.672 53.1426C149.016 52.1469 150.976 54.6776 148.684 56.3785Z" fill="white"/>
<path d="M154.44 49.7925C152.677 47.5315 142.741 48.7242 138.281 49.2532C136.922 49.4191 136.715 48.2368 137.939 47.3863C145.852 41.8168 158.837 43.4244 160.351 45.2913C161.866 47.1685 159.957 60.1847 152.521 66.3973C151.38 67.3514 150.291 66.8432 150.799 65.5779C152.469 61.4086 156.213 52.0639 154.44 49.7925Z" fill="white"/>
<path d="M138.592 8.06811V2.65419C138.592 1.83484 139.215 1.28516 139.961 1.28516H164.2C164.977 1.28516 165.6 1.84522 165.6 2.65419V7.29025C165.589 8.06811 164.936 9.08452 163.774 10.6921L151.214 28.6244C155.882 28.5103 160.808 29.2052 165.04 31.5907C165.994 32.13 166.253 32.9182 166.326 33.6961V39.473C166.326 40.2613 165.454 41.1843 164.542 40.7072C157.085 36.7972 147.18 36.3719 138.935 40.7487C138.094 41.2051 137.213 40.2924 137.213 39.5041V34.0176C137.213 33.136 137.223 31.6322 138.105 30.2942L152.656 9.42678H139.992C139.215 9.42678 138.592 8.8771 138.592 8.06811Z" fill="white"/>
<path d="M50.1752 41.8481H42.8011C42.0958 41.7963 41.5357 41.2673 41.4839 40.5932V2.74761C41.4839 1.99049 42.1165 1.38894 42.9048 1.38894H49.7811C50.4967 1.42003 51.0672 1.96974 51.119 2.65426V7.60147H51.2538C53.0481 2.8202 56.4188 0.590332 60.9616 0.590332C65.5769 0.590332 68.4602 2.8202 70.5345 7.60147C72.3184 2.8202 76.3736 0.590332 80.7193 0.590332C83.81 0.590332 87.1911 1.86603 89.255 4.72856C91.5886 7.91261 91.1115 12.5383 91.1115 16.5936L91.1011 40.4791C91.1011 41.2362 90.4685 41.8481 89.6802 41.8481H82.3165C81.5801 41.7963 80.9889 41.2051 80.9889 40.4791V20.4206C80.9889 18.8234 81.1341 14.8408 80.7815 13.3265C80.2318 10.7855 78.5827 10.0699 76.4462 10.0699C74.6623 10.0699 72.7954 11.2626 72.0383 13.171C71.2812 15.0793 71.3538 18.2737 71.3538 20.4206V40.4791C71.3538 41.2362 70.7211 41.8481 69.9329 41.8481H62.5691C61.8224 41.7963 61.2416 41.2051 61.2416 40.4791L61.2312 20.4206C61.2312 16.1994 61.9261 9.98691 56.6885 9.98691C51.3887 9.98691 51.5961 16.0439 51.5961 20.4206V40.4791C51.5961 41.2362 50.9634 41.8481 50.1752 41.8481Z" fill="white"/>
<path d="M186.467 0.590332C197.409 0.590332 203.331 9.98691 203.331 21.9349C203.331 33.4784 196.787 42.6364 186.467 42.6364C175.722 42.6364 169.873 33.2398 169.873 21.5304C169.873 9.74837 175.795 0.590332 186.467 0.590332ZM186.529 8.3171C181.095 8.3171 180.752 15.7223 180.752 20.3377C180.752 24.9634 180.68 34.837 186.467 34.837C192.182 34.837 192.451 26.8717 192.451 22.0178C192.451 18.8234 192.316 15.0067 191.352 11.9782C190.522 9.34388 188.873 8.3171 186.529 8.3171Z" fill="white"/>
<path d="M217.519 41.8481H210.176C209.44 41.7963 208.849 41.2051 208.849 40.4791L208.838 2.62315C208.901 1.92825 209.513 1.38894 210.259 1.38894H217.094C217.737 1.42003 218.266 1.85566 218.411 2.44683V8.23413H218.546C220.61 3.05875 223.504 0.590332 228.596 0.590332C231.905 0.590332 235.13 1.78306 237.204 5.05008C239.134 8.07855 239.134 13.171 239.134 16.8321V40.6554C239.051 41.3192 238.439 41.8481 237.713 41.8481H230.318C229.644 41.7963 229.084 41.2985 229.011 40.6554V20.0991C229.011 15.9609 229.488 9.90394 224.396 9.90394C222.601 9.90394 220.952 11.107 220.133 12.9324C219.096 15.2453 218.961 17.5477 218.961 20.0991V40.4791C218.951 41.2362 218.308 41.8481 217.519 41.8481Z" fill="white"/>
<path d="M119.27 23.7706V22.1734C113.939 22.1734 108.308 23.3143 108.308 29.5994C108.308 32.7834 109.957 34.9407 112.788 34.9407C114.862 34.9407 116.719 33.665 117.891 31.5907C119.343 29.0393 119.27 26.6435 119.27 23.7706ZM126.707 41.7444C126.219 42.18 125.514 42.2111 124.964 41.9207C122.517 39.8879 122.081 38.9441 120.733 37.0046C116.688 41.1325 113.825 42.3667 108.577 42.3667C102.375 42.3667 97.542 38.5396 97.542 30.8751C97.542 24.8907 100.788 20.8147 105.404 18.8234C109.407 17.0602 114.997 16.7491 119.27 16.2616V15.3075C119.27 13.5547 119.405 11.4804 118.378 9.96614C117.476 8.60747 115.754 8.0474 114.24 8.0474C111.429 8.0474 108.92 9.48904 108.308 12.476C108.183 13.1398 107.696 13.7932 107.032 13.8243L99.8756 13.0568C99.274 12.922 98.6103 12.4345 98.7762 11.5115C100.425 2.84092 108.256 0.227295 115.267 0.227295C118.855 0.227295 123.543 1.18147 126.375 3.8988C129.963 7.2488 129.621 11.7189 129.621 16.5832V28.0748C129.621 31.5285 131.052 33.0427 132.401 34.9096C132.878 35.5734 132.981 36.372 132.38 36.8698C130.876 38.1248 128.2 40.4583 126.727 41.7652L126.707 41.7444" fill="white"/>
<path d="M22.5974 23.7706V22.1734C17.2665 22.1734 11.6348 23.3143 11.6348 29.5994C11.6348 32.7834 13.2838 34.9407 16.1152 34.9407C18.1895 34.9407 20.046 33.665 21.218 31.5907C22.67 29.0393 22.5974 26.6435 22.5974 23.7706ZM30.0338 41.7444C29.5463 42.18 28.8411 42.2111 28.2914 41.9207C25.8437 39.8879 25.4081 38.9441 24.0598 37.0046C20.0149 41.1325 17.1524 42.3667 11.9044 42.3667C5.70225 42.3667 0.869141 38.5396 0.869141 30.8751C0.869141 24.8907 4.11542 20.8147 8.73073 18.8234C12.7341 17.0602 18.3244 16.7491 22.5974 16.2616V15.3075C22.5974 13.5547 22.7323 11.4804 21.7055 9.96614C20.8032 8.60747 19.0815 8.0474 17.5672 8.0474C14.7566 8.0474 12.2467 9.48904 11.6348 12.476C11.5103 13.1398 11.0228 13.7932 10.3591 13.8243L3.20273 13.0568C2.60118 12.922 1.9374 12.4345 2.10335 11.5115C3.75242 2.84092 11.5829 0.227295 18.594 0.227295C22.1826 0.227295 26.8705 1.18147 29.7019 3.8988C33.2904 7.2488 32.9482 11.7189 32.9482 16.5832V28.0748C32.9482 31.5285 34.3795 33.0427 35.7277 34.9096C36.2048 35.5734 36.3086 36.372 35.707 36.8698C34.2031 38.1248 31.5273 40.4583 30.0545 41.7652L30.0338 41.7444" fill="white"/>
</g>
<defs>
<clipPath id="clip0_2719_8406">
<rect width="238.549" height="72" fill="white" transform="translate(0.725098 0.129883)"/>
</clipPath>
</defs>
</svg>
