<svg width="234" height="81" viewBox="0 0 234 81" fill="none" xmlns="http://www.w3.org/2000/svg">
<g clip-path="url(#clip0_2719_8416)">
<path d="M54.4622 42.6389C54.3657 32.5159 62.7324 27.6522 63.1088 27.4206C58.3995 20.54 51.0846 19.5943 48.4791 19.4881C42.2547 18.8512 36.3295 23.1552 33.1642 23.1552C29.999 23.1552 25.1256 19.575 19.9628 19.6811C13.1691 19.7776 6.9061 23.6281 3.40308 29.7077C-3.64155 41.9248 1.60815 60.0671 8.48873 69.9972C11.8566 74.8512 15.8518 80.3229 21.1208 80.1202C26.1968 79.9176 28.1075 76.8392 34.2258 76.8392C40.344 76.8392 42.0714 80.1202 47.4272 80.0237C52.8796 79.9176 56.3343 75.0635 59.6733 70.1902C63.5141 64.5448 65.1063 59.0925 65.2028 58.803C65.0774 58.7547 54.578 54.7306 54.4622 42.6389Z" fill="white"/>
<path d="M44.3968 12.9067C47.1954 9.51951 49.0772 4.81987 48.5657 0.129883C44.5416 0.293936 39.6682 2.81263 36.7828 6.19985C34.1966 9.1914 31.9288 13.9779 32.5464 18.5714C37.0144 18.9188 41.6079 16.2843 44.3968 12.9067ZM89.7527 52.5883L85.1206 66.6293H79.1664L94.3268 22.0068H101.275L116.493 66.6293H110.336L105.569 52.5883H89.7527ZM104.382 48.0816L100.02 35.2372C99.0265 32.3229 98.3703 29.6787 97.7044 27.0925H97.579C96.9131 29.7366 96.1893 32.4483 95.3305 35.1697L90.9686 48.072L104.382 48.0816ZM121.01 45.0418C121.01 40.9405 120.884 37.6208 120.739 34.581H125.97L126.24 40.0816H126.365C128.749 36.1733 132.522 33.8573 137.753 33.8573C145.502 33.8573 151.321 40.4097 151.321 50.1468C151.321 61.6691 144.305 67.353 136.759 67.353C132.522 67.353 128.817 65.5002 126.896 62.3253H126.771V79.7342H121.01V45.0418ZM126.761 53.5822C126.761 54.4508 126.887 55.2324 127.031 55.9658C128.093 59.9996 131.596 62.7885 135.774 62.7885C141.931 62.7885 145.511 57.7608 145.511 50.4073C145.511 43.9803 142.134 38.499 135.977 38.499C132.011 38.499 128.305 41.3458 127.166 45.7173C126.964 46.4411 126.771 47.3096 126.771 48.1009L126.761 53.5822ZM157.343 45.0418C157.343 40.9405 157.217 37.6208 157.072 34.581H162.303L162.573 40.0816H162.698C165.082 36.1733 168.855 33.8573 174.086 33.8573C181.835 33.8573 187.654 40.4097 187.654 50.1468C187.654 61.6691 180.638 67.353 173.092 67.353C168.855 67.353 165.15 65.5002 163.229 62.3253H163.104V79.7342H157.343V45.0418ZM163.104 53.5822C163.104 54.4508 163.229 55.2324 163.374 55.9658C164.435 59.9996 167.938 62.7885 172.117 62.7885C178.274 62.7885 181.854 57.7608 181.854 50.4073C181.854 43.9803 178.476 38.499 172.32 38.499C168.353 38.499 164.648 41.3458 163.509 45.7173C163.306 46.4411 163.113 47.3096 163.113 48.1009L163.104 53.5822ZM193.685 19.6232H199.514V66.6196H193.685V19.6232ZM211.229 51.6618C211.355 59.5364 216.392 62.7885 222.211 62.7885C226.38 62.7885 228.899 62.0647 231.08 61.1383L232.074 65.3072C230.028 66.2336 226.515 67.2951 221.42 67.2951C211.557 67.2951 205.661 60.8102 205.661 51.1407C205.661 41.4713 211.355 33.8573 220.686 33.8573C231.147 33.8573 233.926 43.0539 233.926 48.9501C233.926 50.1468 233.801 51.0635 233.724 51.6618H211.229ZM228.31 47.493C228.378 43.7873 226.785 38.0261 220.233 38.0261C214.337 38.0261 211.76 43.4592 211.297 47.493H228.31Z" fill="white"/>
</g>
<defs>
<clipPath id="clip0_2719_8416">
<rect width="233.872" height="80" fill="white" transform="translate(0.0639648 0.129883)"/>
</clipPath>
</defs>
</svg>
