<svg width="222" height="65" viewBox="0 0 222 65" fill="none" xmlns="http://www.w3.org/2000/svg">
<g clip-path="url(#clip0_2719_8398)">
<path d="M176.859 10.7371C171.231 10.7952 165.852 13.0717 161.893 17.0721C157.933 21.0725 155.712 26.4736 155.712 32.1022C155.712 32.1724 155.712 49.9725 155.712 53.0257C155.712 53.1435 155.759 53.2564 155.842 53.3397C155.925 53.423 156.038 53.4698 156.156 53.4698H162.679C162.797 53.4698 162.91 53.423 162.993 53.3397C163.076 53.2564 163.123 53.1435 163.123 53.0257V32.0294C163.142 28.3921 164.58 24.906 167.132 22.314C169.684 19.722 173.147 18.229 176.783 18.1531H176.854C176.912 18.1535 176.97 18.1422 177.024 18.12C177.079 18.0979 177.128 18.0652 177.169 18.024C177.211 17.9827 177.244 17.9336 177.266 17.8796C177.289 17.8255 177.3 17.7676 177.3 17.7091V11.1861C177.301 11.0681 177.255 10.9547 177.172 10.8705C177.089 10.7864 176.977 10.7384 176.859 10.7371Z" fill="white"/>
<path d="M25.1931 25.0073C23.7825 25.0068 22.4034 25.4248 21.2304 26.2083C20.0574 26.9918 19.1431 28.1056 18.6033 29.4088C18.0635 30.7121 17.9224 32.1462 18.1978 33.5296C18.4732 34.9131 19.1529 36.1838 20.1507 37.1809C21.1485 38.178 22.4196 38.8567 23.8033 39.1312C25.187 39.4057 26.6209 39.2635 27.9238 38.7228C29.2267 38.1821 30.3399 37.267 31.1225 36.0934C31.9052 34.9199 32.3222 33.5405 32.3207 32.1299C32.3167 30.2412 31.5643 28.4311 30.2284 27.0961C28.8924 25.7611 27.0818 25.01 25.1931 25.0073Z" fill="white"/>
<path d="M179.89 25.2632C177.762 32.0947 178.886 39.1997 182.978 44.7542C186.287 49.2572 191.228 52.2849 196.743 53.1885C202.257 54.0922 207.906 52.8 212.479 49.5887C212.715 49.4215 212.948 49.2542 213.179 49.087L213.43 48.8938C213.496 48.8409 213.575 48.8077 213.659 48.798C213.743 48.7883 213.828 48.8024 213.905 48.8389C213.981 48.8753 214.045 48.9325 214.09 49.0039C214.136 49.0753 214.16 49.158 214.16 49.2425V53.0333C214.161 53.152 214.208 53.2656 214.293 53.3493C214.377 53.4329 214.491 53.4799 214.609 53.4799H221.132C221.251 53.4799 221.364 53.4329 221.448 53.3491C221.532 53.2654 221.579 53.1518 221.579 53.0333V32.2101C221.579 32.175 221.579 32.1424 221.579 32.1098C221.571 28.7579 220.779 25.4542 219.266 22.4634C217.752 19.4727 215.56 16.8778 212.863 14.8867C207.309 10.7973 200.204 9.6734 193.372 11.7984C190.202 12.7825 187.319 14.5222 184.97 16.8677C182.621 19.2133 180.878 22.0944 179.89 25.2632ZM187.318 26.5552C187.971 24.8933 188.96 23.3838 190.222 22.1212C191.485 20.8585 192.995 19.8699 194.657 19.217C196.423 18.5165 198.306 18.1531 200.206 18.1457C203.005 18.1401 205.739 18.9834 208.049 20.5642C209.88 21.8143 211.388 23.4811 212.449 25.4277C213.51 27.3742 214.094 29.5448 214.153 31.7611V32.2628C214.12 35.233 213.14 38.1153 211.356 40.4899C209.571 42.8645 207.075 44.6074 204.231 45.4648C201.387 46.3223 198.344 46.2495 195.544 45.2571C192.744 44.2647 190.334 42.4045 188.665 39.9473C186.004 36.0511 185.514 31.169 187.318 26.5552Z" fill="white"/>
<path d="M60.6431 25.2634C58.5156 32.0949 59.6395 39.1999 63.7314 44.7544C67.0422 49.26 71.987 52.2886 77.5049 53.1905C83.0229 54.0924 88.6746 52.7958 93.2477 49.5788C93.4233 49.4551 93.5964 49.3296 93.767 49.2025L94.181 48.8789C94.2468 48.8264 94.3262 48.7935 94.4099 48.7842C94.4937 48.7748 94.5783 48.7894 94.6541 48.8261C94.73 48.8628 94.7938 48.9203 94.8384 48.9917C94.883 49.0632 94.9064 49.1459 94.906 49.2301V63.6809C94.906 63.8 94.9533 63.9142 95.0375 63.9985C95.1218 64.0827 95.236 64.13 95.3551 64.13H101.878C101.997 64.1293 102.11 64.0817 102.194 63.9976C102.278 63.9134 102.325 63.7996 102.325 63.6809V32.1977C102.325 32.1626 102.325 32.13 102.325 32.0999C102.319 28.7491 101.529 25.4461 100.017 22.4554C98.506 19.4647 96.3157 16.8693 93.6215 14.8769C88.067 10.7875 80.962 9.66102 74.1305 11.7885C70.9584 12.7729 68.0732 14.5138 65.7236 16.8612C63.374 19.2086 61.6304 22.0922 60.6431 25.2634ZM68.0717 26.5554C68.7246 24.8934 69.7132 23.384 70.9759 22.1213C72.2385 20.8587 73.748 19.87 75.41 19.2171C77.1767 18.5166 79.059 18.1533 80.9595 18.1458C83.758 18.1408 86.4924 18.984 88.802 20.5643C90.633 21.8144 92.1411 23.4813 93.2022 25.4278C94.2634 27.3744 94.8473 29.545 94.906 31.7612V32.263C94.8735 35.2335 93.8937 38.116 92.1092 40.491C90.3248 42.866 87.8288 44.6094 84.9848 45.4673C82.1407 46.3253 79.097 46.2531 76.2968 45.2612C73.4967 44.2693 71.0862 42.4094 69.4164 39.9525C66.7571 36.0513 66.2754 31.1691 68.0717 26.5554Z" fill="white"/>
<path d="M108.705 25.2632C106.577 32.0947 107.701 39.1997 111.793 44.7542C115.102 49.2557 120.042 52.2825 125.555 53.1861C131.068 54.0897 136.716 52.7984 141.289 49.5887C141.525 49.4215 141.758 49.2542 141.989 49.087L142.24 48.8938C142.306 48.8409 142.385 48.8077 142.469 48.798C142.553 48.7883 142.638 48.8024 142.715 48.8389C142.791 48.8753 142.855 48.9325 142.9 49.0039C142.946 49.0753 142.97 49.158 142.97 49.2425V53.0333C142.971 53.152 143.018 53.2656 143.102 53.3493C143.187 53.4329 143.3 53.4799 143.419 53.4799H149.942C150.06 53.4799 150.174 53.4329 150.258 53.3491C150.342 53.2654 150.389 53.1518 150.389 53.0333V32.2101C150.389 32.175 150.389 32.1424 150.389 32.1098C150.381 28.7579 149.589 25.4542 148.076 22.4634C146.562 19.4727 144.369 16.8778 141.673 14.8867C136.118 10.7973 129.013 9.6734 122.182 11.7984C119.013 12.7832 116.13 14.5232 113.783 16.8687C111.435 19.2142 109.692 22.095 108.705 25.2632ZM116.133 26.5552C116.787 24.8928 117.776 23.383 119.04 22.1203C120.303 20.8577 121.814 19.8693 123.477 19.217C125.243 18.5165 127.126 18.1531 129.026 18.1457C131.825 18.1406 134.559 18.9838 136.869 20.5642C138.7 21.8143 140.208 23.4811 141.269 25.4277C142.33 27.3742 142.914 29.5448 142.973 31.7611V32.2628C142.941 35.2344 141.962 38.1184 140.177 40.4945C138.393 42.8706 135.896 44.6146 133.05 45.4723C130.205 46.3301 127.16 46.2566 124.359 45.2628C121.559 44.269 119.149 42.4067 117.48 39.9473C114.819 36.0511 114.329 31.169 116.133 26.5552Z" fill="white"/>
<path d="M60.2216 52.8024L44.1475 10.0521C43.1711 7.16101 41.313 4.64868 38.8345 2.86851C36.356 1.08833 33.3818 0.129871 30.3302 0.127933C27.2787 0.125994 24.3033 1.08067 21.8225 2.8577C19.3418 4.63472 17.4804 7.14469 16.5003 10.0346L1.06107 50.8882L0.474 52.4512C0.433565 52.5595 0.419919 52.676 0.434218 52.7908C0.448517 52.9056 0.490351 53.0152 0.556137 53.1103C0.621923 53.2054 0.709723 53.2832 0.812057 53.337C0.914391 53.3909 1.02822 53.4192 1.14387 53.4196H7.50623C7.65149 53.4195 7.7933 53.3753 7.9129 53.2929C8.03251 53.2105 8.12428 53.0937 8.17608 52.958L13.7607 38.1509L14.0116 37.5112L14.5134 36.2166C14.5948 35.9809 14.5948 35.7248 14.5134 35.4891C13.7594 33.0949 13.8321 30.5168 14.7198 28.169C15.6075 25.8212 17.2587 23.8399 19.4081 22.5436C19.622 22.4163 19.7872 22.2211 19.8772 21.9891L20.1657 21.2239L20.4041 20.5917L20.5847 20.1125L23.4322 12.5861C23.4498 12.5409 23.4648 12.4957 23.4824 12.4481C24.6916 8.80777 27.8101 7.51071 30.3265 7.51071C32.8428 7.51071 35.9563 8.79773 37.173 12.4481C37.1881 12.4957 37.2031 12.5409 37.2207 12.5835L51.4131 50.3363L52.389 52.953C52.4398 53.0895 52.5313 53.2073 52.651 53.2903C52.7708 53.3732 52.9132 53.4175 53.0589 53.4171H59.8026C59.8762 53.418 59.9489 53.4006 60.0142 53.3666C60.0795 53.3326 60.1354 53.2829 60.1768 53.2221C60.2183 53.1612 60.2441 53.0911 60.2519 53.0179C60.2597 52.9447 60.2493 52.8707 60.2216 52.8024Z" fill="white"/>
</g>
<defs>
<clipPath id="clip0_2719_8398">
<rect width="221.142" height="64" fill="white" transform="translate(0.428711 0.129883)"/>
</clipPath>
</defs>
</svg>
