<svg width="24" height="25" viewBox="0 0 24 25" fill="none" xmlns="http://www.w3.org/2000/svg">
<path d="M4.3 12.1213C4.3 11.8296 4.18411 11.5498 3.97782 11.3435C3.77153 11.1372 3.49174 11.0213 3.2 11.0213H2.1C1.80826 11.0213 1.52847 11.1372 1.32218 11.3435C1.11589 11.5498 1 11.8296 1 12.1213C1 12.4131 1.11589 12.6929 1.32218 12.8992C1.52847 13.1054 1.80826 13.2213 2.1 13.2213H3.2C3.49174 13.2213 3.77153 13.1054 3.97782 12.8992C4.18411 12.6929 4.3 12.4131 4.3 12.1213ZM5.004 17.6213L4.223 18.4023C4.01812 18.6084 3.90313 18.8872 3.90313 19.1778C3.90313 19.4684 4.01812 19.7472 4.223 19.9533C4.4291 20.1582 4.7079 20.2732 4.9985 20.2732C5.2891 20.2732 5.5679 20.1582 5.774 19.9533L6.555 19.1723C6.73521 18.9619 6.82938 18.6912 6.81868 18.4144C6.80799 18.1375 6.69322 17.8749 6.49732 17.679C6.30142 17.4831 6.0388 17.3683 5.76196 17.3577C5.48512 17.347 5.21443 17.4411 5.004 17.6213V17.6213ZM12 4.42134C12.2917 4.42134 12.5715 4.30545 12.7778 4.09916C12.9841 3.89287 13.1 3.61308 13.1 3.32134V2.22134C13.1 1.9296 12.9841 1.64981 12.7778 1.44352C12.5715 1.23723 12.2917 1.12134 12 1.12134C11.7083 1.12134 11.4285 1.23723 11.2222 1.44352C11.0159 1.64981 10.9 1.9296 10.9 2.22134V3.32134C10.9 3.61308 11.0159 3.89287 11.2222 4.09916C11.4285 4.30545 11.7083 4.42134 12 4.42134ZM18.226 6.99534C18.5146 6.99412 18.7911 6.87956 18.996 6.67634L19.777 5.89534C19.8921 5.79673 19.9857 5.67538 20.0517 5.53891C20.1177 5.40243 20.1548 5.25379 20.1607 5.1023C20.1665 4.95081 20.141 4.79974 20.0857 4.65858C20.0304 4.51743 19.9465 4.38922 19.8393 4.28202C19.7321 4.17482 19.6039 4.09094 19.4628 4.03564C19.3216 3.98033 19.1705 3.95481 19.019 3.96066C18.8676 3.96651 18.7189 4.00361 18.5824 4.06964C18.446 4.13567 18.3246 4.22919 18.226 4.34434L17.5 5.12534C17.2951 5.33144 17.1801 5.61023 17.1801 5.90084C17.1801 6.19144 17.2951 6.47024 17.5 6.67634C17.6939 6.86924 17.9528 6.98297 18.226 6.99534V6.99534ZM5.026 6.67634C5.23089 6.87956 5.50743 6.99412 5.796 6.99534C5.94077 6.99618 6.08428 6.96843 6.2183 6.91369C6.35232 6.85895 6.47422 6.77829 6.577 6.67634C6.78188 6.47024 6.89687 6.19144 6.89687 5.90084C6.89687 5.61023 6.78188 5.33144 6.577 5.12534L5.796 4.34434C5.59032 4.13574 5.31021 4.0174 5.01728 4.01534C4.72435 4.01327 4.44259 4.12766 4.234 4.33334C4.02541 4.53901 3.90706 4.81913 3.905 5.11206C3.90294 5.40499 4.01732 5.68675 4.223 5.89534L5.026 6.67634ZM21.9 11.0213H20.8C20.5083 11.0213 20.2285 11.1372 20.0222 11.3435C19.8159 11.5498 19.7 11.8296 19.7 12.1213C19.7 12.4131 19.8159 12.6929 20.0222 12.8992C20.2285 13.1054 20.5083 13.2213 20.8 13.2213H21.9C22.1917 13.2213 22.4715 13.1054 22.6778 12.8992C22.8841 12.6929 23 12.4131 23 12.1213C23 11.8296 22.8841 11.5498 22.6778 11.3435C22.4715 11.1372 22.1917 11.0213 21.9 11.0213ZM18.996 17.6213C18.787 17.5051 18.5458 17.4601 18.309 17.4932C18.0722 17.5263 17.8526 17.6357 17.6835 17.8048C17.5144 17.9739 17.405 18.1935 17.3719 18.4303C17.3388 18.6672 17.3838 18.9084 17.5 19.1173L18.281 19.8983C18.4871 20.1032 18.7659 20.2182 19.0565 20.2182C19.3471 20.2182 19.6259 20.1032 19.832 19.8983C20.0369 19.6922 20.1519 19.4134 20.1519 19.1228C20.1519 18.8322 20.0369 18.5534 19.832 18.3473L18.996 17.6213ZM12 6.07134C10.8034 6.07134 9.63372 6.42616 8.6388 7.09095C7.64388 7.75573 6.86844 8.70061 6.41053 9.8061C5.95262 10.9116 5.83281 12.128 6.06625 13.3016C6.29969 14.4752 6.8759 15.5532 7.722 16.3993C8.56811 17.2454 9.64612 17.8216 10.8197 18.0551C11.9933 18.2885 13.2097 18.1687 14.3152 17.7108C15.4207 17.2529 16.3656 16.4775 17.0304 15.4825C17.6952 14.4876 18.05 13.3179 18.05 12.1213C18.0471 10.5177 17.4087 8.98052 16.2748 7.84655C15.1408 6.71259 13.6037 6.07425 12 6.07134ZM12 15.9713C11.2385 15.9713 10.4942 15.7455 9.86105 15.3225C9.22793 14.8995 8.73446 14.2982 8.44306 13.5947C8.15167 12.8912 8.07542 12.1171 8.22398 11.3702C8.37253 10.6234 8.73921 9.93741 9.27764 9.39898C9.81607 8.86055 10.5021 8.49387 11.2489 8.34531C11.9957 8.19676 12.7698 8.273 13.4733 8.5644C14.1768 8.8558 14.7781 9.34926 15.2012 9.98239C15.6242 10.6155 15.85 11.3599 15.85 12.1213C15.85 13.1424 15.4444 14.1217 14.7224 14.8437C14.0003 15.5657 13.0211 15.9713 12 15.9713V15.9713ZM12 19.8213C11.7083 19.8213 11.4285 19.9372 11.2222 20.1435C11.0159 20.3498 10.9 20.6296 10.9 20.9213V22.0213C10.9 22.3131 11.0159 22.5929 11.2222 22.7992C11.4285 23.0054 11.7083 23.1213 12 23.1213C12.2917 23.1213 12.5715 23.0054 12.7778 22.7992C12.9841 22.5929 13.1 22.3131 13.1 22.0213V20.9213C13.1 20.6296 12.9841 20.3498 12.7778 20.1435C12.5715 19.9372 12.2917 19.8213 12 19.8213Z" fill="#E9E9E9"/>
</svg>
