<svg width="48" height="48" viewBox="0 0 48 48" fill="none" xmlns="http://www.w3.org/2000/svg">
<path d="M39.6594 25.1198V22.8653L42.4886 20.3897C43.0101 19.93 43.3524 19.3008 43.4548 18.6132C43.5573 17.9256 43.4134 17.2239 43.0485 16.6321L39.5709 10.7379C39.3125 10.2903 38.941 9.91853 38.4935 9.6599C38.0461 9.40126 37.5385 9.26483 37.0217 9.2643C36.7014 9.26185 36.3829 9.31162 36.0786 9.41166L32.4979 10.62C31.8796 10.2092 31.2348 9.83995 30.5675 9.51481L29.816 5.80144C29.6812 5.12302 29.3122 4.51361 28.7734 4.07988C28.2346 3.64616 27.5604 3.41576 26.8689 3.42901H19.9726C19.2811 3.41576 18.6069 3.64616 18.0681 4.07988C17.5293 4.51361 17.1602 5.12302 17.0255 5.80144L16.274 9.51481C15.6019 9.83988 14.9521 10.2091 14.3289 10.62L10.8218 9.35272C10.5143 9.27259 10.1958 9.24273 9.87873 9.2643C9.36191 9.26483 8.85432 9.40126 8.40688 9.6599C7.95944 9.91853 7.58788 10.2903 7.32947 10.7379L3.85187 16.6321C3.50792 17.223 3.38011 17.9151 3.49033 18.5898C3.60055 19.2646 3.94194 19.88 4.45603 20.3307L7.24105 22.88V25.1345L4.45603 27.6101C3.92742 28.064 3.57669 28.6904 3.46609 29.3783C3.35549 30.0662 3.49217 30.771 3.85187 31.3677L7.32947 37.2619C7.58788 37.7095 7.95944 38.0813 8.40688 38.3399C8.85432 38.5985 9.36191 38.735 9.87873 38.7355C10.199 38.7379 10.5175 38.6882 10.8218 38.5881L14.4026 37.3798C15.0208 37.7906 15.6657 38.1598 16.3329 38.485L17.0844 42.1984C17.2192 42.8768 17.5883 43.4862 18.127 43.9199C18.6658 44.3536 19.34 44.584 20.0316 44.5708H26.9867C27.6783 44.584 28.3525 44.3536 28.8913 43.9199C29.43 43.4862 29.7991 42.8768 29.9339 42.1984L30.6854 38.485C31.3574 38.1599 32.0072 37.7907 32.6305 37.3798L36.1965 38.5881C36.5008 38.6882 36.8193 38.7379 37.1396 38.7355C37.6564 38.735 38.164 38.5985 38.6114 38.3399C39.0589 38.0813 39.4304 37.7095 39.6888 37.2619L43.0485 31.3677C43.3925 30.7768 43.5203 30.0847 43.4101 29.41C43.2999 28.7352 42.9585 28.1198 42.4444 27.6691L39.6594 25.1198ZM37.0217 35.7884L31.9674 34.079C30.7842 35.0812 29.432 35.8646 27.974 36.3925L26.9278 41.6826H19.9726L18.9264 36.4515C17.48 35.9086 16.135 35.1265 14.9478 34.138L9.87873 35.7884L6.40113 29.8941L10.4092 26.3576C10.1367 24.8322 10.1367 23.2707 10.4092 21.7453L6.40113 18.1057L9.87873 12.2114L14.933 13.9208C16.1162 12.9186 17.4684 12.1352 18.9264 11.6073L19.9726 6.31718H26.9278L27.974 11.5483C29.4204 12.0912 30.7654 12.8733 31.9526 13.8618L37.0217 12.2114L40.4993 18.1057L36.4912 21.6422C36.7637 23.1675 36.7637 24.7291 36.4912 26.2544L40.4993 29.8941L37.0217 35.7884Z" fill="white"/>
<path d="M23.4498 32.8414C21.7011 32.8414 19.9917 32.3229 18.5378 31.3514C17.0838 30.3799 15.9506 28.999 15.2814 27.3835C14.6122 25.7679 14.4371 23.9902 14.7783 22.2752C15.1194 20.5601 15.9615 18.9848 17.198 17.7483C18.4345 16.5118 20.0098 15.6697 21.7249 15.3286C23.4399 14.9874 25.2177 15.1625 26.8332 15.8317C28.4487 16.5009 29.8296 17.6341 30.8011 19.0881C31.7726 20.542 32.2911 22.2514 32.2911 24.0001C32.3029 25.1644 32.0823 26.3194 31.6422 27.3974C31.2021 28.4754 30.5512 29.4548 29.7279 30.2782C28.9045 31.1015 27.9252 31.7523 26.8471 32.1925C25.7691 32.6326 24.6141 32.8532 23.4498 32.8414ZM23.4498 18.1058C22.6708 18.0877 21.8962 18.2277 21.1728 18.5175C20.4495 18.8073 19.7925 19.2408 19.2415 19.7918C18.6905 20.3428 18.257 20.9998 17.9672 21.7231C17.6774 22.4465 17.5374 23.221 17.5555 24.0001C17.5374 24.7791 17.6774 25.5536 17.9672 26.277C18.257 27.0003 18.6905 27.6573 19.2415 28.2083C19.7925 28.7593 20.4495 29.1928 21.1728 29.4826C21.8962 29.7724 22.6708 29.9124 23.4498 29.8943C24.2288 29.9124 25.0034 29.7724 25.7267 29.4826C26.45 29.1928 27.107 28.7593 27.658 28.2083C28.209 27.6573 28.6425 27.0003 28.9323 26.277C29.2221 25.5536 29.3621 24.7791 29.344 24.0001C29.3621 23.221 29.2221 22.4465 28.9323 21.7231C28.6425 20.9998 28.209 20.3428 27.658 19.7918C27.107 19.2408 26.45 18.8073 25.7267 18.5175C25.0034 18.2277 24.2288 18.0877 23.4498 18.1058Z" fill="white"/>
</svg>
