<svg width="48" height="48" viewBox="0 0 48 48" fill="none" xmlns="http://www.w3.org/2000/svg">
<path d="M39.6591 25.1198V22.8653L42.4883 20.3897C43.0099 19.93 43.3521 19.3008 43.4546 18.6132C43.5571 17.9256 43.4131 17.2239 43.0483 16.6321L39.5707 10.7379C39.3123 10.2903 38.9407 9.91853 38.4933 9.6599C38.0458 9.40126 37.5383 9.26483 37.0214 9.2643C36.7012 9.26185 36.3826 9.31162 36.0784 9.41166L32.4976 10.62C31.8794 10.2092 31.2345 9.83995 30.5673 9.51481L29.8157 5.80144C29.681 5.12302 29.3119 4.51361 28.7731 4.07988C28.2343 3.64616 27.5602 3.41576 26.8686 3.42901H19.9724C19.2808 3.41576 18.6066 3.64616 18.0679 4.07988C17.5291 4.51361 17.16 5.12302 17.0252 5.80144L16.2737 9.51481C15.6017 9.83988 14.9519 10.2091 14.3286 10.62L10.8216 9.35272C10.514 9.27259 10.1956 9.24273 9.87848 9.2643C9.36167 9.26483 8.85408 9.40126 8.40664 9.6599C7.95919 9.91853 7.58763 10.2903 7.32922 10.7379L3.85162 16.6321C3.50768 17.223 3.37987 17.9151 3.49008 18.5898C3.6003 19.2646 3.94169 19.88 4.45578 20.3307L7.24081 22.88V25.1345L4.45578 27.6101C3.92717 28.064 3.57644 28.6904 3.46584 29.3783C3.35524 30.0662 3.49192 30.771 3.85162 31.3677L7.32922 37.2619C7.58763 37.7095 7.95919 38.0813 8.40664 38.3399C8.85408 38.5985 9.36167 38.735 9.87848 38.7355C10.1988 38.7379 10.5173 38.6882 10.8216 38.5881L14.4023 37.3798C15.0205 37.7906 15.6654 38.1598 16.3327 38.485L17.0842 42.1984C17.2189 42.8768 17.588 43.4862 18.1268 43.9199C18.6656 44.3536 19.3398 44.584 20.0313 44.5708H26.9865C27.6781 44.584 28.3522 44.3536 28.891 43.9199C29.4298 43.4862 29.7989 42.8768 29.9336 42.1984L30.6851 38.485C31.3572 38.1599 32.007 37.7907 32.6302 37.3798L36.1963 38.5881C36.5005 38.6882 36.8191 38.7379 37.1393 38.7355C37.6561 38.735 38.1637 38.5985 38.6112 38.3399C39.0586 38.0813 39.4302 37.7095 39.6886 37.2619L43.0483 31.3677C43.3923 30.7768 43.5201 30.0847 43.4098 29.41C43.2996 28.7352 42.9582 28.1198 42.4441 27.6691L39.6591 25.1198ZM37.0214 35.7884L31.9671 34.079C30.784 35.0812 29.4317 35.8646 27.9738 36.3925L26.9276 41.6826H19.9724L18.9261 36.4515C17.4797 35.9086 16.1348 35.1265 14.9475 34.138L9.87848 35.7884L6.40088 29.8941L10.409 26.3576C10.1365 24.8322 10.1365 23.2707 10.409 21.7453L6.40088 18.1057L9.87848 12.2114L14.9328 13.9208C16.116 12.9186 17.4682 12.1352 18.9261 11.6073L19.9724 6.31718H26.9276L27.9738 11.5483C29.4202 12.0912 30.7651 12.8733 31.9524 13.8618L37.0214 12.2114L40.499 18.1057L36.491 21.6422C36.7634 23.1675 36.7634 24.7291 36.491 26.2544L40.499 29.8941L37.0214 35.7884Z" fill="white"/>
<path d="M23.4495 32.8414C21.7009 32.8414 19.9915 32.3229 18.5375 31.3514C17.0836 30.3799 15.9503 28.999 15.2812 27.3835C14.612 25.7679 14.4369 23.9902 14.778 22.2752C15.1192 20.5601 15.9612 18.9848 17.1977 17.7483C18.4342 16.5118 20.0096 15.6697 21.7247 15.3286C23.4397 14.9874 25.2174 15.1625 26.833 15.8317C28.4485 16.5009 29.8293 17.6341 30.8008 19.0881C31.7723 20.542 32.2909 22.2514 32.2909 24.0001C32.3027 25.1644 32.0821 26.3194 31.6419 27.3974C31.2018 28.4754 30.551 29.4548 29.7276 30.2782C28.9043 31.1015 27.9249 31.7523 26.8469 32.1925C25.7689 32.6326 24.6139 32.8532 23.4495 32.8414ZM23.4495 18.1058C22.6705 18.0877 21.8959 18.2277 21.1726 18.5175C20.4493 18.8073 19.7922 19.2408 19.2413 19.7918C18.6903 20.3428 18.2568 20.9998 17.967 21.7231C17.6772 22.4465 17.5371 23.221 17.5553 24.0001C17.5371 24.7791 17.6772 25.5536 17.967 26.277C18.2568 27.0003 18.6903 27.6573 19.2413 28.2083C19.7922 28.7593 20.4493 29.1928 21.1726 29.4826C21.8959 29.7724 22.6705 29.9124 23.4495 29.8943C24.2285 29.9124 25.0031 29.7724 25.7264 29.4826C26.4498 29.1928 27.1068 28.7593 27.6578 28.2083C28.2088 27.6573 28.6423 27.0003 28.9321 26.277C29.2218 25.5536 29.3619 24.7791 29.3438 24.0001C29.3619 23.221 29.2218 22.4465 28.9321 21.7231C28.6423 20.9998 28.2088 20.3428 27.6578 19.7918C27.1068 19.2408 26.4498 18.8073 25.7264 18.5175C25.0031 18.2277 24.2285 18.0877 23.4495 18.1058Z" fill="white"/>
</svg>
