<svg width="25" height="25" viewBox="0 0 25 25" fill="none" xmlns="http://www.w3.org/2000/svg">
<path d="M11.21 14.1013L8.8175 11.7088C8.61583 11.5072 8.36393 11.4111 8.0618 11.4206C7.75893 11.4294 7.50667 11.5347 7.305 11.7363C7.10333 11.938 7.0025 12.1947 7.0025 12.5063C7.0025 12.818 7.10333 13.0747 7.305 13.2763L10.44 16.4113C10.6417 16.613 10.8983 16.7138 11.21 16.7138C11.5217 16.7138 11.7783 16.613 11.98 16.4113L18.2225 10.1688C18.4242 9.96717 18.5206 9.7149 18.5118 9.41204C18.5023 9.1099 18.3967 8.85801 18.195 8.65634C17.9933 8.45467 17.7367 8.35384 17.425 8.35384C17.1133 8.35384 16.8567 8.45467 16.655 8.65634L11.21 14.1013ZM12.75 23.1213C11.2283 23.1213 9.79833 22.8324 8.46 22.2545C7.12167 21.6774 5.9575 20.8938 4.9675 19.9038C3.9775 18.9138 3.19393 17.7497 2.6168 16.4113C2.03893 15.073 1.75 13.643 1.75 12.1213C1.75 10.5997 2.03893 9.16967 2.6168 7.83134C3.19393 6.49301 3.9775 5.32884 4.9675 4.33884C5.9575 3.34884 7.12167 2.5649 8.46 1.98704C9.79833 1.4099 11.2283 1.12134 12.75 1.12134C14.2717 1.12134 15.7017 1.4099 17.04 1.98704C18.3783 2.5649 19.5425 3.34884 20.5325 4.33884C21.5225 5.32884 22.3061 6.49301 22.8832 7.83134C23.4611 9.16967 23.75 10.5997 23.75 12.1213C23.75 13.643 23.4611 15.073 22.8832 16.4113C22.3061 17.7497 21.5225 18.9138 20.5325 19.9038C19.5425 20.8938 18.3783 21.6774 17.04 22.2545C15.7017 22.8324 14.2717 23.1213 12.75 23.1213ZM12.75 20.9213C15.1883 20.9213 17.2648 20.0644 18.9793 18.3506C20.6931 16.6361 21.55 14.5597 21.55 12.1213C21.55 9.683 20.6931 7.60657 18.9793 5.89204C17.2648 4.17824 15.1883 3.32134 12.75 3.32134C10.3117 3.32134 8.2356 4.17824 6.5218 5.89204C4.80727 7.60657 3.95 9.683 3.95 12.1213C3.95 14.5597 4.80727 16.6361 6.5218 18.3506C8.2356 20.0644 10.3117 20.9213 12.75 20.9213Z" fill="black"/>
</svg>
