<svg width="25" height="25" viewBox="0 0 25 25" fill="none" xmlns="http://www.w3.org/2000/svg">
<path d="M12.75 22.1213C11.3667 22.1213 10.0667 21.8587 8.85 21.3333C7.63333 20.8087 6.575 20.0963 5.675 19.1963C4.775 18.2963 4.06267 17.238 3.538 16.0213C3.01267 14.8047 2.75 13.5047 2.75 12.1213C2.75 10.738 3.01267 9.438 3.538 8.22134C4.06267 7.00467 4.775 5.94634 5.675 5.04634C6.575 4.14634 7.63333 3.43367 8.85 2.90834C10.0667 2.38367 11.3667 2.12134 12.75 2.12134C14.1333 2.12134 15.4333 2.38367 16.65 2.90834C17.8667 3.43367 18.925 4.14634 19.825 5.04634C20.725 5.94634 21.4373 7.00467 21.962 8.22134C22.4873 9.438 22.75 10.738 22.75 12.1213C22.75 13.5047 22.4873 14.8047 21.962 16.0213C21.4373 17.238 20.725 18.2963 19.825 19.1963C18.925 20.0963 17.8667 20.8087 16.65 21.3333C15.4333 21.8587 14.1333 22.1213 12.75 22.1213ZM13.75 20.0463C15.7333 19.7963 17.396 18.9253 18.738 17.4333C20.0793 15.942 20.75 14.1713 20.75 12.1213C20.75 10.0713 20.0793 8.30034 18.738 6.80834C17.396 5.317 15.7333 4.44634 13.75 4.19634V20.0463Z" fill="#E9E9E9"/>
</svg>
