<svg width="33" height="32" viewBox="0 0 33 32" fill="none" xmlns="http://www.w3.org/2000/svg">
<path d="M27.25 8H23.25V5.5C23.25 4.39688 22.3531 3.5 21.25 3.5H11.25C10.1469 3.5 9.25 4.39688 9.25 5.5V8H5.25C4.69687 8 4.25 8.44688 4.25 9V10C4.25 10.1375 4.3625 10.25 4.5 10.25H6.3875L7.15938 26.5938C7.20938 27.6594 8.09063 28.5 9.15625 28.5H23.3438C24.4125 28.5 25.2906 27.6625 25.3406 26.5938L26.1125 10.25H28C28.1375 10.25 28.25 10.1375 28.25 10V9C28.25 8.44688 27.8031 8 27.25 8ZM21 8H11.5V5.75H21V8Z" fill="#FF6F6F"/>
</svg>
