<svg width="28" height="24" viewBox="0 0 28 24" fill="none" xmlns="http://www.w3.org/2000/svg">
<path d="M24.6665 0H7.33317C5.8625 0 4.6665 1.196 4.6665 2.66667V5.33333H3.33317C1.8625 5.33333 0.666504 6.52933 0.666504 8V21.3333C0.666504 22.804 1.8625 24 3.33317 24H11.3332C12.8038 24 13.9998 22.804 13.9998 21.3333H24.6665C26.1372 21.3333 27.3332 20.1373 27.3332 18.6667V2.66667C27.3332 1.196 26.1372 0 24.6665 0ZM11.3292 21.3333H3.33317V8H11.3332L11.3292 21.3333ZM24.6625 18.6667H13.9998V8C13.9998 6.52933 12.8038 5.33333 11.3332 5.33333H7.33317V2.66667H24.6665L24.6625 18.6667Z" fill="#525252"/>
</svg>
