<svg width="104" height="105" viewBox="0 0 104 105" fill="none" xmlns="http://www.w3.org/2000/svg">
<g clip-path="url(#clip0_1603_1976)">
<g clip-path="url(#clip1_1603_1976)">
<path d="M39.3728 17.6355H22.2889C19.4418 17.6355 17.1338 19.9435 17.1338 22.7906V82.2109C17.1338 85.0579 19.4418 87.3659 22.2889 87.3659H39.3728C42.2199 87.3659 44.5279 85.0579 44.5279 82.2109V22.7906C44.5279 19.9435 42.2199 17.6355 39.3728 17.6355Z" fill="#D0D1D3"/>
<path d="M81.7083 17.6355H64.6243C61.7772 17.6355 59.4692 19.9435 59.4692 22.7906V82.2109C59.4692 85.0579 61.7772 87.3659 64.6243 87.3659H81.7083C84.5553 87.3659 86.8633 85.0579 86.8633 82.2109V22.7906C86.8633 19.9435 84.5553 17.6355 81.7083 17.6355Z" fill="#D0D1D3"/>
</g>
<path d="M84.1454 94.8822L85.8286 96.992L88.104 95.5405L93.6553 91.9991L96.4665 90.2057L94.3869 87.599L26.1894 2.11734L24.5062 0.00754786L22.2308 1.4591L16.6795 5.00049L13.8682 6.79391L15.9479 9.40061L84.1454 94.8822Z" fill="#D0D1D3" stroke="#3A3A3C" stroke-width="6"/>
</g>
<defs>
<clipPath id="clip0_1603_1976">
<rect width="104" height="104" fill="white" transform="translate(0 0.5)"/>
</clipPath>
<clipPath id="clip1_1603_1976">
<rect width="104" height="104" fill="white" transform="translate(0 0.5)"/>
</clipPath>
</defs>
</svg>
