<svg width="66" height="66" viewBox="0 0 66 66" fill="none" xmlns="http://www.w3.org/2000/svg">
<path d="M45.3455 16.6367C41.7545 16.6367 38.4307 17.2145 35.4942 18.2807L37.0807 2.54245C37.2188 1.20781 36.044 0.12246 34.7042 0.289929C24.5154 1.56832 16.6367 10.1987 16.6367 20.6547C16.6367 24.2457 17.2145 27.5695 18.2807 30.506L2.54245 28.9195C1.20781 28.7814 0.12246 29.9563 0.289929 31.296C1.56832 41.4848 10.1987 49.3635 20.6547 49.3635C24.2457 49.3635 27.5695 48.7857 30.506 47.7195L28.9195 63.4578C28.7853 64.7911 29.9563 65.8778 31.296 65.7103C41.4848 64.4319 49.3635 55.8015 49.3635 45.3455C49.3635 41.7545 48.7857 38.4307 47.7195 35.4942L63.4578 37.0807C64.7924 37.215 65.8778 36.044 65.7103 34.7042C64.4319 24.5154 55.8015 16.6367 45.3455 16.6367ZM33.0001 37.091C32.191 37.091 31.4001 36.851 30.7274 36.4015C30.0546 35.952 29.5303 35.3131 29.2207 34.5656C28.911 33.8181 28.83 32.9956 28.9879 32.202C29.1457 31.4085 29.5353 30.6796 30.1074 30.1074C30.6796 29.5353 31.4085 29.1457 32.202 28.9879C32.9956 28.83 33.8181 28.911 34.5656 29.2207C35.3131 29.5303 35.952 30.0546 36.4015 30.7274C36.851 31.4001 37.091 32.191 37.091 33.0001C37.091 34.0851 36.66 35.1256 35.8928 35.8928C35.1256 36.66 34.0851 37.091 33.0001 37.091Z" fill="#D0D1D3"/>
</svg>
