<svg width="51" height="68" viewBox="0 0 51 68" fill="none" xmlns="http://www.w3.org/2000/svg">
<path d="M0.666626 10.6667V57.3333C0.666626 58.2174 1.01782 59.0652 1.64294 59.6904C2.26806 60.3155 3.1159 60.6667 3.99996 60.6667H14V54H7.33329V14H14V7.33335H3.99996C3.1159 7.33335 2.26806 7.68454 1.64294 8.30966C1.01782 8.93478 0.666626 9.78263 0.666626 10.6667ZM48.14 7.43335L21.4733 0.766682C20.982 0.644151 20.4693 0.635147 19.974 0.740354C19.4787 0.845561 19.0139 1.06221 18.6149 1.37387C18.2158 1.68552 17.893 2.08399 17.671 2.53902C17.4489 2.99405 17.3334 3.49369 17.3333 4.00002V64C17.3321 64.5068 17.4468 65.0071 17.6684 65.4628C17.8901 65.9185 18.2129 66.3175 18.6123 66.6295C19.0117 66.9414 19.4771 67.1579 19.9729 67.2626C20.4687 67.3672 20.9819 67.3572 21.4733 67.2333L48.14 60.5667C48.8614 60.3867 49.502 59.9708 49.9598 59.3849C50.4176 58.799 50.6664 58.0769 50.6666 57.3333V10.6667C50.6664 9.92314 50.4176 9.20101 49.9598 8.61514C49.502 8.02927 48.8614 7.61329 48.14 7.43335V7.43335ZM34 34.6267C33.9616 35.4849 33.5936 36.2953 32.9727 36.8891C32.3518 37.4829 31.5257 37.8142 30.6666 37.8142C29.8075 37.8142 28.9815 37.4829 28.3606 36.8891C27.7396 36.2953 27.3717 35.4849 27.3333 34.6267V33.37C27.3337 32.486 27.6853 31.6383 28.3108 31.0135C28.9362 30.3887 29.7842 30.0379 30.6683 30.0383C31.5523 30.0388 32.4 30.3904 33.0248 31.0158C33.6496 31.6413 34.0004 32.4893 34 33.3733V34.6267V34.6267Z" fill="#D0D1D3"/>
</svg>
