<svg width="24" height="25" viewBox="0 0 24 25" fill="none" xmlns="http://www.w3.org/2000/svg">
<path d="M2.82031 22.1213H7C7.54688 22.1213 7.82031 21.8479 7.82031 21.301C7.82031 20.7281 7.54688 20.4417 7 20.4417H4.85156L10.0859 15.2073C10.4245 14.8167 10.4245 14.426 10.0859 14.0354C9.69531 13.6969 9.30469 13.6969 8.91406 14.0354L3.67969 19.2698V17.1213C3.67969 16.5745 3.39323 16.301 2.82031 16.301C2.27344 16.301 2 16.5745 2 17.1213V21.301C2 21.5354 2.07812 21.7307 2.23438 21.887C2.39062 22.0432 2.58594 22.1213 2.82031 22.1213ZM21.1797 16.301C20.6068 16.301 20.3203 16.5745 20.3203 17.1213V19.2698L15.0859 14.0354C14.6953 13.6969 14.3047 13.6969 13.9141 14.0354C13.5755 14.426 13.5755 14.8167 13.9141 15.2073L19.1484 20.4417H17C16.4531 20.4417 16.1797 20.7281 16.1797 21.301C16.1797 21.8479 16.4531 22.1213 17 22.1213H21.1797C21.4141 22.1213 21.6094 22.0432 21.7656 21.887C21.9219 21.7307 22 21.5354 22 21.301V17.1213C22 16.5745 21.7266 16.301 21.1797 16.301ZM21.1797 2.12134H17C16.4531 2.12134 16.1797 2.39478 16.1797 2.94165C16.1797 3.51457 16.4531 3.80103 17 3.80103H19.1484L13.9141 9.0354C13.5755 9.42603 13.5755 9.81665 13.9141 10.2073C14.0703 10.3635 14.2656 10.4417 14.5 10.4417C14.7344 10.4417 14.9297 10.3635 15.0859 10.2073L20.3203 4.9729V7.12134C20.3203 7.66821 20.6068 7.94165 21.1797 7.94165C21.7266 7.94165 22 7.66821 22 7.12134V2.94165C22 2.70728 21.9219 2.51196 21.7656 2.35571C21.6094 2.19946 21.4141 2.12134 21.1797 2.12134ZM2.82031 7.94165C3.39323 7.94165 3.67969 7.66821 3.67969 7.12134V4.9729L8.91406 10.2073C9.07031 10.3635 9.26562 10.4417 9.5 10.4417C9.73438 10.4417 9.92969 10.3635 10.0859 10.2073C10.4245 9.81665 10.4245 9.42603 10.0859 9.0354L4.85156 3.80103H7C7.54688 3.80103 7.82031 3.51457 7.82031 2.94165C7.82031 2.39478 7.54688 2.12134 7 2.12134H2.82031C2.58594 2.12134 2.39062 2.19946 2.23438 2.35571C2.07812 2.51196 2 2.70728 2 2.94165V7.12134C2 7.66821 2.27344 7.94165 2.82031 7.94165Z" fill="#E9E9E9"/>
</svg>
