<svg width="68" height="50" viewBox="0 0 68 50" fill="none" xmlns="http://www.w3.org/2000/svg">
<path d="M62.933 11.2399C65.5906 12.303 67.3333 14.8769 67.3333 17.7393V47.6667C67.3333 48.7713 66.4379 49.6667 65.3333 49.6667H62.6666C61.5621 49.6667 60.6666 48.7713 60.6666 47.6667V19.6667H7.33329V47.6667C7.33329 48.7713 6.43786 49.6667 5.33329 49.6667H2.66662C1.56206 49.6667 0.666626 48.7713 0.666626 47.6667V17.7393C0.666626 14.8769 2.40928 12.303 5.06689 11.2399L31.4002 0.70658C33.0691 0.0390291 34.9308 0.0390301 36.5997 0.706581L62.933 11.2399ZM57.3333 23H10.6666V29.6667H57.3333V23Z" fill="#D0D1D3"/>
</svg>
