<svg width="222" height="73" viewBox="0 0 222 73" fill="none" xmlns="http://www.w3.org/2000/svg">
<g clip-path="url(#clip0_2719_8420)">
<path d="M27.8726 0.13623H29.8342C36.6443 0.284276 43.3433 3.02312 48.1548 7.87162C46.3783 9.68518 44.5647 11.4247 42.8252 13.2383C40.1234 10.7955 36.8663 8.90794 33.3132 8.24174C28.0576 7.13139 22.3949 8.1307 17.9905 11.1286C13.179 14.2746 9.92201 19.6043 9.21879 25.304C8.44155 30.9298 10.033 36.8516 13.6972 41.2189C17.2133 45.4753 22.5799 48.1401 28.1316 48.3251C33.3132 48.6212 38.7169 47.0297 42.4921 43.4026C45.453 40.8488 46.8224 36.9626 47.2666 33.1875C41.1227 33.1875 34.9788 33.2245 28.8349 33.1875V25.5631H54.7059C56.0383 33.7426 54.1137 42.9585 47.8958 48.8063C43.7505 52.9516 38.0137 55.3943 32.1659 55.8755C26.5031 56.4306 20.6553 55.3573 15.6218 52.6185C9.5889 49.3985 4.77742 43.9578 2.40868 37.5548C0.187995 31.67 0.150983 25.0079 2.22362 19.0861C4.11121 13.6824 7.73833 8.90794 12.4018 5.57691C16.8802 2.28289 22.3208 0.469334 27.8726 0.13623Z" fill="white"/>
<path d="M176.289 2.06079H184.209V54.9131C181.581 54.9131 178.916 54.9502 176.289 54.8761C176.326 37.2957 176.289 19.6782 176.289 2.06079Z" fill="white"/>
<path d="M72.3232 20.3815C77.2087 19.4563 82.5014 20.4926 86.5356 23.4165C90.1998 26.0073 92.7536 30.0785 93.5308 34.5199C94.5301 39.6645 93.2717 45.2902 89.9407 49.3615C86.3506 53.9139 80.4658 56.3567 74.729 55.9866C69.4734 55.6905 64.3658 53.0626 61.2568 48.7693C57.7407 44.0319 56.8895 37.5178 58.8141 31.9661C60.7387 26.0073 66.1793 21.4549 72.3232 20.3815ZM73.4336 27.4137C71.435 27.9319 69.5844 29.0792 68.252 30.7077C64.6619 35.0011 64.8839 41.9962 68.8442 45.9935C71.1019 48.2882 74.5069 49.3615 77.6529 48.7323C80.5768 48.2142 83.1306 46.2525 84.537 43.6617C86.9798 39.2574 86.2766 33.1875 82.5384 29.7454C80.1327 27.5248 76.6166 26.5995 73.4336 27.4137Z" fill="white"/>
<path d="M111.555 20.3816C117.144 19.3082 123.251 20.8627 127.433 24.7859C134.243 30.8928 134.984 42.3294 129.173 49.3615C125.657 53.8029 119.957 56.2457 114.331 55.9866C108.964 55.8386 103.672 53.1737 100.489 48.7694C96.8987 43.9209 96.1215 37.2588 98.1571 31.5961C100.193 25.8223 105.522 21.4179 111.555 20.3816ZM112.666 27.4138C110.667 27.9319 108.816 29.0793 107.484 30.6708C103.931 34.8901 104.079 41.7742 107.891 45.8084C110.149 48.2142 113.665 49.3986 116.922 48.7324C119.809 48.1772 122.4 46.2526 123.806 43.6618C126.212 39.2204 125.509 33.1505 121.733 29.7085C119.328 27.4878 115.812 26.5995 112.666 27.4138Z" fill="white"/>
<path d="M144.829 22.5282C149.085 19.8634 154.748 19.1231 159.337 21.4178C160.781 22.047 161.965 23.1204 163.112 24.1937C163.15 23.1944 163.112 22.1581 163.15 21.1217C165.629 21.1588 168.109 21.1217 170.626 21.1588V53.8029C170.589 58.7254 169.33 63.944 165.777 67.5341C161.891 71.4943 155.932 72.7157 150.566 71.9015C144.829 71.0502 139.832 66.8679 137.612 61.5753C139.832 60.5019 142.164 59.6507 144.459 58.6514C145.754 61.6863 148.382 64.2771 151.676 64.8693C154.97 65.4615 158.782 64.6472 160.929 61.9084C163.224 59.0955 163.224 55.2463 163.112 51.8042C161.41 53.4698 159.448 54.9502 157.08 55.5054C151.935 56.9488 146.272 55.1723 142.312 51.6932C138.315 48.2141 135.946 42.8475 136.168 37.5178C136.279 31.4849 139.684 25.6741 144.829 22.5282ZM152.49 27.2656C150.233 27.6358 148.123 28.8941 146.679 30.6337C143.2 34.779 143.2 41.404 146.716 45.4753C148.715 47.881 151.935 49.2134 155.044 48.8803C157.968 48.5842 160.67 46.7337 162.113 44.1799C164.556 39.8495 164.149 33.9647 160.855 30.1895C158.819 27.8578 155.562 26.7105 152.49 27.2656Z" fill="white"/>
<path d="M193.721 24.4157C198.162 20.2704 205.009 18.864 210.709 21.0476C216.113 23.0833 219.555 28.2278 221.294 33.5205C213.263 36.8515 205.268 40.1455 197.237 43.4766C198.347 45.5862 200.05 47.5108 202.344 48.2881C205.564 49.4354 209.413 49.0283 212.115 46.8816C213.189 46.0674 214.04 44.994 214.854 43.9577C216.89 45.3271 218.925 46.6595 220.961 48.029C218.074 52.3593 213.226 55.3943 208.007 55.8754C202.233 56.5786 196.089 54.3579 192.351 49.8425C186.207 42.7363 186.799 30.8186 193.721 24.4157ZM197.681 31.2628C196.422 33.0763 195.904 35.297 195.941 37.4807C201.308 35.26 206.675 33.0393 212.041 30.7816C211.153 28.709 209.006 27.4506 206.823 27.1175C203.307 26.4883 199.642 28.3759 197.681 31.2628Z" fill="white"/>
</g>
<defs>
<clipPath id="clip0_2719_8420">
<rect width="220.588" height="72" fill="white" transform="translate(0.706055 0.129883)"/>
</clipPath>
</defs>
</svg>
