<svg width="50" height="48" viewBox="0 0 50 48" fill="none" xmlns="http://www.w3.org/2000/svg">
<path d="M28.1472 1.30508C26.4071 -0.435027 23.5869 -0.435027 21.8468 1.30508L2.30362 20.8513C0.563508 22.5914 0.563508 25.4086 2.30362 27.1457L21.8528 46.6949C23.5929 48.435 26.4101 48.435 28.1472 46.6949L47.6965 27.1457C49.4366 25.4056 49.4366 22.5884 47.6965 20.8513L28.1472 1.30508ZM17.4816 18.1001C17.3849 18.1014 17.2889 18.083 17.1996 18.046C17.1102 18.0089 17.0294 17.954 16.962 17.8847C16.8946 17.8153 16.842 17.7329 16.8076 17.6425C16.7731 17.5522 16.7574 17.4557 16.7615 17.3591C17.0465 12.2738 21.2078 10.5007 25.012 10.5007C29.2003 10.5007 33.0285 12.6908 33.0285 17.2211C33.0285 20.4613 31.1234 22.0034 29.2963 23.3925C27.0852 25.0696 26.2661 25.6966 26.2661 27.8507V28.1658C26.2661 28.3647 26.1871 28.5555 26.0464 28.6961C25.9058 28.8368 25.715 28.9158 25.5161 28.9158H23.0859C22.8891 28.9158 22.7001 28.8385 22.5597 28.7004C22.4194 28.5623 22.339 28.3746 22.3359 28.1778L22.3239 27.5267C22.2099 24.7455 23.809 23.0324 25.8281 21.5653C27.5982 20.2333 28.7233 19.3572 28.7233 17.4521C28.7233 14.9769 26.8391 13.9479 24.781 13.9479C22.3719 13.9479 21.0218 15.382 20.7548 17.3501C20.7008 17.7611 20.3707 18.1001 19.9567 18.1001H17.4816V18.1001ZM24.457 37.4303C22.7049 37.4303 21.4298 36.2483 21.4298 34.6492C21.4298 32.9931 22.7049 31.829 24.46 31.829C26.2871 31.829 27.5442 32.9931 27.5442 34.6492C27.5442 36.2483 26.2841 37.4303 24.457 37.4303Z" fill="#D0D1D3"/>
</svg>
