<svg width="25" height="25" viewBox="0 0 25 25" fill="none" xmlns="http://www.w3.org/2000/svg">
<path d="M15.275 17.0715H16.925V15.4215H17.75C18.0617 15.4215 18.3227 15.3159 18.5332 15.1047C18.7444 14.8943 18.85 14.6332 18.85 14.3215V9.92153C18.85 9.60987 18.7444 9.34843 18.5332 9.13723C18.3227 8.92677 18.0617 8.82153 17.75 8.82153H14.45C14.1383 8.82153 13.8773 8.92677 13.6668 9.13723C13.4556 9.34843 13.35 9.60987 13.35 9.92153V14.3215C13.35 14.6332 13.4556 14.8943 13.6668 15.1047C13.8773 15.3159 14.1383 15.4215 14.45 15.4215H15.275V17.0715ZM5.65 15.4215H7.3V13.2215H9.5V15.4215H11.15V8.82153H9.5V11.5715H7.3V8.82153H5.65V15.4215ZM15 13.7715V10.4715H17.2V13.7715H15ZM3.45 20.9215C2.845 20.9215 2.32727 20.7063 1.8968 20.2758C1.4656 19.8446 1.25 19.3265 1.25 18.7215V5.52153C1.25 4.91653 1.4656 4.3988 1.8968 3.96833C2.32727 3.53713 2.845 3.32153 3.45 3.32153H21.05C21.655 3.32153 22.1731 3.53713 22.6043 3.96833C23.0348 4.3988 23.25 4.91653 23.25 5.52153V18.7215C23.25 19.3265 23.0348 19.8446 22.6043 20.2758C22.1731 20.7063 21.655 20.9215 21.05 20.9215H3.45ZM3.45 18.7215H21.05V5.52153H3.45V18.7215ZM3.45 18.7215V5.52153V18.7215Z" fill="#E9E9E9"/>
</svg>
