<svg width="150" height="162" viewBox="0 0 150 162" fill="none" xmlns="http://www.w3.org/2000/svg">
<g filter="url(#filter0_b_1603_1831)">
<path d="M57.75 156.25V115.943C57.75 113.125 60.625 110.25 63.5 110.25H86.5C89.375 110.25 92.25 113.125 92.25 116V156.25C92.25 157.775 92.8558 159.238 93.9341 160.316C95.0125 161.394 96.475 162 98 162H144C145.525 162 146.988 161.394 148.066 160.316C149.144 159.238 149.75 157.775 149.75 156.25V75.75C149.751 74.9944 149.604 74.246 149.316 73.5474C149.028 72.8489 148.605 72.214 148.071 71.679L132.5 56.1195V18.25C132.5 16.725 131.894 15.2625 130.816 14.1842C129.738 13.1058 128.275 12.5 126.75 12.5H115.25C113.725 12.5 112.262 13.1058 111.184 14.1842C110.106 15.2625 109.5 16.725 109.5 18.25V33.1195L79.071 2.67902C78.5369 2.14355 77.9024 1.7187 77.2038 1.42883C76.5052 1.13896 75.7563 0.989746 75 0.989746C74.2437 0.989746 73.4948 1.13896 72.7962 1.42883C72.0976 1.7187 71.4631 2.14355 70.929 2.67902L1.92901 71.679C1.39539 72.214 0.97244 72.8489 0.684345 73.5474C0.396251 74.246 0.24866 74.9944 0.250009 75.75V156.25C0.250009 157.775 0.855811 159.238 1.93414 160.316C3.01248 161.394 4.47501 162 6.00001 162H52C53.525 162 54.9875 161.394 56.0659 160.316C57.1442 159.238 57.75 157.775 57.75 156.25Z" fill="url(#paint0_radial_1603_1831)"/>
<path d="M148.75 75.75V75.7482C148.751 75.124 148.629 74.5057 148.391 73.9287C148.153 73.3522 147.804 72.8281 147.364 72.3864L148.75 75.75ZM148.75 75.75V156.25C148.75 157.51 148.25 158.718 147.359 159.609C146.468 160.5 145.26 161 144 161H98C96.7402 161 95.532 160.5 94.6412 159.609C93.7504 158.718 93.25 157.51 93.25 156.25V116C93.25 114.237 92.3787 112.558 91.1602 111.34C89.9418 110.121 88.2627 109.25 86.5 109.25H63.5C61.7377 109.25 60.0596 110.121 58.8421 111.33C57.6258 112.539 56.75 114.204 56.75 115.943V156.25C56.75 157.51 56.2496 158.718 55.3588 159.609C54.468 160.5 53.2598 161 52 161H6.00001C4.74023 161 3.53205 160.5 2.64125 159.609C1.75045 158.718 1.25001 157.51 1.25001 156.25L1.25001 75.75L1.25001 75.7482C1.24889 75.124 1.37082 74.5057 1.60881 73.9287C1.84673 73.3518 2.196 72.8275 2.63665 72.3856C2.63677 72.3855 2.63689 72.3854 2.63701 72.3852L71.6361 3.38613L71.637 3.38524C72.0782 2.94289 72.6024 2.59193 73.1795 2.35247C73.7566 2.11301 74.3752 1.98975 75 1.98975C75.6248 1.98975 76.2434 2.11301 76.8205 2.35247C77.3976 2.59193 77.9218 2.94289 78.363 3.38524L78.3638 3.386L108.793 33.8265L110.5 35.5344V33.1195V18.25C110.5 16.9902 111 15.7821 111.891 14.8913C112.782 14.0005 113.99 13.5 115.25 13.5H126.75C128.01 13.5 129.218 14.0005 130.109 14.8913C131 15.7821 131.5 16.9902 131.5 18.25V56.1195V56.534L131.793 56.8269L147.363 72.3852L148.75 75.75ZM149.75 156.25V75.75H0.250009V156.25C0.250009 157.775 0.855811 159.238 1.93414 160.316C3.01248 161.394 4.47501 162 6.00001 162H52C53.525 162 54.9875 161.394 56.0659 160.316C57.1442 159.238 57.75 157.775 57.75 156.25V115.943C57.75 113.125 60.625 110.25 63.5 110.25H86.5C89.375 110.25 92.25 113.125 92.25 116V156.25C92.25 157.775 92.8558 159.238 93.9341 160.316C95.0125 161.394 96.475 162 98 162H144C145.525 162 146.988 161.394 148.066 160.316C149.144 159.238 149.75 157.775 149.75 156.25Z" stroke="url(#paint1_radial_1603_1831)" stroke-opacity="0.08" stroke-width="2"/>
<path d="M148.75 75.75V75.7482C148.751 75.124 148.629 74.5057 148.391 73.9287C148.153 73.3522 147.804 72.8281 147.364 72.3864L148.75 75.75ZM148.75 75.75V156.25C148.75 157.51 148.25 158.718 147.359 159.609C146.468 160.5 145.26 161 144 161H98C96.7402 161 95.532 160.5 94.6412 159.609C93.7504 158.718 93.25 157.51 93.25 156.25V116C93.25 114.237 92.3787 112.558 91.1602 111.34C89.9418 110.121 88.2627 109.25 86.5 109.25H63.5C61.7377 109.25 60.0596 110.121 58.8421 111.33C57.6258 112.539 56.75 114.204 56.75 115.943V156.25C56.75 157.51 56.2496 158.718 55.3588 159.609C54.468 160.5 53.2598 161 52 161H6.00001C4.74023 161 3.53205 160.5 2.64125 159.609C1.75045 158.718 1.25001 157.51 1.25001 156.25L1.25001 75.75L1.25001 75.7482C1.24889 75.124 1.37082 74.5057 1.60881 73.9287C1.84673 73.3518 2.196 72.8275 2.63665 72.3856C2.63677 72.3855 2.63689 72.3854 2.63701 72.3852L71.6361 3.38613L71.637 3.38524C72.0782 2.94289 72.6024 2.59193 73.1795 2.35247C73.7566 2.11301 74.3752 1.98975 75 1.98975C75.6248 1.98975 76.2434 2.11301 76.8205 2.35247C77.3976 2.59193 77.9218 2.94289 78.363 3.38524L78.3638 3.386L108.793 33.8265L110.5 35.5344V33.1195V18.25C110.5 16.9902 111 15.7821 111.891 14.8913C112.782 14.0005 113.99 13.5 115.25 13.5H126.75C128.01 13.5 129.218 14.0005 130.109 14.8913C131 15.7821 131.5 16.9902 131.5 18.25V56.1195V56.534L131.793 56.8269L147.363 72.3852L148.75 75.75ZM149.75 156.25V75.75H0.250009V156.25C0.250009 157.775 0.855811 159.238 1.93414 160.316C3.01248 161.394 4.47501 162 6.00001 162H52C53.525 162 54.9875 161.394 56.0659 160.316C57.1442 159.238 57.75 157.775 57.75 156.25V115.943C57.75 113.125 60.625 110.25 63.5 110.25H86.5C89.375 110.25 92.25 113.125 92.25 116V156.25C92.25 157.775 92.8558 159.238 93.9341 160.316C95.0125 161.394 96.475 162 98 162H144C145.525 162 146.988 161.394 148.066 160.316C149.144 159.238 149.75 157.775 149.75 156.25Z" stroke="url(#paint2_radial_1603_1831)" stroke-opacity="0.08" stroke-width="2"/>
<path d="M148.75 75.75V75.7482C148.751 75.124 148.629 74.5057 148.391 73.9287C148.153 73.3522 147.804 72.8281 147.364 72.3864L148.75 75.75ZM148.75 75.75V156.25C148.75 157.51 148.25 158.718 147.359 159.609C146.468 160.5 145.26 161 144 161H98C96.7402 161 95.532 160.5 94.6412 159.609C93.7504 158.718 93.25 157.51 93.25 156.25V116C93.25 114.237 92.3787 112.558 91.1602 111.34C89.9418 110.121 88.2627 109.25 86.5 109.25H63.5C61.7377 109.25 60.0596 110.121 58.8421 111.33C57.6258 112.539 56.75 114.204 56.75 115.943V156.25C56.75 157.51 56.2496 158.718 55.3588 159.609C54.468 160.5 53.2598 161 52 161H6.00001C4.74023 161 3.53205 160.5 2.64125 159.609C1.75045 158.718 1.25001 157.51 1.25001 156.25L1.25001 75.75L1.25001 75.7482C1.24889 75.124 1.37082 74.5057 1.60881 73.9287C1.84673 73.3518 2.196 72.8275 2.63665 72.3856C2.63677 72.3855 2.63689 72.3854 2.63701 72.3852L71.6361 3.38613L71.637 3.38524C72.0782 2.94289 72.6024 2.59193 73.1795 2.35247C73.7566 2.11301 74.3752 1.98975 75 1.98975C75.6248 1.98975 76.2434 2.11301 76.8205 2.35247C77.3976 2.59193 77.9218 2.94289 78.363 3.38524L78.3638 3.386L108.793 33.8265L110.5 35.5344V33.1195V18.25C110.5 16.9902 111 15.7821 111.891 14.8913C112.782 14.0005 113.99 13.5 115.25 13.5H126.75C128.01 13.5 129.218 14.0005 130.109 14.8913C131 15.7821 131.5 16.9902 131.5 18.25V56.1195V56.534L131.793 56.8269L147.363 72.3852L148.75 75.75ZM149.75 156.25V75.75H0.250009V156.25C0.250009 157.775 0.855811 159.238 1.93414 160.316C3.01248 161.394 4.47501 162 6.00001 162H52C53.525 162 54.9875 161.394 56.0659 160.316C57.1442 159.238 57.75 157.775 57.75 156.25V115.943C57.75 113.125 60.625 110.25 63.5 110.25H86.5C89.375 110.25 92.25 113.125 92.25 116V156.25C92.25 157.775 92.8558 159.238 93.9341 160.316C95.0125 161.394 96.475 162 98 162H144C145.525 162 146.988 161.394 148.066 160.316C149.144 159.238 149.75 157.775 149.75 156.25Z" stroke="url(#paint3_linear_1603_1831)" stroke-opacity="0.4" stroke-width="2"/>
</g>
<defs>
<filter id="filter0_b_1603_1831" x="-39.75" y="-39.0103" width="229.5" height="241.01" filterUnits="userSpaceOnUse" color-interpolation-filters="sRGB">
<feFlood flood-opacity="0" result="BackgroundImageFix"/>
<feGaussianBlur in="BackgroundImage" stdDeviation="20"/>
<feComposite in2="SourceAlpha" operator="in" result="effect1_backgroundBlur_1603_1831"/>
<feBlend mode="normal" in="SourceGraphic" in2="effect1_backgroundBlur_1603_1831" result="shape"/>
</filter>
<radialGradient id="paint0_radial_1603_1831" cx="0" cy="0" r="1" gradientUnits="userSpaceOnUse" gradientTransform="translate(1.59472 5.78013) rotate(46.1985) scale(210.733 336.918)">
<stop stop-color="white" stop-opacity="0.72"/>
<stop offset="1" stop-color="white" stop-opacity="0.24"/>
</radialGradient>
<radialGradient id="paint1_radial_1603_1831" cx="0" cy="0" r="1" gradientUnits="userSpaceOnUse" gradientTransform="translate(1.59472 5.78013) rotate(46.1985) scale(210.733 336.918)">
<stop stop-color="#E5E6E8" stop-opacity="0"/>
<stop offset="1" stop-color="#E5E6E8"/>
</radialGradient>
<radialGradient id="paint2_radial_1603_1831" cx="0" cy="0" r="1" gradientUnits="userSpaceOnUse" gradientTransform="translate(2.30661 157.077) rotate(-46.1879) scale(209.664 334.865)">
<stop stop-color="#E5E6E8" stop-opacity="0"/>
<stop offset="1" stop-color="#E5E6E8"/>
</radialGradient>
<linearGradient id="paint3_linear_1603_1831" x1="3.01852" y1="5.38094" x2="180.242" y2="80.5624" gradientUnits="userSpaceOnUse">
<stop stop-color="white" stop-opacity="0.7"/>
<stop offset="1" stop-color="white" stop-opacity="0"/>
</linearGradient>
</defs>
</svg>
