<svg width="25" height="25" viewBox="0 0 25 25" fill="none" xmlns="http://www.w3.org/2000/svg">
<path d="M12.5 23.1213C6.439 23.1213 1.5 18.1823 1.5 12.1213C1.5 6.06034 6.439 1.12134 12.5 1.12134C18.561 1.12134 23.5 5.56534 23.5 11.0213C23.5 14.6623 20.541 17.6213 16.9 17.6213H14.953C14.645 17.6213 14.403 17.8633 14.403 18.1713C14.403 18.3033 14.458 18.4243 14.546 18.5343C14.997 19.0513 15.25 19.7003 15.25 20.3713C15.25 21.1007 14.9603 21.8002 14.4445 22.3159C13.9288 22.8316 13.2293 23.1213 12.5 23.1213V23.1213ZM12.5 3.32134C7.649 3.32134 3.7 7.27034 3.7 12.1213C3.7 16.9723 7.649 20.9213 12.5 20.9213C12.808 20.9213 13.05 20.6793 13.05 20.3713C13.0466 20.2287 12.9919 20.092 12.896 19.9863C12.445 19.4803 12.203 18.8313 12.203 18.1713C12.203 17.442 12.4927 16.7425 13.0085 16.2268C13.5242 15.7111 14.2237 15.4213 14.953 15.4213H16.9C19.331 15.4213 21.3 13.4523 21.3 11.0213C21.3 6.77534 17.351 3.32134 12.5 3.32134Z" fill="white"/>
<path d="M6.4498 13.2214C7.36107 13.2214 8.0998 12.4827 8.0998 11.5714C8.0998 10.6601 7.36107 9.92139 6.4498 9.92139C5.53853 9.92139 4.7998 10.6601 4.7998 11.5714C4.7998 12.4827 5.53853 13.2214 6.4498 13.2214Z" fill="white"/>
<path d="M9.74961 8.82173C10.6609 8.82173 11.3996 8.083 11.3996 7.17173C11.3996 6.26046 10.6609 5.52173 9.74961 5.52173C8.83834 5.52173 8.09961 6.26046 8.09961 7.17173C8.09961 8.083 8.83834 8.82173 9.74961 8.82173Z" fill="white"/>
<path d="M15.2496 8.82173C16.1609 8.82173 16.8996 8.083 16.8996 7.17173C16.8996 6.26046 16.1609 5.52173 15.2496 5.52173C14.3383 5.52173 13.5996 6.26046 13.5996 7.17173C13.5996 8.083 14.3383 8.82173 15.2496 8.82173Z" fill="white"/>
<path d="M18.5504 13.2211C19.4617 13.2211 20.2004 12.4824 20.2004 11.5711C20.2004 10.6599 19.4617 9.92114 18.5504 9.92114C17.6391 9.92114 16.9004 10.6599 16.9004 11.5711C16.9004 12.4824 17.6391 13.2211 18.5504 13.2211Z" fill="white"/>
</svg>
