<svg width="25" height="25" viewBox="0 0 25 25" fill="none" xmlns="http://www.w3.org/2000/svg">
<path d="M12.2495 23.1213C9.68282 23.1213 7.49749 22.229 5.69349 20.4443C3.88871 18.6588 2.98633 16.502 2.98633 13.974C2.98633 12.7003 3.22756 11.5231 3.71001 10.4424C4.19247 9.36169 4.85826 8.39678 5.70738 7.54765L12.2495 1.12134L18.7916 7.54765C19.6407 8.39678 20.3065 9.36169 20.789 10.4424C21.2714 11.5231 21.5126 12.7003 21.5126 13.974C21.5126 16.502 20.6106 18.6588 18.8066 20.4443C17.0019 22.229 14.8162 23.1213 12.2495 23.1213ZM12.2495 20.8055V4.36344L7.32843 9.2266C6.653 9.86344 6.14661 10.5821 5.80928 11.3826C5.47117 12.1839 5.30212 13.0477 5.30212 13.974C5.30212 15.8459 5.97756 17.4523 7.32843 18.7931C8.67931 20.1347 10.3197 20.8055 12.2495 20.8055Z" fill="#E9E9E9"/>
</svg>
