<svg width="25" height="34" viewBox="0 0 25 34" fill="none" xmlns="http://www.w3.org/2000/svg">
<path d="M6.5653 23.1049C2.91947 20.9955 0.464111 17.0521 0.464111 12.5357C0.464111 5.79834 5.92914 0.333313 12.6665 0.333313C19.4038 0.333313 24.8689 5.79834 24.8689 12.5357C24.8689 17.0521 22.4135 20.9955 18.7677 23.1049V27.4166C18.7677 28.0751 18.2357 28.6071 17.5772 28.6071H7.75578C7.0973 28.6071 6.5653 28.0751 6.5653 27.4166V23.1049ZM8.20221 30.9881H17.1308C17.2945 30.9881 17.4284 31.122 17.4284 31.2857V32.4762C17.4284 33.1347 16.8964 33.6666 16.2379 33.6666H9.09506C8.43658 33.6666 7.90459 33.1347 7.90459 32.4762V31.2857C7.90459 31.122 8.03852 30.9881 8.20221 30.9881Z" fill="#D0D1D3"/>
</svg>
