<svg width="104" height="105" viewBox="0 0 104 105" fill="none" xmlns="http://www.w3.org/2000/svg">
<g clip-path="url(#clip0_1603_1708)">
<path d="M86.6665 13.5H30.3332C25.5535 13.5 21.6665 17.387 21.6665 22.1667V30.8333H17.3332C12.5535 30.8333 8.6665 34.7203 8.6665 39.5V82.8333C8.6665 87.613 12.5535 91.5 17.3332 91.5H43.3332C48.1128 91.5 51.9998 87.613 51.9998 82.8333H86.6665C91.4462 82.8333 95.3332 78.9463 95.3332 74.1667V22.1667C95.3332 17.387 91.4462 13.5 86.6665 13.5ZM43.3202 82.8333H17.3332V39.5H43.3332L43.3202 82.8333ZM86.6535 74.1667H51.9998V39.5C51.9998 34.7203 48.1128 30.8333 43.3332 30.8333H30.3332V22.1667H86.6665L86.6535 74.1667Z" fill="#D0D1D3"/>
<g filter="url(#filter0_d_1603_1708)">
<path fill-rule="evenodd" clip-rule="evenodd" d="M94.7976 94.3861L11.5532 10.4785L17.1409 6.04864L100.385 89.9562L94.7976 94.3861Z" fill="#D0D1D3"/>
<path d="M93.3778 95.7947L94.638 97.0649L96.0401 95.9533L101.628 91.5235L103.38 90.1346L101.805 88.5476L18.5607 4.64005L17.3005 3.36983L15.8984 4.4814L10.3107 8.91126L8.55886 10.3001L10.1333 11.8871L93.3778 95.7947Z" stroke="#3A3A3C" stroke-width="4"/>
</g>
</g>
<defs>
<filter id="filter0_d_1603_1708" x="5.56445" y="0.69104" width="100.81" height="99.0527" filterUnits="userSpaceOnUse" color-interpolation-filters="sRGB">
<feFlood flood-opacity="0" result="BackgroundImageFix"/>
<feColorMatrix in="SourceAlpha" type="matrix" values="0 0 0 0 0 0 0 0 0 0 0 0 0 0 0 0 0 0 127 0" result="hardAlpha"/>
<feOffset/>
<feComposite in2="hardAlpha" operator="out"/>
<feColorMatrix type="matrix" values="0 0 0 0 0.227451 0 0 0 0 0.227451 0 0 0 0 0.235294 0 0 0 1 0"/>
<feBlend mode="normal" in2="BackgroundImageFix" result="effect1_dropShadow_1603_1708"/>
<feBlend mode="normal" in="SourceGraphic" in2="effect1_dropShadow_1603_1708" result="shape"/>
</filter>
<clipPath id="clip0_1603_1708">
<rect width="104" height="104" fill="white" transform="translate(0 0.5)"/>
</clipPath>
</defs>
</svg>
