<svg width="104" height="105" viewBox="0 0 104 105" fill="none" xmlns="http://www.w3.org/2000/svg">
<g clip-path="url(#clip0_1603_1859)">
<path d="M52.0002 95.8333C56.7668 95.8333 60.6668 91.9333 60.6668 87.1666H43.3335C43.3335 91.9333 47.2335 95.8333 52.0002 95.8333ZM78.0002 69.8333V48.1666C78.0002 34.8633 70.9368 23.7266 58.5002 20.78V17.8333C58.5002 14.2366 55.5968 11.3333 52.0002 11.3333C48.4035 11.3333 45.5002 14.2366 45.5002 17.8333V20.78C33.1068 23.7266 26.0002 34.82 26.0002 48.1666V69.8333L17.3335 78.5V82.8333H86.6668V78.5L78.0002 69.8333ZM69.3335 74.1666H34.6668V48.1666C34.6668 37.42 41.2102 28.6666 52.0002 28.6666C62.7902 28.6666 69.3335 37.42 69.3335 48.1666V74.1666Z" fill="#D0D1D3"/>
<path d="M91.0775 97.7074L92.6569 99.3087L94.4157 97.9067L100.001 93.4543L102.174 91.7222L100.223 89.7438L16.9207 5.29303L15.3413 3.69179L13.5826 5.09375L7.9972 9.54612L5.82426 11.2783L7.7757 13.2566L91.0775 97.7074Z" fill="#D0D1D3" stroke="#3A3A3C" stroke-width="5"/>
</g>
<defs>
<clipPath id="clip0_1603_1859">
<rect width="104" height="104" fill="white" transform="translate(0 0.5)"/>
</clipPath>
</defs>
</svg>
