<svg width="56" height="56" viewBox="0 0 56 56" fill="none" xmlns="http://www.w3.org/2000/svg">
<path d="M52.2662 46.8125L29.5162 7.4375C29.1772 6.85234 28.592 6.5625 28.0014 6.5625C27.4108 6.5625 26.8201 6.85234 26.4865 7.4375L3.73654 46.8125C3.06389 47.9828 3.90607 49.4375 5.25139 49.4375H50.7514C52.0967 49.4375 52.9389 47.9828 52.2662 46.8125ZM26.2514 22.75C26.2514 22.5094 26.4483 22.3125 26.6889 22.3125H29.3139C29.5545 22.3125 29.7514 22.5094 29.7514 22.75V32.8125C29.7514 33.0531 29.5545 33.25 29.3139 33.25H26.6889C26.4483 33.25 26.2514 33.0531 26.2514 32.8125V22.75ZM28.0014 42C27.3145 41.986 26.6604 41.7033 26.1796 41.2125C25.6987 40.7217 25.4294 40.0621 25.4294 39.375C25.4294 38.6879 25.6987 38.0283 26.1796 37.5375C26.6604 37.0467 27.3145 36.764 28.0014 36.75C28.6883 36.764 29.3424 37.0467 29.8232 37.5375C30.304 38.0283 30.5733 38.6879 30.5733 39.375C30.5733 40.0621 30.304 40.7217 29.8232 41.2125C29.3424 41.7033 28.6883 41.986 28.0014 42Z" fill="#2A2A2A"/>
<path d="M28.0014 42C27.3145 41.986 26.6604 41.7033 26.1796 41.2125C25.6987 40.7217 25.4294 40.0621 25.4294 39.375C25.4294 38.6879 25.6987 38.0283 26.1796 37.5375C26.6604 37.0467 27.3145 36.764 28.0014 36.75C28.6883 36.764 29.3424 37.0467 29.8232 37.5375C30.304 38.0283 30.5733 38.6879 30.5733 39.375C30.5733 40.0621 30.304 40.7217 29.8232 41.2125C29.3424 41.7033 28.6883 41.986 28.0014 42Z" fill="#2A2A2A"/>
<path d="M26.2514 22.75C26.2514 22.5094 26.4483 22.3125 26.6889 22.3125H29.3139C29.5545 22.3125 29.7514 22.5094 29.7514 22.75V32.8125C29.7514 33.0531 29.5545 33.25 29.3139 33.25H26.6889C26.4483 33.25 26.2514 33.0531 26.2514 32.8125V22.75Z" fill="#2A2A2A"/>
<path d="M52.2648 46.8125L29.5148 7.4375C29.1757 6.85234 28.5905 6.5625 27.9999 6.5625C27.4093 6.5625 26.8187 6.85234 26.4851 7.4375L3.73508 46.8125C3.06242 47.9828 3.90461 49.4375 5.24992 49.4375H50.7499C52.0952 49.4375 52.9374 47.9828 52.2648 46.8125ZM26.2499 22.75C26.2499 22.5094 26.4468 22.3125 26.6874 22.3125H29.3124C29.553 22.3125 29.7499 22.5094 29.7499 22.75V32.8125C29.7499 33.0531 29.553 33.25 29.3124 33.25H26.6874C26.4468 33.25 26.2499 33.0531 26.2499 32.8125V22.75ZM27.9999 42C27.313 41.986 26.659 41.7033 26.1781 41.2125C25.6973 40.7217 25.428 40.0621 25.428 39.375C25.428 38.6879 25.6973 38.0283 26.1781 37.5375C26.659 37.0467 27.313 36.764 27.9999 36.75C28.6868 36.764 29.3409 37.0467 29.8217 37.5375C30.3026 38.0283 30.5719 38.6879 30.5719 39.375C30.5719 40.0621 30.3026 40.7217 29.8217 41.2125C29.3409 41.7033 28.6868 41.986 27.9999 42Z" fill="#EBA17E"/>
</svg>
