<svg width="25" height="25" viewBox="0 0 25 25" fill="none" xmlns="http://www.w3.org/2000/svg">
<path d="M12.75 18.1709C14.125 18.1709 15.2939 17.6899 16.2568 16.7277C17.2189 15.7649 17.7 14.5959 17.7 13.2209C17.7 11.8459 17.2189 10.677 16.2568 9.71415C15.2939 8.75201 14.125 8.27095 12.75 8.27095C11.375 8.27095 10.2061 8.75201 9.2432 9.71415C8.28107 10.677 7.8 11.8459 7.8 13.2209C7.8 14.5959 8.28107 15.7649 9.2432 16.7277C10.2061 17.6899 11.375 18.1709 12.75 18.1709ZM12.75 15.9709C11.98 15.9709 11.3292 15.7051 10.7975 15.1734C10.2658 14.6418 10 13.9909 10 13.2209C10 12.4509 10.2658 11.8001 10.7975 11.2684C11.3292 10.7368 11.98 10.4709 12.75 10.4709C13.52 10.4709 14.1708 10.7368 14.7025 11.2684C15.2342 11.8001 15.5 12.4509 15.5 13.2209C15.5 13.9909 15.2342 14.6418 14.7025 15.1734C14.1708 15.7051 13.52 15.9709 12.75 15.9709ZM3.95 22.0209C3.345 22.0209 2.82727 21.8057 2.3968 21.3752C1.9656 20.944 1.75 20.4259 1.75 19.8209V6.62095C1.75 6.01595 1.9656 5.49821 2.3968 5.06775C2.82727 4.63655 3.345 4.42095 3.95 4.42095H7.415L9.45 2.22095H16.05L18.085 4.42095H21.55C22.155 4.42095 22.6731 4.63655 23.1043 5.06775C23.5348 5.49821 23.75 6.01595 23.75 6.62095V19.8209C23.75 20.4259 23.5348 20.944 23.1043 21.3752C22.6731 21.8057 22.155 22.0209 21.55 22.0209H3.95ZM21.55 19.8209V6.62095H17.095L15.0875 4.42095H10.4125L8.405 6.62095H3.95V19.8209H21.55Z" fill="#E9E9E9"/>
</svg>
