<svg width="80" height="81" viewBox="0 0 80 81" fill="none" xmlns="http://www.w3.org/2000/svg">
<path fill-rule="evenodd" clip-rule="evenodd" d="M5.49982 17.4641C5.49982 10.6504 10.9419 5.12646 17.6547 5.12646H62.4358C69.1487 5.12646 74.5907 10.6504 74.5907 17.4641V61.8797C74.5907 68.6935 69.1487 74.2174 62.4358 74.2174H17.6547C10.9419 74.2174 5.49982 68.6935 5.49982 61.8797V17.4641ZM22.3375 18.1924H57.752C60.113 18.1924 62.0447 20.1241 62.0447 22.4852V57.8997C62.0447 60.2607 60.113 62.1924 57.752 62.1924H22.3375C19.9764 62.1924 18.0447 60.2607 18.0447 57.8997V22.4852C18.0447 20.1241 19.9764 18.1924 22.3375 18.1924ZM57.752 58.9727C58.3422 58.9727 58.8251 58.4898 58.8251 57.8996V22.4851C58.8251 21.8949 58.3422 21.412 57.752 21.412H22.3375C21.7473 21.412 21.2644 21.8948 21.2644 22.4851V57.8996C21.2644 58.4898 21.7472 58.9727 22.3375 58.9727H57.752ZM56.6791 23.5584L56.6787 56.8265H23.4106L23.4109 23.5584H56.6791ZM53.4592 40.1924C53.4592 32.7875 47.4496 26.7779 40.0446 26.7779C32.6397 26.7779 26.6301 32.7875 26.6301 40.1924C26.6301 47.5974 32.6397 53.607 40.0446 53.607C47.4496 53.607 53.4592 47.5974 53.4592 40.1924ZM51.3129 40.1924C51.3129 46.4167 46.2691 51.4607 40.0446 51.4607C33.8204 51.4607 28.7764 46.4167 28.7764 40.1924C28.7764 33.9682 33.8204 28.9242 40.0446 28.9242C46.2689 28.9242 51.3129 33.9682 51.3129 40.1924ZM41.1177 33.2168C41.1177 32.6265 40.6349 32.1437 40.0446 32.1437L40.0447 32.1437C35.591 32.1437 31.9959 35.7388 31.9959 40.1925C31.9959 40.7827 32.4787 41.2655 33.069 41.2655C33.6592 41.2655 34.1421 40.7827 34.1421 40.1925C34.1421 39.7631 34.196 39.3877 34.303 38.9584C34.7324 36.7044 36.557 34.8801 38.8642 34.3973C39.2399 34.3434 39.6153 34.2898 40.0446 34.2898C40.6349 34.2898 41.1177 33.807 41.1177 33.2168Z" fill="#D0D1D3"/>
</svg>
