<svg width="80" height="81" viewBox="0 0 80 81" fill="none" xmlns="http://www.w3.org/2000/svg">
<path fill-rule="evenodd" clip-rule="evenodd" d="M16.5585 5.64697C10.4281 5.64697 5.45459 10.6205 5.45459 16.7509V63.634C5.45459 69.7643 10.4281 74.7379 16.5585 74.7379H63.4416C69.5719 74.7379 74.5455 69.7643 74.5455 63.634V16.7509C74.5455 10.6205 69.5719 5.64697 63.4416 5.64697H16.5585ZM52.5875 25.0875C52.5875 23.6973 51.4602 22.57 50.07 22.57C48.6797 22.57 47.5525 23.6973 47.5525 25.0875V30.1225C47.5525 31.5127 48.6797 32.64 50.07 32.64C51.4602 32.64 52.5875 31.5127 52.5875 30.1225V25.0875ZM27.4126 50.2624C27.4126 43.3107 33.0483 37.6749 40 37.6749C46.9518 37.6749 52.5875 43.3107 52.5875 50.2624V55.2973C52.5875 56.6876 51.4602 57.8148 50.07 57.8148H29.9301C28.5399 57.8148 27.4126 56.6876 27.4126 55.2973V50.2624ZM29.9301 22.57C31.3204 22.57 32.4476 23.6973 32.4476 25.0875V30.1225C32.4476 31.5127 31.3204 32.64 29.9301 32.64C28.5399 32.64 27.4126 31.5127 27.4126 30.1225V25.0875C27.4126 23.6973 28.5399 22.57 29.9301 22.57Z" fill="#D0D1D3"/>
</svg>
