<svg width="56" height="56" viewBox="0 0 56 56" fill="none" xmlns="http://www.w3.org/2000/svg">
<path fill-rule="evenodd" clip-rule="evenodd" d="M11.5911 3.81836C7.29985 3.81836 3.81836 7.29985 3.81836 11.5911V44.4093C3.81836 48.7005 7.29985 52.182 11.5911 52.182H44.4093C48.7005 52.182 52.182 48.7005 52.182 44.4093V11.5911C52.182 7.29985 48.7005 3.81836 44.4093 3.81836H11.5911ZM42.0002 26.4448L37.6446 24.8893C37.4891 24.5782 37.4113 24.3448 37.3335 24.1115C37.2557 23.8782 37.1779 23.6448 37.0224 23.3337L38.8891 19.2893L36.7113 17.1115L32.6668 18.9782C32.3557 18.8226 32.1224 18.7448 31.8891 18.6671C31.6557 18.5893 31.4224 18.5115 31.1113 18.356L29.5557 14.0004H26.4446L24.8891 18.356C24.5779 18.5115 24.3446 18.5893 24.1113 18.6671C23.8779 18.7448 23.6446 18.8226 23.3335 18.9782L19.2891 17.1115L17.1113 19.2893L18.9779 23.3337C18.8224 23.6448 18.7446 23.8782 18.6668 24.1115L18.6668 24.1115C18.5891 24.3448 18.5113 24.5782 18.3557 24.8893L14.0002 26.4448V29.556L18.3557 31.1115C18.5113 31.4226 18.5891 31.656 18.6668 31.8893C18.7446 32.1226 18.8224 32.356 18.9779 32.6671L17.1113 36.7115L19.2891 38.8893L23.3335 37.0226C23.5002 37.106 23.6446 37.1893 23.7786 37.2667C24.1448 37.4781 24.4336 37.6449 24.8891 37.6449L26.4446 42.0004H29.5557L31.1113 37.6449C31.4224 37.4893 31.6557 37.4115 31.8891 37.3337C32.1224 37.256 32.3557 37.1782 32.6668 37.0226L36.7113 38.8893L38.8891 36.7115L37.0224 32.6671C37.1058 32.5003 37.1891 32.356 37.2665 32.2219C37.4779 31.8558 37.6446 31.567 37.6446 31.1115L42.0002 29.556V26.4448ZM26.8897 23.1864C26.2231 22.7865 25.3752 23.2666 25.3752 24.0439V31.9589C25.3752 32.7362 26.2231 33.2163 26.8897 32.8164L33.4855 28.8589C34.1328 28.4705 34.1328 27.5323 33.4855 27.1439L26.8897 23.1864Z" fill="#D0D1D3"/>
</svg>
