<svg width="80" height="81" viewBox="0 0 80 81" fill="none" xmlns="http://www.w3.org/2000/svg">
<path fill-rule="evenodd" clip-rule="evenodd" d="M40 6.02661C59.0802 6.02538 74.5469 21.4919 74.5455 40.5721C74.5467 59.6523 59.0802 75.119 40 75.1175C20.9199 75.1188 5.45314 59.6523 5.45459 40.5721C5.45336 21.4919 20.9199 6.02517 40 6.02661ZM18.1067 42.3902C19.1116 42.3902 19.9249 41.5768 19.9249 40.572C21.0179 14.0494 58.825 14.0369 59.9249 40.572C59.9704 42.9641 63.5126 42.9632 63.5613 40.572C63.5613 27.5395 52.9574 16.9356 39.9249 16.9356C26.8924 16.9356 16.2885 27.5395 16.2885 40.572C16.2885 41.5768 17.1018 42.3902 18.1067 42.3902ZM45.3794 40.572C45.3794 43.5802 42.9331 46.0265 39.9249 46.0265C33.8168 45.9697 32.4176 37.4867 38.1067 35.4526V24.2083C38.1067 23.2035 38.92 22.3902 39.9249 22.3902C40.9298 22.3902 41.7431 23.2035 41.7431 24.2083V35.4526C43.8551 36.2058 45.3794 38.205 45.3794 40.572ZM30.834 58.7538C29.8291 58.7538 29.0158 57.9405 29.0158 56.9356C29.0158 55.9307 29.8291 55.1174 30.834 55.1174H49.0158C51.4006 55.1556 51.4102 58.7141 49.0158 58.7538H30.834Z" fill="#D0D1D3"/>
</svg>
