<svg width="80" height="81" viewBox="0 0 80 81" fill="none" xmlns="http://www.w3.org/2000/svg">
<path fill-rule="evenodd" clip-rule="evenodd" d="M5.45459 24.2484C5.45459 13.9749 13.7825 5.64697 24.056 5.64697H55.9441C66.2175 5.64697 74.5455 13.9749 74.5455 24.2484V56.1365C74.5455 66.4099 66.2175 74.7379 55.9441 74.7379H24.056C13.7825 74.7379 5.45459 66.4099 5.45459 56.1365V24.2484ZM40.3901 37.0755V38.6339C40.3901 39.2795 40.9133 39.8027 41.5589 39.8027H41.9486V43.3092C41.9486 43.4126 41.9075 43.5117 41.8345 43.5848C41.7614 43.6578 41.6623 43.6988 41.5589 43.6988H36.8836C36.7803 43.6988 36.6811 43.6578 36.6081 43.5848C36.5351 43.5117 36.494 43.4126 36.494 43.3092V39.8027H36.8836C37.5293 39.8027 38.0524 39.2795 38.0524 38.6339V37.0755C38.0524 36.8601 38.2267 36.6859 38.4421 36.6859H40.0005C40.1038 36.6859 40.203 36.7269 40.276 36.8C40.3491 36.873 40.3901 36.9721 40.3901 37.0755ZM52.8578 38.6339V37.0755C52.8578 36.9721 52.8167 36.873 52.7437 36.8C52.6707 36.7269 52.5715 36.6859 52.4682 36.6859H50.9097C50.6944 36.6859 50.5201 36.8601 50.5201 37.0755V38.6339C50.5201 39.2795 49.9969 39.8027 49.3513 39.8027H48.9617V43.3092C48.9617 43.4126 49.0027 43.5117 49.0758 43.5848C49.1488 43.6578 49.248 43.6988 49.3513 43.6988H54.0266C54.1299 43.6988 54.2291 43.6578 54.3021 43.5848C54.3752 43.5117 54.4162 43.4126 54.4162 43.3092V39.8027H54.0266C53.381 39.8027 52.8578 39.2795 52.8578 38.6339ZM22.8572 29.2833H57.1429C58.3831 29.2833 59.572 29.7759 60.449 30.6525C61.3256 31.5295 61.8182 32.7185 61.8182 33.9587V46.4262C61.8182 47.6664 61.3256 48.8553 60.449 49.7323C59.572 50.6089 58.3831 51.1015 57.1429 51.1015H22.8572C21.617 51.1015 20.428 50.6089 19.5511 49.7323C18.6744 48.8553 18.1819 47.6664 18.1819 46.4262V33.9587C18.1819 32.7185 18.6744 31.5295 19.5511 30.6525C20.4281 29.7759 21.617 29.2833 22.8572 29.2833ZM25.9741 44.8678H27.5325C28.0894 44.8678 28.6039 44.5707 28.8822 44.0885C29.1605 43.6064 29.1605 43.0122 28.8822 42.5301C28.6039 42.0479 28.0894 41.7509 27.5325 41.7509H25.9741C25.4172 41.7509 24.9027 42.048 24.6244 42.5301C24.3461 43.0122 24.3461 43.6064 24.6244 44.0885C24.9027 44.5707 25.4171 44.8678 25.9741 44.8678ZM25.9741 38.634H27.5325C28.0894 38.634 28.6039 38.3369 28.8822 37.8548C29.1605 37.3726 29.1605 36.7785 28.8822 36.2963C28.6039 35.8142 28.0894 35.5171 27.5325 35.5171H25.9741C25.4172 35.5171 24.9027 35.8142 24.6244 36.2963C24.3461 36.7785 24.3461 37.3726 24.6244 37.8548C24.9027 38.3369 25.4171 38.634 25.9741 38.634ZM43.4856 45.2369C43.9969 44.7254 44.2846 44.0325 44.2853 43.3093V38.634C44.2853 37.9883 43.7621 37.4652 43.1165 37.4652H42.7269V37.0755C42.7262 36.3522 42.4385 35.6593 41.9271 35.148C41.4157 34.6366 40.7228 34.3489 39.9996 34.3482H38.4411C37.7178 34.3489 37.0249 34.6366 36.5135 35.148C36.0022 35.6594 35.7145 36.3523 35.7138 37.0755V37.4652H35.3242C34.6785 37.4652 34.1554 37.9883 34.1554 38.634V43.3093C34.156 44.0326 34.4437 44.7255 34.9551 45.2369C35.4665 45.7482 36.1595 46.0359 36.8827 46.0366H41.558C42.2813 46.0359 42.9742 45.7482 43.4856 45.2369ZM55.9531 45.2369C56.4645 44.7254 56.7521 44.0325 56.7528 43.3093V38.634C56.7528 37.9883 56.2297 37.4652 55.584 37.4652H55.1944V37.0755C55.1937 36.3522 54.906 35.6593 54.3947 35.148C53.8832 34.6366 53.1903 34.3489 52.4671 34.3482H50.9086C50.1853 34.3489 49.4924 34.6366 48.9811 35.148C48.4697 35.6594 48.182 36.3523 48.1813 37.0755V37.4652H47.7917C47.1461 37.4652 46.6229 37.9883 46.6229 38.634V43.3093C46.6236 44.0326 46.9113 44.7255 47.4226 45.2369C47.9341 45.7482 48.627 46.0359 49.3502 46.0366H54.0255C54.7488 46.0359 55.4417 45.7482 55.9531 45.2369Z" fill="#D0D1D3"/>
</svg>
