<svg width="48" height="48" viewBox="0 0 48 48" fill="none" xmlns="http://www.w3.org/2000/svg">
<path d="M23.287 14.3764C23.8294 13.8951 24.0433 13.1388 23.7607 12.4666C23.585 12.0617 23.394 11.6644 23.1801 11.2825L22.9433 10.87C22.7141 10.488 22.462 10.1137 22.1946 9.75463C21.7592 9.17404 20.9953 8.98306 20.3077 9.21224L18.1535 9.92269C17.3361 9.25044 16.3964 8.70041 15.3881 8.32609L14.9221 6.11071C14.7769 5.40026 14.2269 4.83495 13.5088 4.75092C12.9893 4.68217 12.4699 4.65161 11.9428 4.65161C11.4157 4.65161 10.8962 4.68217 10.3844 4.74328C9.66627 4.82731 9.11625 5.40026 8.9711 6.10307L8.50511 8.32609C7.48909 8.70805 6.5571 9.25044 5.7397 9.92269L3.57779 9.21988C2.89026 8.9907 2.12634 9.18168 1.6909 9.76227C1.42353 10.1213 1.17143 10.4956 0.934616 10.8776L0.705438 11.2825C0.49154 11.6644 0.300558 12.0617 0.124856 12.4742C-0.157796 13.1388 0.0561026 13.8951 0.598489 14.384L2.2944 15.8966C2.21037 16.4084 2.16453 16.9432 2.16453 17.4855C2.16453 18.0279 2.21037 18.5627 2.2944 19.0821L0.598489 20.5947C0.0561026 21.076 -0.157796 21.8323 0.124856 22.5045C0.300558 22.9094 0.49154 23.3066 0.705438 23.6962L0.934616 24.0935C1.16379 24.4831 1.41589 24.8498 1.6909 25.2088C2.12634 25.7894 2.89026 25.9804 3.57779 25.7512L5.73206 25.0408C6.54946 25.713 7.48909 26.263 8.49747 26.6374L8.96346 28.8604C9.10861 29.5708 9.65863 30.1361 10.3767 30.2202C10.8886 30.2813 11.408 30.3118 11.9351 30.3118C12.4622 30.3118 12.9817 30.2813 13.4935 30.2202C14.2116 30.1361 14.7616 29.5632 14.9068 28.8604L15.3728 26.6374C16.3888 26.2554 17.3208 25.713 18.1382 25.0408L20.2925 25.7512C20.98 25.9804 21.7439 25.7894 22.1794 25.2088C22.4467 24.8498 22.6988 24.4831 22.928 24.0935L23.1648 23.681C23.3787 23.299 23.5697 22.9018 23.7454 22.4969C24.0281 21.8323 23.8142 21.076 23.2718 20.5871L21.5759 19.0745C21.6599 18.555 21.7057 18.0203 21.7057 17.4779C21.7057 16.9355 21.6599 16.4008 21.5759 15.8813L23.2718 14.3687L23.287 14.3764ZM15.6096 17.4855C15.6096 19.5099 13.9672 21.1524 11.9428 21.1524C9.91837 21.1524 8.27593 19.5099 8.27593 17.4855C8.27593 15.4611 9.91837 13.8187 11.9428 13.8187C13.9672 13.8187 15.6096 15.4611 15.6096 17.4855ZM38.2752 42.2749C38.7565 42.8173 39.5128 43.0312 40.1851 42.7485C40.5899 42.5728 40.9872 42.3818 41.3691 42.1679L41.7817 41.9311C42.1636 41.7019 42.5379 41.4499 42.897 41.1825C43.4776 40.747 43.6685 39.9831 43.4394 39.2956L42.7289 37.1413C43.4012 36.3239 43.9512 35.3843 44.3255 34.3759L46.5485 33.9099C47.259 33.7648 47.8243 33.2147 47.9083 32.4967C47.9694 31.9848 48 31.4654 48 30.9383C48 30.4111 47.9694 29.8917 47.9083 29.3798C47.8243 28.6618 47.2514 28.1117 46.5485 27.9666L44.3255 27.493C43.9436 26.4769 43.4012 25.5449 42.7289 24.7275L43.4394 22.5733C43.6685 21.8857 43.4776 21.1218 42.897 20.6864C42.5379 20.419 42.1636 20.1669 41.7817 19.9301L41.3768 19.7009C40.9948 19.487 40.5976 19.296 40.1851 19.1203C39.5204 18.8377 38.7642 19.0516 38.2752 19.594L36.7627 21.2899C36.2432 21.2059 35.7085 21.16 35.1661 21.16C34.6237 21.16 34.0889 21.2059 33.5695 21.2899L32.0569 19.594C31.5756 19.0516 30.8193 18.8377 30.1471 19.1203C29.7422 19.296 29.345 19.487 28.9554 19.7009L28.5581 19.9301C28.1685 20.1593 27.8018 20.4114 27.4428 20.6864C26.8622 21.1218 26.6712 21.8857 26.9004 22.5733L27.6109 24.7275C26.9386 25.5449 26.3886 26.4846 26.0143 27.493L23.7912 27.9513C23.0808 28.0965 22.5155 28.6465 22.4314 29.3646C22.3703 29.8764 22.3398 30.3959 22.3398 30.923C22.3398 31.4501 22.3703 31.9695 22.4314 32.4814C22.5155 33.1995 23.0884 33.7495 23.7912 33.8946L26.0143 34.3606C26.3962 35.3767 26.9386 36.3086 27.6109 37.126L26.9004 39.2803C26.6712 39.9678 26.8622 40.7318 27.4428 41.1672C27.8018 41.4346 28.1685 41.6867 28.5581 41.9158L28.9706 42.1527C29.3526 42.3666 29.7498 42.5575 30.1547 42.7332C30.8193 43.0159 31.5756 42.802 32.0645 42.2596L33.5771 40.5637C34.0966 40.6477 34.6313 40.6936 35.1737 40.6936C35.7161 40.6936 36.2508 40.6477 36.7703 40.5637L38.2829 42.2596L38.2752 42.2749ZM35.1661 34.5974C33.1417 34.5974 31.4992 32.955 31.4992 30.9306C31.4992 28.9062 33.1417 27.2638 35.1661 27.2638C37.1905 27.2638 38.8329 28.9062 38.8329 30.9306C38.8329 32.955 37.1905 34.5974 35.1661 34.5974Z" fill="#D0D1D3"/>
</svg>
