<svg width="80" height="81" viewBox="0 0 80 81" fill="none" xmlns="http://www.w3.org/2000/svg">
<path fill-rule="evenodd" clip-rule="evenodd" d="M17.6098 5.64685C10.8969 5.64685 5.4549 11.1707 5.4549 17.9845V62.4001C5.4549 69.2139 10.8969 74.7378 17.6098 74.7378H62.3909C69.1038 74.7378 74.5458 69.2139 74.5458 62.4001V17.9845C74.5458 11.1707 69.1038 5.64685 62.3909 5.64685H17.6098ZM57.6416 17.9997H22.2271C19.8661 17.9997 17.9344 19.9314 17.9344 22.2925V57.7069C17.9344 60.068 19.8661 61.9997 22.2271 61.9997H57.6416C60.0027 61.9997 61.9344 60.068 61.9344 57.7069V22.2925C61.9344 19.9314 60.0027 17.9997 57.6416 17.9997ZM58.7147 57.7069C58.7147 58.2971 58.2319 58.7799 57.6416 58.7799H22.2271C21.6369 58.7799 21.1541 58.2971 21.1541 57.7069V22.2924C21.1541 21.7021 21.6369 21.2193 22.2271 21.2193H57.6416C58.2319 21.2193 58.7147 21.7021 58.7147 22.2924V57.7069ZM33.6662 56.9997H22.9998L23.0001 22.9997H33.6665L33.6662 56.9997ZM26.6779 50.4188H29.988C30.3926 50.4188 30.7236 50.9122 30.7236 51.5154C30.7236 52.1187 30.3926 52.6121 29.988 52.6121H26.6779C26.2733 52.6121 25.9423 52.1187 25.9423 51.5154C25.9423 50.9126 26.2733 50.4188 26.6779 50.4188ZM34.6665 56.9997H45.3329L45.3332 22.9997H34.6667L34.6665 56.9997ZM41.6547 50.4188H38.3446C37.94 50.4188 37.609 50.9126 37.609 51.5154C37.609 52.1187 37.94 52.6121 38.3446 52.6121H41.6547C42.0593 52.6121 42.3902 52.1187 42.3902 51.5154C42.3902 50.9122 42.0593 50.4188 41.6547 50.4188ZM56.9996 56.9997H46.3332L46.3334 22.9997H56.9998L56.9996 56.9997ZM50.0112 50.4188H53.3214C53.726 50.4188 54.0569 50.9122 54.0569 51.5154C54.0569 52.1187 53.7259 52.6121 53.3214 52.6121H50.0112C49.6066 52.6121 49.2757 52.1187 49.2757 51.5154C49.2757 50.9126 49.6066 50.4188 50.0112 50.4188Z" fill="#D0D1D3"/>
</svg>
