<svg width="80" height="81" viewBox="0 0 80 81" fill="none" xmlns="http://www.w3.org/2000/svg">
<path fill-rule="evenodd" clip-rule="evenodd" d="M74.545 40.1924C74.5465 21.1122 59.0798 5.64574 39.9996 5.64697C20.9194 5.64553 5.45287 21.1122 5.4541 40.1924C5.45266 59.2726 20.9194 74.7391 39.9996 74.7379C59.0798 74.7393 74.5462 59.2726 74.545 40.1924ZM37.7925 41.551V24.1841C37.7925 23.1092 37.3757 22.1009 36.6175 21.359C35.8677 20.6092 34.8677 20.1924 33.8012 20.1924C31.6011 20.1924 29.8179 21.984 29.8179 24.1841V25.3675H31.0847C31.543 25.3675 31.9179 25.7424 31.9179 26.2007C31.9179 26.659 31.543 27.0339 31.0847 27.0339H29.8179V28.6756H32.4595C32.9178 28.6756 33.2927 29.0422 33.2927 29.5088C33.2927 29.9671 32.9178 30.342 32.4595 30.342H29.8179V31.9753H31.0847C31.543 31.9753 31.9179 32.3503 31.9179 32.8085C31.9179 33.2668 31.543 33.6418 31.0847 33.6418H29.8179V35.2834H32.4595C32.9178 35.2834 33.2927 35.65 33.2927 36.1167C33.2927 36.5749 32.9178 36.9499 32.4595 36.9499H29.8179V38.5832H31.0847C31.543 38.5832 31.9179 38.9581 31.9179 39.4164C31.9179 39.8747 31.543 40.2496 31.0847 40.2496H29.8179V41.5495C26.3427 43.1092 24.051 46.6175 24.051 50.4425C24.051 53.2093 25.2343 55.8509 27.2844 57.7008C29.1012 59.3257 31.3762 60.1924 33.7845 60.1924C34.1427 60.1924 34.5012 60.1757 34.8678 60.1342C37.0595 59.9008 39.051 58.9093 40.5762 57.4343C42.1014 55.9594 43.1512 53.9927 43.4511 51.8178C44.0426 47.4592 41.7344 43.3175 37.7926 41.5508L37.7925 41.551ZM31.4344 49.4092C31.1844 49.8508 30.8345 50.2093 30.4512 50.4175C30.2011 50.5508 29.9511 50.6257 29.7094 50.6257C29.5095 50.6257 29.3093 50.5759 29.1426 50.4758C28.7593 50.2675 28.526 49.8424 28.5009 49.3342C28.4845 48.8927 28.6093 48.4093 28.851 47.9674C29.4178 46.9591 30.4261 46.4924 31.1428 46.8925C31.8676 47.3009 31.9928 48.4092 31.4344 49.4092L31.4344 49.4092ZM54.2088 25.4433C53.8838 25.7684 53.8838 26.3017 54.2088 26.6267C54.3755 26.785 54.5841 26.8681 54.8007 26.8684C55.0173 26.8684 55.2255 26.785 55.3922 26.6267L56.9589 25.0516C57.2839 24.7266 57.2839 24.2017 56.9589 23.8766C56.6339 23.5516 56.1089 23.5516 55.7839 23.8766L54.2088 25.4433ZM44.3092 25.0515C43.9841 24.7264 43.9841 24.2015 44.3092 23.8765C44.6342 23.5514 45.1591 23.5514 45.4842 23.8765L47.0592 25.4432C47.3843 25.7682 47.3843 26.3015 47.0592 26.6266C46.8925 26.7849 46.6759 26.8683 46.4677 26.8683C46.2511 26.8683 46.0426 26.7849 45.8762 26.6266L44.3092 25.0515ZM42.5172 31.0343H44.742C45.2003 31.0343 45.5752 30.6594 45.5752 30.2011C45.5752 29.7428 45.2003 29.3679 44.742 29.3679H42.5172C42.0589 29.3679 41.684 29.7428 41.684 30.2011C41.684 30.6594 42.0589 31.0343 42.5172 31.0343ZM49.8 24.31V22.0852C49.8 21.6269 50.1749 21.252 50.6332 21.252C51.0915 21.252 51.4664 21.6269 51.4664 22.0852V24.3104C51.4664 24.7686 51.0915 25.1436 50.6332 25.1436C50.1749 25.1436 49.8 24.7683 49.8 24.31ZM51.4674 38.3177V36.0925C51.4674 35.6342 51.0921 35.2593 50.6342 35.2593C50.1759 35.2593 49.801 35.6342 49.801 36.0925V38.3177C49.801 38.776 50.1759 39.1509 50.6342 39.1509C51.0925 39.1509 51.4674 38.776 51.4674 38.3177ZM54.0738 30.2012C54.0738 32.1013 52.5322 33.6429 50.6321 33.6429C48.732 33.6429 47.1904 32.1013 47.1904 30.2012C47.1904 28.3012 48.732 26.7596 50.6321 26.7596C52.5322 26.7596 54.0738 28.3012 54.0738 30.2012ZM58.7506 31.0336C59.2089 31.0336 59.5838 30.6587 59.5838 30.2004C59.5838 29.7421 59.2085 29.3669 58.7506 29.3672H56.5258C56.0675 29.3672 55.6926 29.7421 55.6926 30.2004C55.6926 30.6587 56.0675 31.0336 56.5258 31.0336H58.7506ZM56.9589 35.3506C57.284 35.6757 57.284 36.2006 56.9589 36.5256C56.8006 36.6923 56.584 36.7757 56.3754 36.7757C56.1588 36.7757 55.9422 36.6923 55.7839 36.5256L54.2088 34.9589C53.8838 34.6339 53.8838 34.1006 54.2088 33.7755C54.5339 33.4505 55.0671 33.4505 55.3922 33.7755L56.9589 35.3506ZM47.0593 34.9594C47.3843 34.6344 47.3843 34.1011 47.0593 33.776C46.7342 33.451 46.2009 33.451 45.8759 33.776L44.3092 35.3511C43.9841 35.6762 43.9841 36.2011 44.3092 36.5261C44.4675 36.6928 44.6844 36.7762 44.8927 36.7762C45.1092 36.7762 45.3258 36.6928 45.4842 36.5261L47.0593 34.9594Z" fill="#D0D1D3"/>
</svg>
