<svg width="80" height="80" viewBox="0 0 80 80" fill="none" xmlns="http://www.w3.org/2000/svg">
<path fill-rule="evenodd" clip-rule="evenodd" d="M16.5585 5.4541C10.4281 5.4541 5.45459 10.4277 5.45459 16.558V63.4411C5.45459 69.5715 10.4281 74.545 16.5585 74.545H63.4416C69.5719 74.545 74.5455 69.5715 74.5455 63.4411V16.558C74.5455 10.4277 69.5719 5.4541 63.4416 5.4541H16.5585ZM53.3333 40.9999V37.6666H50V29.9999C50 27.4999 49.3611 25.2644 48.0833 23.2932C46.8055 21.3199 45 19.9999 42.6667 19.3332V18.3332C42.6667 17.5555 42.4167 16.9166 41.9167 16.4166C41.4167 15.9166 40.7778 15.6666 40 15.6666C39.2222 15.6666 38.5833 15.9166 38.0833 16.4166C37.5833 16.9166 37.3333 17.5555 37.3333 18.3332V19.3332C35 20.1666 33.1944 21.5277 31.9167 23.4166C30.6389 25.3055 30 27.4999 30 29.9999V37.6666H26.6667V40.9999H53.3333ZM40 64.3332C41.8333 64.3332 43.4033 63.681 44.71 62.3766C46.0144 61.0699 46.6667 59.4999 46.6667 57.6666C46.6667 55.8332 46.0144 54.2644 44.71 52.9599C43.4033 51.6532 41.8333 50.9999 40 50.9999C38.1667 50.9999 36.5978 51.6532 35.2933 52.9599C33.9867 54.2644 33.3333 55.8332 33.3333 57.6666C33.3333 59.4999 33.9867 61.0699 35.2933 62.3766C36.5978 63.681 38.1667 64.3332 40 64.3332ZM37.6267 60.0399C38.2644 60.6799 39.0555 60.9999 40 60.9999C40.9444 60.9999 41.7367 60.6799 42.3767 60.0399C43.0144 59.4021 43.3333 58.611 43.3333 57.6666C43.3333 56.7221 43.0144 55.931 42.3767 55.2932C41.7367 54.6532 40.9444 54.3332 40 54.3332C39.0555 54.3332 38.2644 54.6532 37.6267 55.2932C36.9867 55.931 36.6667 56.7221 36.6667 57.6666C36.6667 58.611 36.9867 59.4021 37.6267 60.0399ZM42.4167 45.0832C41.8055 45.6944 41 45.9999 40 45.9999C39 45.9999 38.1944 45.6944 37.5833 45.0832C36.9722 44.4721 36.6667 43.6666 36.6667 42.6666H43.3333C43.3333 43.6666 43.0278 44.4721 42.4167 45.0832Z" fill="#D0D1D3"/>
</svg>
