<svg width="80" height="81" viewBox="0 0 80 81" fill="none" xmlns="http://www.w3.org/2000/svg">
<path fill-rule="evenodd" clip-rule="evenodd" d="M19.2728 5.64697H60.7273C64.3922 5.64697 67.9072 7.10295 70.4983 9.69414C73.0895 12.2853 74.5455 15.8003 74.5455 19.4652V60.9197C74.5455 64.5845 73.0895 68.0995 70.4983 70.6907C67.9072 73.2819 64.3922 74.7379 60.7273 74.7379H19.2728C15.6079 74.7379 12.0929 73.2819 9.50175 70.6907C6.91057 68.0995 5.45459 64.5845 5.45459 60.9197V19.4652C5.45459 15.8003 6.91057 12.2853 9.50175 9.69414C12.0929 7.10295 15.6079 5.64697 19.2728 5.64697ZM56.0738 39.845C56.7244 40.2206 57.4626 40.4187 58.2143 40.4187C59.3783 40.4187 60.4923 39.9452 61.2996 39.1068C62.1073 38.2683 62.5389 37.1375 62.4955 35.9743C62.4517 34.8106 61.9368 33.7153 61.0683 32.9396C60.2003 32.1643 59.054 31.7752 57.8932 31.8624C56.7324 31.9496 55.6568 32.5052 54.9146 33.402C54.172 34.2984 53.826 35.4585 53.9566 36.6154L45.3632 39.4488C44.4838 37.6965 42.8032 36.4844 40.8631 36.2022L40.845 27.1082C42.2426 26.8281 43.4089 25.8704 43.9566 24.5542C44.5039 23.2379 44.3607 21.7357 43.5743 20.5465C42.7875 19.3576 41.4609 18.6379 40.0358 18.6269C38.6102 18.6159 37.2726 19.3151 36.4677 20.4916C35.6628 21.6682 35.4963 23.168 36.023 24.4925C36.5502 25.8172 37.7015 26.7925 39.0947 27.0948L39.1105 36.2043C37.1799 36.4927 35.5101 37.702 34.6342 39.4465L26.0408 36.613C26.0594 36.4532 26.0688 36.2923 26.0696 36.1313C26.0711 34.7352 25.3922 33.4261 24.2498 32.6235C23.1076 31.8209 21.6457 31.626 20.333 32.1011C19.0202 32.5765 18.022 33.662 17.6578 35.0099C17.294 36.3578 17.6105 37.7984 18.5057 38.8696C19.4006 39.9409 20.7619 40.5082 22.1531 40.3899C23.544 40.2712 24.79 39.4816 25.4908 38.2746L34.0889 41.1085C33.7401 43.0442 34.3722 45.0273 35.7773 46.404L30.5054 53.5789C29.207 52.9846 27.6978 53.0754 26.4797 53.8211C25.2616 54.5669 24.495 55.8701 24.4342 57.2969C24.373 58.7237 25.0264 60.0873 26.1762 60.9341C27.3265 61.7808 28.8223 61.9998 30.167 61.5184C31.5113 61.0366 32.5281 59.9176 32.8789 58.5331C33.2293 57.1484 32.8682 55.6802 31.9153 54.6169L37.1876 47.4436C38.9461 48.3775 41.0536 48.3775 42.8118 47.4436L48.0848 54.6169C47.128 55.6815 46.7638 57.1529 47.1138 58.5409C47.4634 59.929 48.4814 61.052 49.8284 61.5361C51.1758 62.0203 52.6756 61.802 53.8289 60.9541C54.9823 60.1062 55.6377 58.7398 55.5773 57.3095C55.5173 55.8792 54.7487 54.5727 53.5283 53.8246C52.3075 53.0769 50.7948 52.9862 49.4931 53.582L44.2213 46.4071C45.6259 45.03 46.2584 43.0473 45.9096 41.1111L54.5077 38.2773C54.883 38.9284 55.4231 39.469 56.0738 39.845Z" fill="#D0D1D3"/>
</svg>
