<svg width="80" height="81" viewBox="0 0 80 81" fill="none" xmlns="http://www.w3.org/2000/svg">
<path fill-rule="evenodd" clip-rule="evenodd" d="M74.5455 40.5721C74.5469 21.4919 59.0802 6.02538 40 6.02661C20.9199 6.02517 5.45336 21.4919 5.45459 40.5721C5.45314 59.6523 20.9199 75.1188 40 75.1175C59.0802 75.119 74.5467 59.6523 74.5455 40.5721ZM37.793 41.9307V24.5637C37.793 23.4888 37.3762 22.4805 36.618 21.7386C35.8682 20.9888 34.8682 20.572 33.8017 20.572C31.6016 20.572 29.8184 22.3636 29.8184 24.5637V25.7471H31.0852C31.5435 25.7471 31.9184 26.122 31.9184 26.5803C31.9184 27.0386 31.5435 27.4135 31.0852 27.4135H29.8184V29.0552H32.46C32.9183 29.0552 33.2932 29.4218 33.2932 29.8885C33.2932 30.3467 32.9183 30.7217 32.46 30.7217H29.8184V32.355H31.0852C31.5435 32.355 31.9184 32.7299 31.9184 33.1882C31.9184 33.6465 31.5435 34.0214 31.0852 34.0214H29.8184V35.6631H32.46C32.9183 35.6631 33.2932 36.0296 33.2932 36.4963C33.2932 36.9546 32.9183 37.3295 32.46 37.3295H29.8184V38.9628H31.0852C31.5435 38.9628 31.9184 39.3377 31.9184 39.796C31.9184 40.2543 31.5435 40.6292 31.0852 40.6292H29.8184V41.9291C26.3432 43.4889 24.0514 46.9972 24.0514 50.8222C24.0514 53.5889 25.2348 56.2305 27.2849 58.0804C29.1017 59.7054 31.3767 60.572 33.785 60.572C34.1432 60.572 34.5017 60.5553 34.8683 60.5138C37.06 60.2805 39.0515 59.2889 40.5767 57.814C42.1019 56.3391 43.1517 54.3723 43.4516 52.1974C44.0431 47.8388 41.7349 43.6971 37.7931 41.9305L37.793 41.9307ZM31.4349 49.7889C31.1848 50.2304 30.835 50.5889 30.4517 50.7972C30.2016 50.9304 29.9516 51.0054 29.7099 51.0054C29.51 51.0054 29.3098 50.9555 29.1431 50.8554C28.7598 50.6472 28.5265 50.222 28.5014 49.7139C28.485 49.2723 28.6098 48.789 28.8515 48.347C29.4183 47.3387 30.4266 46.872 31.1433 47.2721C31.8681 47.6805 31.9933 48.7889 31.4349 49.7889L31.4349 49.7889ZM54.2097 25.8228C53.8846 26.1479 53.8846 26.6812 54.2097 27.0062C54.3764 27.1645 54.585 27.2476 54.8015 27.2479C55.0181 27.2479 55.2263 27.1645 55.3931 27.0062L56.9598 25.4311C57.2848 25.1061 57.2848 24.5812 56.9598 24.2561C56.6347 23.9311 56.1098 23.9311 55.7848 24.2561L54.2097 25.8228ZM44.3097 25.4311C43.9846 25.1061 43.9846 24.5812 44.3097 24.2561C44.6347 23.9311 45.1596 23.9311 45.4846 24.2561L47.0597 25.8228C47.3848 26.1479 47.3848 26.6811 47.0597 27.0062C46.893 27.1645 46.6764 27.2479 46.4682 27.2479C46.2516 27.2479 46.0431 27.1645 45.8767 27.0062L44.3097 25.4311ZM42.5177 31.414H44.7425C45.2008 31.414 45.5757 31.039 45.5757 30.5808C45.5757 30.1225 45.2008 29.7475 44.7425 29.7475H42.5177C42.0594 29.7475 41.6844 30.1225 41.6844 30.5808C41.6844 31.039 42.0594 31.414 42.5177 31.414ZM49.8001 24.6894V22.4646C49.8001 22.0063 50.1751 21.6314 50.6334 21.6314C51.0916 21.6314 51.4666 22.0063 51.4666 22.4646V24.6898C51.4666 25.1481 51.0916 25.523 50.6334 25.523C50.1751 25.523 49.8001 25.1477 49.8001 24.6894ZM51.4675 38.6974V36.4722C51.4675 36.0139 51.0922 35.639 50.6343 35.639C50.176 35.639 49.8011 36.0139 49.8011 36.4722V38.6974C49.8011 39.1557 50.176 39.5306 50.6343 39.5306C51.0926 39.5306 51.4675 39.1557 51.4675 38.6974ZM54.0742 30.5809C54.0742 32.481 52.5326 34.0226 50.6326 34.0226C48.7325 34.0226 47.1909 32.481 47.1909 30.5809C47.1909 28.6808 48.7325 27.1392 50.6326 27.1392C52.5326 27.1392 54.0742 28.6808 54.0742 30.5809ZM58.7515 31.4135C59.2098 31.4135 59.5847 31.0386 59.5847 30.5803C59.5847 30.122 59.2094 29.7467 58.7515 29.7471H56.5267C56.0684 29.7471 55.6935 30.122 55.6935 30.5803C55.6935 31.0386 56.0684 31.4135 56.5267 31.4135H58.7515ZM56.9598 35.7303C57.2848 36.0554 57.2848 36.5803 56.9598 36.9053C56.8014 37.072 56.5848 37.1554 56.3763 37.1554C56.1597 37.1554 55.9431 37.072 55.7848 36.9053L54.2097 35.3386C53.8846 35.0135 53.8846 34.4803 54.2097 34.1552C54.5347 33.8302 55.068 33.8302 55.3931 34.1552L56.9598 35.7303ZM47.0598 35.3391C47.3848 35.014 47.3848 34.4807 47.0598 34.1557C46.7347 33.8306 46.2014 33.8306 45.8763 34.1557L44.3097 35.7308C43.9846 36.0558 43.9846 36.5807 44.3097 36.9058C44.468 37.0725 44.6849 37.1558 44.8932 37.1558C45.1097 37.1558 45.3263 37.0725 45.4847 36.9058L47.0598 35.3391Z" fill="#D0D1D3"/>
</svg>
