<svg width="80" height="81" viewBox="0 0 80 81" fill="none" xmlns="http://www.w3.org/2000/svg">
<path fill-rule="evenodd" clip-rule="evenodd" d="M39.9996 5.64697C59.0798 5.64574 74.5465 21.1122 74.545 40.1924C74.5462 59.2726 59.0798 74.7393 39.9996 74.7379C20.9194 74.7391 5.45266 59.2726 5.4541 40.1924C5.45287 21.1122 20.9194 5.64553 39.9996 5.64697ZM23.4359 53.0785C23.1422 53.37 22.7582 53.5164 22.3748 53.5164L22.3747 53.5167C21.9885 53.5167 21.6037 53.3698 21.3104 53.0756C17.7511 49.5088 15.7908 44.9332 15.7881 40.1922C15.7809 35.4565 17.735 30.8811 21.2872 27.311C21.8715 26.7222 22.8238 26.7195 23.4118 27.3052C24.0006 27.891 24.0033 28.8419 23.4176 29.4298C20.43 32.4326 18.7886 36.2527 18.7939 40.1892C18.7948 44.1321 20.4461 47.953 23.4386 50.9539C24.0239 51.5406 24.0225 52.4914 23.4359 53.0785ZM57.8751 53.5164C57.4916 53.5164 57.1077 53.37 56.8139 53.0785C56.2273 52.4914 56.226 51.5406 56.8112 50.9539C59.8037 47.953 61.455 44.1321 61.4559 40.1892C61.4613 36.2527 59.8198 32.4326 56.8323 29.4298C56.2465 28.8419 56.2492 27.891 56.8381 27.3052C57.426 26.7195 58.3783 26.7222 58.9626 27.311C62.5149 30.8811 64.4689 35.4565 64.4617 40.1922C64.459 44.9332 62.4987 49.5088 58.9394 53.0756C58.6461 53.3698 58.2613 53.5167 57.8751 53.5167L57.8751 53.5164ZM52.6033 32.0287C53.1912 31.443 54.1435 31.4457 54.7279 32.0358C56.9747 34.2961 58.21 37.1925 58.2068 40.1921C58.2055 43.1903 56.9663 46.0849 54.7185 48.3403C54.4252 48.6349 54.039 48.7827 53.6551 48.7827C53.2703 48.7827 52.8877 48.6363 52.5939 48.3439C52.006 47.7586 52.0047 46.8073 52.5904 46.2193C54.2735 44.531 55.2011 42.3885 55.2024 40.1894C55.2051 37.9903 54.2796 35.8465 52.5965 34.1537C52.0117 33.5658 52.0149 32.6135 52.6032 32.0287L52.6033 32.0287ZM27.6465 32.0287C27.0586 31.443 26.1063 31.4457 25.5219 32.0358C23.2751 34.2961 22.0398 37.1925 22.043 40.1921C22.0443 43.1903 23.2835 46.0849 25.5313 48.3403C25.8246 48.6349 26.2108 48.7827 26.5947 48.7827C26.9795 48.7827 27.3621 48.6363 27.6559 48.3439C28.2438 47.7586 28.2452 46.8073 27.6595 46.2193C25.9764 44.531 25.0487 42.3885 25.0475 40.1894C25.0448 37.9903 25.9702 35.8465 27.6533 34.1537C28.2381 33.5658 28.235 32.6135 27.6466 32.0287L27.6465 32.0287ZM38.3991 29.2833C39.7663 30.9227 38.7353 33.4963 35.0313 37.8604H35.0312C27.2013 47.0857 40.3734 51.1015 40.374 51.1015C39.2404 47.7035 40.2112 46.4853 41.7117 44.6023C42.0094 44.2288 42.3279 43.8292 42.6549 43.3812C47.8714 36.2357 38.3991 29.2833 38.3991 29.2833ZM44.5719 48.4905C41.8093 50.3834 41.4212 50.7894 41.3838 50.8777C41.362 50.7997 41.333 50.7123 41.3007 50.6152L41.3006 50.615C40.9865 49.6705 40.367 47.8076 43.2003 44.695C44.9288 42.7962 45.9213 38.5959 45.3825 37.595L45.383 37.5956C45.4367 37.6672 50.5108 44.4313 44.5718 48.4907L44.5719 48.4905ZM41.3838 50.8777C41.3865 50.8855 41.3887 50.8938 41.3905 50.9012C41.3905 50.9012 41.3731 50.9019 41.3838 50.8777Z" fill="#D0D1D3"/>
</svg>
