<svg width="80" height="81" viewBox="0 0 80 81" fill="none" xmlns="http://www.w3.org/2000/svg">
<path fill-rule="evenodd" clip-rule="evenodd" d="M39.9996 5.64697C59.0798 5.64574 74.5465 21.1122 74.545 40.1924C74.5462 59.2726 59.0798 74.7393 39.9996 74.7379C20.9194 74.7391 5.45266 59.2726 5.4541 40.1924C5.45287 21.1122 20.9194 5.64553 39.9996 5.64697ZM22.3748 53.5164C22.7582 53.5164 23.1422 53.37 23.4359 53.0785C24.0225 52.4914 24.0239 51.5406 23.4386 50.9539C20.4461 47.953 18.7948 44.1321 18.7939 40.1892C18.7886 36.2527 20.43 32.4326 23.4176 29.4298C24.0033 28.8419 24.0006 27.891 23.4118 27.3052C22.8238 26.7195 21.8715 26.7222 21.2872 27.311C17.735 30.8811 15.7809 35.4565 15.7881 40.1922C15.7908 44.9332 17.7511 49.5088 21.3104 53.0756C21.6037 53.3698 21.9885 53.5167 22.3747 53.5167L22.3748 53.5164ZM56.8139 53.0785C57.1077 53.37 57.4916 53.5164 57.8751 53.5164L57.8751 53.5167C58.2613 53.5167 58.6461 53.3698 58.9394 53.0756C62.4987 49.5088 64.459 44.9332 64.4617 40.1922C64.4689 35.4565 62.5149 30.8811 58.9626 27.311C58.3783 26.7222 57.426 26.7195 56.8381 27.3052C56.2492 27.891 56.2465 28.8419 56.8323 29.4298C59.8198 32.4326 61.4613 36.2527 61.4559 40.1892C61.455 44.1321 59.8037 47.953 56.8112 50.9539C56.226 51.5406 56.2273 52.4914 56.8139 53.0785ZM54.7279 32.0358C54.1435 31.4457 53.1912 31.443 52.6033 32.0287L52.6032 32.0287C52.0149 32.6135 52.0117 33.5658 52.5965 34.1537C54.2796 35.8465 55.2051 37.9903 55.2024 40.1894C55.2011 42.3885 54.2735 44.531 52.5904 46.2193C52.0047 46.8073 52.006 47.7586 52.5939 48.3439C52.8877 48.6363 53.2703 48.7827 53.6551 48.7827C54.039 48.7827 54.4252 48.6349 54.7185 48.3403C56.9663 46.0849 58.2055 43.1903 58.2068 40.1921C58.21 37.1925 56.9747 34.2961 54.7279 32.0358ZM25.5219 32.0358C26.1063 31.4457 27.0586 31.443 27.6465 32.0287L27.6466 32.0287C28.235 32.6135 28.2381 33.5658 27.6533 34.1537C25.9702 35.8465 25.0448 37.9903 25.0475 40.1894C25.0487 42.3885 25.9764 44.531 27.6595 46.2193C28.2452 46.8073 28.2438 47.7586 27.6559 48.3439C27.3621 48.6363 26.9795 48.7827 26.5947 48.7827C26.2108 48.7827 25.8246 48.6349 25.5313 48.3403C23.2835 46.0849 22.0443 43.1903 22.043 40.1921C22.0398 37.1925 23.2751 34.2961 25.5219 32.0358ZM34.427 39.7483L39.0689 31.6414C39.2613 31.3046 39.6142 31.1013 39.9992 31.1013C40.3841 31.1013 40.737 31.3046 40.9295 31.6414L45.5713 39.7483C46.6624 41.6523 46.6997 43.9516 45.6676 45.9088C44.6463 47.8339 42.7423 49.0906 40.5657 49.2619C40.3789 49.2779 40.1916 49.2831 39.9991 49.2831C39.8066 49.2831 39.6194 49.2779 39.4321 49.2619C37.2556 49.0906 35.352 47.8339 34.3303 45.9088C33.2985 43.9516 33.336 41.6523 34.427 39.7483Z" fill="#D0D1D3"/>
</svg>
