<svg width="80" height="81" viewBox="0 0 80 81" fill="none" xmlns="http://www.w3.org/2000/svg">
<path fill-rule="evenodd" clip-rule="evenodd" d="M5.45459 24.2484C5.45459 13.9749 13.7825 5.64697 24.056 5.64697H55.9441C66.2175 5.64697 74.5455 13.9749 74.5455 24.2484V56.1365C74.5455 66.4099 66.2175 74.7379 55.9441 74.7379H24.056C13.7825 74.7379 5.45459 66.4099 5.45459 56.1365V24.2484ZM41.5535 26.7675C41.1536 27.168 40.6107 27.3925 40.0451 27.3925C39.4795 27.3925 38.9366 27.168 38.5366 26.7675C38.1366 26.3675 37.9116 25.8251 37.9116 25.2591V23.126C37.9116 22.3635 38.3183 21.6595 38.9785 21.2783C39.6383 20.8975 40.4518 20.8975 41.1116 21.2783C41.7718 21.6595 42.1785 22.3635 42.1785 23.126V25.2591C42.1785 25.8251 41.9535 26.3675 41.5535 26.7675ZM40.0453 48.726C44.7582 48.726 48.5788 44.9054 48.5788 40.1925C48.5788 35.4796 44.7582 31.659 40.0453 31.659C35.3324 31.659 31.5118 35.4796 31.5118 40.1925C31.5118 44.9054 35.3324 48.726 40.0453 48.726ZM40.0451 52.9925C39.4795 52.9925 38.9366 53.2171 38.5366 53.6175C38.1366 54.0175 37.9116 54.56 37.9116 55.126V57.259C37.9116 58.0215 38.3183 58.7256 38.9786 59.1068C39.6384 59.4876 40.4518 59.4876 41.1116 59.1068C41.7719 58.7256 42.1786 58.0215 42.1786 57.259V55.126C42.1786 54.5599 41.9536 54.0175 41.5536 53.6176C41.1536 53.2171 40.6107 52.9925 40.0451 52.9925ZM54.9783 38.0588H57.1114C57.8739 38.0588 58.5779 38.4655 58.9591 39.1258C59.34 39.7855 59.34 40.599 58.9591 41.2588C58.5779 41.9191 57.8739 42.3258 57.1114 42.3258H54.9783C54.2158 42.3258 53.5118 41.9191 53.1306 41.2588C52.7498 40.599 52.7498 39.7856 53.1306 39.1258C53.5118 38.4655 54.2158 38.0588 54.9783 38.0588ZM27.2451 40.1926C27.2451 39.6269 27.0205 39.0841 26.6201 38.6841C26.2201 38.2841 25.6777 38.0591 25.1116 38.0591H22.9786C22.2161 38.0591 21.5121 38.4658 21.1308 39.126C20.75 39.7858 20.75 40.5993 21.1308 41.2591C21.5121 41.9193 22.2161 42.326 22.9786 42.326H25.1116C25.6777 42.326 26.2201 42.101 26.6201 41.701C27.0205 41.301 27.2451 40.7582 27.2451 40.1926ZM52.1135 31.1412C51.7136 31.5412 51.1711 31.7662 50.6051 31.7662C50.0395 31.7663 49.4971 31.5412 49.0971 31.1413C48.6971 30.7413 48.4725 30.1989 48.4725 29.6333C48.4725 29.0677 48.6971 28.5248 49.0971 28.1248L50.6051 26.6168C51.147 26.0931 51.9247 25.8945 52.6515 26.0936C53.3778 26.2927 53.9456 26.8605 54.1448 27.5868C54.3439 28.3136 54.1452 29.0913 53.6215 29.6332L52.1135 31.1412ZM27.9765 49.244L26.4685 50.752C26.0569 51.1497 25.8221 51.6957 25.8172 52.2681C25.8122 52.8404 26.0373 53.3904 26.4417 53.7953C26.8466 54.1998 27.3966 54.4247 27.9689 54.4198C28.5412 54.4149 29.0872 54.1801 29.485 53.7685L30.993 52.2605C31.4046 51.8627 31.6395 51.3167 31.6444 50.7444C31.6493 50.1721 31.4243 49.6221 31.0194 49.2176C30.6149 48.8127 30.0649 48.5877 29.4926 48.5926C28.9203 48.5975 28.3743 48.8324 27.9765 49.244ZM50.0677 48.7212C50.794 48.5216 51.5717 48.7208 52.1137 49.244L53.6217 50.752C54.1453 51.2939 54.344 52.0716 54.1449 52.7984C53.9458 53.5247 53.378 54.0925 52.6516 54.2916C51.9249 54.4907 51.1472 54.2921 50.6052 53.7684L49.0972 52.2604C48.574 51.7185 48.3749 50.9408 48.5745 50.2145C48.7735 49.4877 49.3409 48.9203 50.0677 48.7212ZM27.9765 31.1411C28.3743 31.5527 28.9203 31.7875 29.4926 31.7924C30.0649 31.7974 30.6149 31.5723 31.0194 31.1674C31.4243 30.763 31.6493 30.213 31.6444 29.6407C31.6395 29.0684 31.4046 28.5224 30.993 28.1246L29.485 26.6166C28.9431 26.0929 28.1654 25.8942 27.4386 26.0934C26.7123 26.2925 26.1444 26.8603 25.9454 27.5866C25.7463 28.3134 25.9449 29.0911 26.4686 29.633L27.9765 31.1411Z" fill="#D0D1D3"/>
</svg>
