<svg width="80" height="81" viewBox="0 0 80 81" fill="none" xmlns="http://www.w3.org/2000/svg">
<path fill-rule="evenodd" clip-rule="evenodd" d="M39.9996 5.64697C59.0798 5.64574 74.5465 21.1122 74.545 40.1924C74.5462 59.2726 59.0798 74.7393 39.9996 74.7379C20.9194 74.7391 5.45266 59.2726 5.4541 40.1924C5.45287 21.1122 20.9194 5.64553 39.9996 5.64697ZM37.7666 19.6703L26.6262 39.1269C24.0076 43.6964 23.9178 49.2147 26.3941 53.912C28.8461 58.5324 33.4147 61.5484 38.6385 61.9594C39.0879 61.9979 39.5373 62.0104 39.9992 62.0104C40.4612 62.0104 40.9106 61.9979 41.3591 61.9594C46.5829 61.5484 51.1524 58.5324 53.6035 53.912C56.0806 49.2147 55.9912 43.6964 53.3725 39.1269L42.2321 19.6703C41.7702 18.8619 40.9233 18.374 39.9994 18.374C39.0755 18.374 38.2286 18.8619 37.7666 19.6703Z" fill="#D0D1D3"/>
<path d="M45.1509 54.3265C46.3223 54.3265 47.2719 53.3766 47.2719 52.2051C47.2719 51.0337 46.3224 50.0842 45.1509 50.0842C43.9791 50.0842 43.0295 51.0337 43.0295 52.2051C43.0295 53.3766 43.979 54.3265 45.1509 54.3265Z" fill="#D0D1D3"/>
<path d="M44.4031 38.5306L33.1165 51.6602C32.5323 52.3396 32.6139 53.3601 33.2987 53.9396C33.9831 54.5192 35.0112 54.4381 35.5955 53.7587L46.8821 40.629C47.4664 39.9497 47.3848 38.9292 46.6999 38.3496C46.0155 37.77 44.9874 37.8512 44.4031 38.5306Z" fill="#D0D1D3"/>
<path d="M34.8477 42.2055C36.0196 42.2055 36.9691 41.2556 36.9691 40.0841C36.9691 38.9126 36.0197 37.9632 34.8477 37.9632C33.6763 37.9632 32.7268 38.9126 32.7268 40.0841C32.7268 41.2556 33.6763 42.2055 34.8477 42.2055Z" fill="#D0D1D3"/>
</svg>
