<svg width="80" height="81" viewBox="0 0 80 81" fill="none" xmlns="http://www.w3.org/2000/svg">
<path fill-rule="evenodd" clip-rule="evenodd" d="M5.45459 24.2484C5.45459 13.9749 13.7825 5.64697 24.056 5.64697H55.9441C66.2175 5.64697 74.5455 13.9749 74.5455 24.2484V56.1365C74.5455 66.4099 66.2175 74.7379 55.9441 74.7379H24.056C13.7825 74.7379 5.45459 66.4099 5.45459 56.1365V24.2484ZM43.7467 19.1991L56.0821 26.6031C58.885 28.2853 59.7849 31.9976 58.1024 34.8002L44.3812 57.6607C42.9201 60.0946 39.987 61.099 37.4043 60.2201C37.3615 60.3091 37.3156 60.3972 37.2637 60.4834L37.2046 60.5822C36.3097 62.0731 34.4309 62.4159 32.9403 61.5211L23.9596 56.1308C22.4686 55.2359 21.9569 53.4588 22.8517 51.9675L22.9112 51.8687C22.9568 51.7929 23.0065 51.7215 23.0571 51.6511C20.9518 49.7997 20.4011 46.6542 21.8952 44.1649L35.6163 21.3044C37.2989 18.5014 40.9438 17.5166 43.7467 19.1991ZM41.5543 50.4219C43.045 51.3165 44.9234 50.9739 45.8186 49.483L45.8774 49.3839C46.7723 47.893 46.2993 45.8943 44.8086 44.9995L32.6383 37.6948C31.1474 36.7999 29.2302 37.3639 28.3354 38.8548L28.2762 38.9536C27.3814 40.4445 27.8931 42.222 29.3841 43.1169L41.5543 50.4219ZM45.9573 43.086C47.448 43.9809 49.3267 43.6381 50.2216 42.1472L50.2807 42.0484C51.176 40.5575 50.7026 38.5585 49.2119 37.664L37.0417 30.3593C35.5507 29.4644 33.6335 30.0284 32.7387 31.5193L32.6792 31.6181C31.7844 33.109 32.2958 34.8865 33.7871 35.7814L45.9573 43.086ZM50.5198 35.8459C52.0107 36.7407 53.8892 36.398 54.784 34.907L54.8431 34.8082C55.7381 33.3173 55.265 31.3187 53.7744 30.4238L41.6041 23.1192C40.1131 22.2242 38.196 22.7882 37.3011 24.2792L37.2417 24.378C36.3468 25.8688 36.8582 27.6464 38.3495 28.5412L50.5198 35.8459Z" fill="#D0D1D3"/>
</svg>
