<svg width="80" height="81" viewBox="0 0 80 81" fill="none" xmlns="http://www.w3.org/2000/svg">
<path fill-rule="evenodd" clip-rule="evenodd" d="M17.6098 5.64691C10.8969 5.64691 5.4549 11.1708 5.4549 17.9846V62.4002C5.4549 69.2139 10.8969 74.7378 17.6098 74.7378H62.3909C69.1038 74.7378 74.5458 69.2139 74.5458 62.4002V17.9846C74.5458 11.1708 69.1038 5.64691 62.3909 5.64691H17.6098ZM57.6416 17.9998H22.2271C19.8661 17.9998 17.9344 19.9315 17.9344 22.2925V57.707C17.9344 60.0681 19.8661 61.9998 22.2271 61.9998H57.6416C60.0027 61.9998 61.9344 60.0681 61.9344 57.707V22.2925C61.9344 19.9315 60.0027 17.9998 57.6416 17.9998ZM58.7147 57.7069C58.7147 58.2972 58.2319 58.78 57.6416 58.78H22.2271C21.6369 58.78 21.1541 58.2971 21.1541 57.7069V22.2924C21.1541 21.7022 21.6369 21.2194 22.2271 21.2194H57.6416C58.2319 21.2194 58.7147 21.7022 58.7147 22.2924V57.7069ZM22.9998 56.9998H33.6662L33.6665 22.9998H23.0001L22.9998 56.9998ZM45.3329 56.9998H34.6665L34.6667 22.9998H45.3332L45.3329 56.9998ZM56.9996 56.9998H46.3332L46.3334 22.9998H56.9998L56.9996 56.9998ZM50.0112 50.4188H53.3214C53.726 50.4188 54.0569 50.9123 54.0569 51.5155C54.0569 52.1187 53.7259 52.6122 53.3214 52.6122H50.0112C49.6066 52.6122 49.2757 52.1187 49.2757 51.5155C49.2757 50.9127 49.6066 50.4188 50.0112 50.4188Z" fill="#D0D1D3"/>
</svg>
