<svg width="80" height="81" viewBox="0 0 80 81" fill="none" xmlns="http://www.w3.org/2000/svg">
<path fill-rule="evenodd" clip-rule="evenodd" d="M18.7419 53.1999L20.9902 50.9516C22.9372 54.3839 25.81 57.2568 29.2425 59.2039L26.9942 61.4522C23.6448 59.4001 20.7925 56.5465 18.7419 53.1999ZM26.9927 18.9345L29.241 21.1828C25.8072 23.1298 22.9372 26.0026 20.9887 29.4351L18.7404 27.1868C20.7925 23.8374 23.6461 20.9852 26.9927 18.9345ZM50.7575 59.2034C54.1913 57.2564 57.0613 54.3836 59.0098 50.9511L61.2581 53.1994C59.2089 56.5475 56.3539 59.3996 53.0073 61.4517L50.7575 59.2034ZM23.7319 48.2085L26.0586 45.8817C27.5801 49.6153 30.5773 52.611 34.3094 54.134L31.984 56.4594C28.4109 54.7003 25.4923 51.7802 23.7317 48.2086L23.7319 48.2085ZM31.9842 23.9242L34.3109 26.251C30.5773 27.7725 27.5816 30.7697 26.0586 34.5018L23.7332 32.1764C25.4923 28.6033 28.4124 25.6847 31.984 23.9241L31.9842 23.9242ZM45.6901 54.1355C49.4237 52.6102 52.4169 49.6183 53.9409 45.8832L56.2676 48.2099C54.507 51.7792 51.5861 54.7016 48.0153 56.4593L45.6901 54.1355ZM48.0598 32.1325C52.4884 36.5611 52.4816 43.8214 48.0545 48.2479C43.6245 52.6779 36.3751 52.6779 31.9439 48.2479C27.5163 43.8203 27.5097 36.5618 31.9386 32.1325C36.3658 27.7063 43.6344 27.7063 48.0603 32.1325H48.0598ZM74.545 40.1924C74.5465 21.1122 59.0798 5.64574 39.9996 5.64697C20.9194 5.64553 5.45287 21.1122 5.4541 40.1924C5.45266 59.2726 20.9194 74.7391 39.9996 74.7379C59.0798 74.7393 74.5462 59.2726 74.545 40.1924V40.1924ZM45.6897 26.2509L48.0164 23.9241C51.5857 25.6847 54.5082 28.6056 56.2658 32.1764L53.9404 34.5018C52.4164 30.7682 49.4245 27.7749 45.6896 26.251L45.6897 26.2509ZM36.7618 36.9543C38.5512 35.1663 41.4491 35.1663 43.2386 36.9543C45.0265 38.7437 45.0265 41.6416 43.2386 43.4311C41.4491 45.219 38.5512 45.219 36.7618 43.4311C34.9738 41.6416 34.9738 38.7423 36.7618 36.9543V36.9543ZM45.882 34.3093C42.6502 31.0784 37.3478 31.0784 34.116 34.3093C30.8894 37.5374 30.8826 42.8503 34.1116 46.0797C37.3353 49.3049 42.6608 49.3049 45.885 46.0797C49.1155 42.8492 49.1097 37.5374 45.8821 34.3093H45.882ZM50.7582 21.1821L53.0065 18.9338C56.3546 20.9829 59.2067 23.838 61.2588 27.1846L59.0105 29.4329C57.0635 26.0005 54.1907 23.1291 50.7582 21.1821V21.1821Z" fill="#D0D1D3"/>
</svg>
