<svg width="80" height="81" viewBox="0 0 80 81" fill="none" xmlns="http://www.w3.org/2000/svg">
<path fill-rule="evenodd" clip-rule="evenodd" d="M17.6097 5.64685C10.8969 5.64685 5.45486 11.1707 5.45486 17.9845V62.4001C5.45486 69.2139 10.8969 74.7378 17.6097 74.7378H62.3909C69.1037 74.7378 74.5458 69.2139 74.5458 62.4001V17.9845C74.5458 11.1707 69.1037 5.64685 62.3909 5.64685H17.6097ZM57.6416 17.9997H22.2271C19.8661 17.9997 17.9344 19.9314 17.9344 22.2925V57.7069C17.9344 60.068 19.8661 61.9997 22.2271 61.9997H57.6416C60.0027 61.9997 61.9344 60.068 61.9344 57.7069V22.2925C61.9344 19.9314 60.0027 17.9997 57.6416 17.9997ZM58.7147 57.7069C58.7147 58.2971 58.2318 58.7799 57.6416 58.7799H22.2271C21.6369 58.7799 21.154 58.2971 21.154 57.7069V22.2924C21.154 21.7021 21.6369 21.2193 22.2271 21.2193H57.6416C58.2319 21.2193 58.7147 21.7021 58.7147 22.2924V57.7069ZM22.9998 56.9997H33.6662L33.6665 22.9997H23L22.9998 56.9997ZM34.6665 56.9997H45.3329L45.3331 22.9997H34.6667L34.6665 56.9997ZM41.6547 50.4188H38.3445C37.9399 50.4188 37.609 50.9126 37.609 51.5154C37.609 52.1187 37.9399 52.6121 38.3445 52.6121H41.6547C42.0592 52.6121 42.3902 52.1187 42.3902 51.5154C42.3902 50.9122 42.0593 50.4188 41.6547 50.4188ZM46.3331 56.9997H56.9995L56.9998 22.9997H46.3334L46.3331 56.9997Z" fill="#D0D1D3"/>
</svg>
