<svg width="80" height="81" viewBox="0 0 80 81" fill="none" xmlns="http://www.w3.org/2000/svg">
<path fill-rule="evenodd" clip-rule="evenodd" d="M39.9996 5.64697C59.0798 5.64574 74.5465 21.1122 74.545 40.1924C74.5462 59.2726 59.0798 74.7393 39.9996 74.7379C20.9194 74.7391 5.45266 59.2726 5.4541 40.1924C5.45287 21.1122 20.9194 5.64553 39.9996 5.64697ZM18.1062 42.0105C19.1111 42.0105 19.9244 41.1972 19.9244 40.1923C21.0174 13.6697 58.8246 13.6573 59.9244 40.1923C59.9699 42.5844 63.5121 42.5836 63.5608 40.1923C63.5608 27.1598 52.9569 16.556 39.9244 16.556C26.8919 16.556 16.288 27.1598 16.288 40.1923C16.288 41.1972 17.1014 42.0105 18.1062 42.0105ZM45.3789 40.1923C45.3789 43.2005 42.9326 45.6469 39.9244 45.6469C33.8164 45.5901 32.4171 37.107 38.1062 35.073V23.8287C38.1062 22.8238 38.9195 22.0105 39.9244 22.0105C40.9293 22.0105 41.7426 22.8238 41.7426 23.8287V35.073C43.8546 35.8262 45.3789 37.8254 45.3789 40.1923ZM30.8335 58.3741C29.8286 58.3741 29.0153 57.5608 29.0153 56.556C29.0153 55.5511 29.8286 54.7378 30.8335 54.7378H49.0153C51.4001 54.7759 51.4097 58.3345 49.0153 58.3741H30.8335Z" fill="#D0D1D3"/>
</svg>
