<svg width="80" height="81" viewBox="0 0 80 81" fill="none" xmlns="http://www.w3.org/2000/svg">
<path fill-rule="evenodd" clip-rule="evenodd" d="M40 6.02661C59.0802 6.02538 74.5469 21.4919 74.5455 40.5721C74.5467 59.6523 59.0802 75.119 40 75.1175C20.9199 75.1188 5.45314 59.6523 5.45459 40.5721C5.45336 21.4919 20.9199 6.02517 40 6.02661ZM37.7676 20.0501L26.6272 39.5067C24.0086 44.0762 23.9187 49.5945 26.3951 54.2918C28.8471 58.9122 33.4156 61.9282 38.6394 62.3391C39.0888 62.3776 39.5383 62.3902 40.0002 62.3902C40.4622 62.3902 40.9116 62.3776 41.3601 62.3391C46.5839 61.9282 51.1534 58.9122 53.6045 54.2918C56.0815 49.5945 55.9922 44.0762 53.3735 39.5067L42.2331 20.0501C41.7712 19.2417 40.9243 18.7538 40.0004 18.7538C39.0764 18.7538 38.2295 19.2417 37.7676 20.0501Z" fill="#D0D1D3"/>
<path d="M45.1519 54.706C46.3233 54.706 47.2729 53.7561 47.2729 52.5847C47.2729 51.4132 46.3234 50.4637 45.1519 50.4637C43.9801 50.4637 43.0305 51.4132 43.0305 52.5847C43.0305 53.7561 43.98 54.706 45.1519 54.706Z" fill="#D0D1D3"/>
<path d="M44.4041 38.9101L33.1175 52.0397C32.5332 52.7191 32.6148 53.7396 33.2997 54.3191C33.9841 54.8987 35.0122 54.8176 35.5965 54.1382L46.8831 41.0086C47.4673 40.3292 47.3858 39.3087 46.7009 38.7292C46.0165 38.1496 44.9884 38.2307 44.4041 38.9101Z" fill="#D0D1D3"/>
<path d="M34.8487 42.585C36.0206 42.585 36.9701 41.6351 36.9701 40.4636C36.9701 39.2922 36.0206 38.3427 34.8487 38.3427C33.6773 38.3427 32.7278 39.2922 32.7278 40.4636C32.7278 41.6351 33.6772 42.585 34.8487 42.585Z" fill="#D0D1D3"/>
</svg>
