<svg width="105" height="105" viewBox="0 0 105 105" fill="none" xmlns="http://www.w3.org/2000/svg">
<g clip-path="url(#clip0_4147_1086)">
<g clip-path="url(#clip1_4147_1086)">
<path fill-rule="evenodd" clip-rule="evenodd" d="M82.3954 42.8563L95.8965 47.6782V57.3218L82.3954 62.1437C82.3954 63.5556 81.8785 64.4507 81.2233 65.5857C80.9834 66.0011 80.725 66.4487 80.4666 66.9655L86.2528 79.5023L79.5023 86.2528L66.9655 80.4666C66.0011 80.9488 65.2778 81.1899 64.5546 81.431L64.5545 81.431C63.8312 81.6721 63.108 81.9132 62.1437 82.3954L57.3218 95.8965H47.6782L42.8563 82.3954C41.4444 82.3954 40.5493 81.8785 39.4143 81.2233C38.9989 80.9834 38.5513 80.725 38.0345 80.4666L25.4977 86.2528L18.7472 79.5023L24.5334 66.9655C24.0512 66.0011 23.8101 65.2779 23.569 64.5546C23.3279 63.8313 23.0868 63.108 22.6046 62.1437L9.10352 57.3218V47.6782L22.6046 42.8563C23.0868 41.892 23.3279 41.1687 23.569 40.4454C23.8101 39.7221 24.0512 38.9989 24.5334 38.0345L18.7472 25.4977L25.4977 18.7472L38.0345 24.5334C38.9989 24.0512 39.7221 23.8101 40.4454 23.569C41.1687 23.3279 41.892 23.0868 42.8563 22.6046L47.6782 9.10352H57.3218L62.1437 22.6046C63.108 23.0868 63.8313 23.3279 64.5546 23.569C65.2779 23.8101 66.0011 24.0512 66.9655 24.5334L79.5023 18.7472L86.2528 25.4977L80.4666 38.0345C80.9488 38.9989 81.1899 39.7222 81.431 40.4454L81.431 40.4456L81.4311 40.4457C81.6721 41.1689 81.9132 41.8921 82.3954 42.8563ZM44.3632 36.9831C44.3632 36.0054 45.4298 35.4014 46.2682 35.9045L72.1354 51.4248C72.9497 51.9134 72.9497 53.0935 72.1354 53.5821L46.2682 69.1024C45.4298 69.6054 44.3632 69.0015 44.3632 68.0238V36.9831Z" fill="#D0D1D3"/>
</g>
<path d="M82.6454 98.8822L84.3286 100.992L86.604 99.5405L92.1553 95.9991L94.9665 94.2057L92.8869 91.599L24.6894 6.11734L23.0062 4.00755L20.7308 5.4591L15.1795 9.00049L12.3682 10.7939L14.4479 13.4006L82.6454 98.8822Z" fill="#D0D1D3" stroke="#3A3A3C" stroke-width="6"/>
</g>
<defs>
<clipPath id="clip0_4147_1086">
<rect width="104" height="104" fill="white" transform="translate(0.5 0.5)"/>
</clipPath>
<clipPath id="clip1_4147_1086">
<rect width="104" height="104" fill="white" transform="translate(0.5 0.5)"/>
</clipPath>
</defs>
</svg>
