<svg width="80" height="80" viewBox="0 0 80 80" fill="none" xmlns="http://www.w3.org/2000/svg">
<path fill-rule="evenodd" clip-rule="evenodd" d="M67.5556 31.1111L80 35.5556V44.4444L67.5556 48.8889C67.5556 50.1903 67.0792 51.0154 66.4752 52.0615C66.2541 52.4445 66.0159 52.857 65.7778 53.3333L71.1111 64.8889L64.8889 71.1111L53.3333 65.7778C52.4444 66.2222 51.7778 66.4445 51.1111 66.6667C50.4444 66.8889 49.7778 67.1111 48.8889 67.5556L44.4444 80H35.5556L31.1111 67.5556C29.8097 67.5556 28.9846 67.0792 27.9385 66.4752C27.5556 66.2541 27.143 66.0159 26.6667 65.7778L15.1111 71.1111L8.88889 64.8889L14.2222 53.3333C13.7778 52.4445 13.5556 51.7778 13.3333 51.1111C13.1111 50.4444 12.8889 49.7778 12.4444 48.8889L0 44.4444V35.5556L12.4444 31.1111C12.8889 30.2222 13.1111 29.5556 13.3333 28.8889C13.5556 28.2222 13.7778 27.5556 14.2222 26.6667L8.88889 15.1111L15.1111 8.88889L26.6667 14.2222C27.5556 13.7778 28.2222 13.5556 28.8889 13.3333C29.5556 13.1111 30.2222 12.8889 31.1111 12.4444L35.5556 0H44.4444L48.8889 12.4444C49.7778 12.8889 50.4444 13.1111 51.1111 13.3333C51.7778 13.5556 52.4445 13.7778 53.3333 14.2222L64.8889 8.88889L71.1111 15.1111L65.7778 26.6667C66.2222 27.5556 66.4445 28.2222 66.6667 28.8889C66.8889 29.5556 67.1111 30.2222 67.5556 31.1111ZM32.5 25.4157C32.5 24.6384 33.348 24.1583 34.0145 24.5582L58.3265 39.1454C58.9738 39.5338 58.9738 40.4719 58.3265 40.8603L34.0145 55.4475C33.348 55.8474 32.5 55.3673 32.5 54.59V25.4157Z" fill="#D0D1D3"/>
</svg>
