<svg width="80" height="81" viewBox="0 0 80 81" fill="none" xmlns="http://www.w3.org/2000/svg">
<path fill-rule="evenodd" clip-rule="evenodd" d="M5.45459 24.2484C5.45459 13.9749 13.7825 5.64697 24.056 5.64697H55.9441C66.2175 5.64697 74.5455 13.9749 74.5455 24.2484V56.1365C74.5455 66.4099 66.2175 74.7379 55.9441 74.7379H24.056C13.7825 74.7379 5.45459 66.4099 5.45459 56.1365V24.2484ZM51.782 30.3742V23.8288H20.8003L22.5456 30.3742H51.782ZM57.4548 23.8288L59.2001 30.3742H53.0911V23.8288H57.4548ZM22.5454 39.1015L20.8001 32.5561H51.7817V39.1015H22.5454ZM57.4548 32.5561L59.2001 39.1015H53.0911V32.5561H57.4548ZM57.4548 41.2833L59.2001 47.8288H53.0911V41.2833H57.4548ZM22.5454 47.8288L20.8001 41.2833H51.7817V47.8288H22.5454ZM52.4363 54.8108C53.2801 54.8108 53.9637 54.1268 53.9637 53.2833H53.9636C53.9636 52.6751 53.6053 52.1546 53.0909 51.9087V50.0106H57.4545L59.1998 56.5561H22.5453L20.8 50.0106H51.7818V51.9087C51.2674 52.1544 50.9092 52.6752 50.9092 53.2833C50.9092 54.1271 51.5929 54.8108 52.4363 54.8108Z" fill="#D0D1D3"/>
</svg>
