<svg width="80" height="81" viewBox="0 0 80 81" fill="none" xmlns="http://www.w3.org/2000/svg">
<path fill-rule="evenodd" clip-rule="evenodd" d="M5.4549 17.9846C5.4549 11.1709 10.8969 5.64697 17.6098 5.64697H62.3909C69.1038 5.64697 74.5458 11.1709 74.5458 17.9846V62.4002C74.5458 69.214 69.1038 74.7379 62.3909 74.7379H17.6098C10.8969 74.7379 5.4549 69.214 5.4549 62.4002V17.9846ZM22.3973 18.1925H57.8118C60.1728 18.1925 62.1045 20.1242 62.1045 22.4852V57.8997C62.1045 60.2608 60.1728 62.1925 57.8118 62.1925H22.3973C20.0362 62.1925 18.1045 60.2608 18.1045 57.8997V22.4852C18.1045 20.1242 20.0362 18.1925 22.3973 18.1925ZM57.8118 58.9727C58.402 58.9727 58.8848 58.4899 58.8848 57.8996V22.4851C58.8848 21.8949 58.402 21.4121 57.8118 21.4121H22.3973C21.807 21.4121 21.3242 21.8949 21.3242 22.4851V57.8996C21.3242 58.4898 21.807 58.9727 22.3973 58.9727H57.8118ZM56.7385 56.8265H23.4707V23.5584H56.7389L56.7385 56.8265ZM43.4866 50.3872H36.6575C36.0673 50.3872 35.5845 50.8704 35.5845 51.4603C35.5845 52.0506 36.0673 52.5334 36.6575 52.5334H43.4866C44.0768 52.5334 44.5596 52.0506 44.5596 51.4603C44.5596 50.8701 44.0768 50.3872 43.4866 50.3872Z" fill="#D0D1D3"/>
</svg>
