<svg width="80" height="81" viewBox="0 0 80 81" fill="none" xmlns="http://www.w3.org/2000/svg">
<path fill-rule="evenodd" clip-rule="evenodd" d="M5.45459 24.2484C5.45459 13.9749 13.7825 5.64697 24.056 5.64697H55.9441C66.2175 5.64697 74.5455 13.9749 74.5455 24.2484V56.1365C74.5455 66.4099 66.2175 74.7379 55.9441 74.7379H24.056C13.7825 74.7379 5.45459 66.4099 5.45459 56.1365V24.2484ZM46.826 20.2222C50.9801 22.6488 53.533 27.099 53.5318 31.9099H53.5319C53.5292 36.6477 51.0499 41.0398 46.994 43.4897L49.3575 56.4892L50.7137 60.5569C50.8259 60.8939 50.7694 61.2639 50.5617 61.5523C50.354 61.8403 50.0207 62.0106 49.6654 62.0106H30.3342C29.9794 62.0106 29.646 61.8399 29.4383 61.5519C29.2306 61.2639 29.1742 60.8939 29.2863 60.5569L30.6425 56.4892L33.006 43.4897C28.8872 41.0031 26.3988 36.5168 26.4696 31.7062C26.5404 26.8958 29.1605 22.4847 33.3509 20.1204C37.5414 17.7564 42.6718 17.795 46.826 20.2222ZM34.666 35.8425C35.9152 37.5364 37.8948 38.537 39.9997 38.5378L39.9997 38.5377C41.9304 38.5377 43.7652 37.6955 45.0243 36.2314C46.2835 34.7678 46.8416 32.8276 46.5528 30.9188C46.2644 29.0096 45.1576 27.3212 43.5221 26.2949C41.8867 25.2688 39.8847 25.0067 38.0404 25.5776C37.6012 25.7132 37.2921 26.1067 37.2642 26.565C37.236 27.0237 37.4946 27.4518 37.9139 27.6404C38.4116 27.8619 38.768 28.3143 38.8675 28.8498C38.9665 29.3856 38.7959 29.9354 38.4108 30.3209C38.0253 30.706 37.4751 30.8767 36.9396 30.7776C36.4042 30.6782 35.9518 30.3217 35.7302 29.824C35.5416 29.4047 35.1135 29.1461 34.6548 29.1744C34.1961 29.2026 33.8031 29.5113 33.6674 29.9505C33.046 31.9617 33.4168 34.1485 34.666 35.8425Z" fill="#D0D1D3"/>
</svg>
