<svg width="56" height="56" viewBox="0 0 56 56" fill="none" xmlns="http://www.w3.org/2000/svg">
<path fill-rule="evenodd" clip-rule="evenodd" d="M3.81836 12.4547C3.81836 7.68508 7.6278 3.81836 12.3268 3.81836H43.6736C48.3726 3.81836 52.182 7.68508 52.182 12.4547V43.5456C52.182 48.3153 48.3726 52.182 43.6736 52.182H12.3268C7.6278 52.182 3.81836 48.3153 3.81836 43.5456V12.4547ZM16.8787 21.3787C16.3161 21.9413 16 22.7044 16 23.5V32.5C16 33.2956 16.3161 34.0587 16.8787 34.6213C17.4413 35.1839 18.2044 35.5 19 35.5H30.25C30.9776 35.5001 31.6805 35.2357 32.2277 34.7561C32.7749 34.2765 33.1292 33.6144 33.2245 32.893L37.891 34.966C38.1193 35.0674 38.3693 35.1102 38.6183 35.0905C38.8673 35.0708 39.1074 34.9893 39.3169 34.8532C39.5264 34.7172 39.6986 34.531 39.8179 34.3115C39.9372 34.0921 39.9998 33.8463 40 33.5965V22.4035C39.9999 22.1535 39.9373 21.9075 39.8179 21.6879C39.6986 21.4682 39.5262 21.2819 39.3165 21.1458C39.1068 21.0098 38.8664 20.9283 38.6172 20.9087C38.368 20.8892 38.1178 20.9323 37.8895 21.034L33.2245 23.107C33.1292 22.3856 32.7749 21.7235 32.2277 21.2439C31.6805 20.7643 30.9776 20.4999 30.25 20.5H19C18.2044 20.5 17.4413 20.8161 16.8787 21.3787Z" fill="#D0D1D3"/>
</svg>
