<svg width="80" height="81" viewBox="0 0 80 81" fill="none" xmlns="http://www.w3.org/2000/svg">
<path fill-rule="evenodd" clip-rule="evenodd" d="M5.45486 17.9846C5.45486 11.1709 10.8969 5.64697 17.6097 5.64697H62.3909C69.1037 5.64697 74.5458 11.1709 74.5458 17.9846V62.4002C74.5458 69.214 69.1037 74.7379 62.3909 74.7379H17.6097C10.8969 74.7379 5.45486 69.214 5.45486 62.4002V17.9846ZM22.2925 18.1925H57.707C60.0681 18.1925 61.9998 20.1242 61.9998 22.4853V57.8997C61.9998 60.2608 60.0681 62.1925 57.707 62.1925H22.2925C19.9315 62.1925 17.9998 60.2608 17.9998 57.8997V22.4853C17.9998 20.1242 19.9315 18.1925 22.2925 18.1925ZM57.707 58.9727C58.2973 58.9727 58.7801 58.4899 58.7801 57.8997V22.4852C58.7801 21.8949 58.2973 21.4121 57.707 21.4121H22.2925C21.7023 21.4121 21.2195 21.8949 21.2195 22.4852V57.8997C21.2195 58.4899 21.7023 58.9727 22.2925 58.9727H57.707ZM56.6338 56.8266H41.0729L41.0732 23.5584H56.6341L56.6338 56.8266ZM51.2677 50.3873H46.4387C45.8485 50.3873 45.3656 50.8705 45.3656 51.4604C45.3656 52.0506 45.8484 52.5334 46.4387 52.5334H51.2677C51.858 52.5334 52.3408 52.0506 52.3408 51.4604C52.3408 50.8701 51.858 50.3873 51.2677 50.3873ZM38.9265 56.8266H23.3656L23.366 23.5584H38.9269L38.9265 56.8266Z" fill="#D0D1D3"/>
</svg>
