<svg width="80" height="81" viewBox="0 0 80 81" fill="none" xmlns="http://www.w3.org/2000/svg">
<path fill-rule="evenodd" clip-rule="evenodd" d="M39.9996 5.64697C59.0798 5.64574 74.5465 21.1122 74.545 40.1924C74.5462 59.2726 59.0798 74.7393 39.9996 74.7379C20.9194 74.7391 5.45266 59.2726 5.4541 40.1924C5.45287 21.1122 20.9194 5.64553 39.9996 5.64697ZM54.1458 22.6316C54.1458 21.2845 53.0537 20.1925 51.7066 20.1926C50.3597 20.1927 49.2678 21.2846 49.2678 22.6316V57.7533C49.2678 59.1004 50.3599 60.1925 51.707 60.1924C53.0539 60.1923 54.1458 59.1003 54.1458 57.7533V22.6316ZM28.8533 20.1924C27.1964 20.1924 25.8533 21.5356 25.8533 23.1924V57.1925C25.8533 58.8493 27.1965 60.1925 28.8534 60.1925L39.4386 60.1923C41.0955 60.1922 42.4386 58.8491 42.4386 57.1923V23.1924C42.4386 21.5356 41.0954 20.1924 39.4386 20.1924H28.8533ZM34.1458 47.5093C32.2632 47.5093 30.7313 45.9777 30.7313 44.0947C30.7313 42.2117 32.2628 40.6802 34.1458 40.6802C36.0285 40.6802 37.5604 42.2117 37.5604 44.0947C37.5604 45.9774 36.0288 47.5093 34.1458 47.5093ZM34.1458 57.2653C32.2632 57.2653 30.7313 55.7338 30.7313 53.8508C30.7313 51.9678 32.2628 50.4362 34.1458 50.4362C36.0285 50.4362 37.5604 51.9678 37.5604 53.8508C37.5604 55.7334 36.0288 57.2653 34.1458 57.2653ZM35.6093 53.8508C35.6093 54.6558 34.9506 55.3143 34.1458 55.3143C33.3408 55.3143 32.6824 54.6555 32.6824 53.8508C32.6824 53.0457 33.3411 52.3873 34.1458 52.3873C34.9509 52.3873 35.6093 53.046 35.6093 53.8508ZM35.6093 44.0947C35.6093 44.8998 34.9506 45.5582 34.1458 45.5582C33.3408 45.5582 32.6824 44.8995 32.6824 44.0947C32.6824 43.2896 33.3411 42.6312 34.1458 42.6312C34.9509 42.6312 35.6093 43.29 35.6093 44.0947Z" fill="#D0D1D3"/>
</svg>
