<svg width="80" height="81" viewBox="0 0 80 81" fill="none" xmlns="http://www.w3.org/2000/svg">
<path fill-rule="evenodd" clip-rule="evenodd" d="M39.9996 5.64697C59.0798 5.64574 74.5465 21.1122 74.545 40.1924C74.5462 59.2726 59.0798 74.7393 39.9996 74.7379C20.9194 74.7391 5.45266 59.2726 5.4541 40.1924C5.45287 21.1122 20.9194 5.64553 39.9996 5.64697ZM31.6528 32.0322L29.1167 32.6875L29.1166 32.6874C27.9769 33.0009 26.8371 32.3171 26.5236 31.2058C26.2386 30.0658 26.8942 28.8976 28.0339 28.6126L30.5701 27.9286C33.9041 27.0737 37.7511 27.4158 40.6007 28.8404C42.8234 29.9517 46.1004 30.0658 48.5511 29.1255L50.6311 28.299C51.714 27.8714 52.9394 28.4413 53.3668 29.5242C53.7943 30.6071 53.2245 31.8326 52.1416 32.2599L50.0328 33.0578C48.437 33.6563 46.6417 33.9698 44.875 33.9698C42.7094 33.9698 40.5151 33.514 38.6913 32.602C36.7536 31.6332 33.9896 31.4052 31.6528 32.0322ZM29.1165 42.1483L31.6526 41.493C33.9894 40.8661 36.7534 41.094 38.7197 42.0628C40.5434 42.9748 42.7377 43.4306 44.9033 43.4306C46.67 43.4306 48.4653 43.1171 50.0611 42.5186L52.1699 41.7207C53.2528 41.2934 53.8227 40.068 53.3951 38.985C52.9678 37.9021 51.7423 37.3322 50.6594 37.7598L48.551 38.5863C46.1003 39.5266 42.8233 39.4125 40.6006 38.3012C37.751 36.8764 33.904 36.5345 30.5699 37.4179L28.0338 38.0733C26.894 38.3583 26.2385 39.5265 26.5235 40.6665C26.8083 41.8064 28.0051 42.4618 29.1165 42.1483ZM50.6596 47.2203C51.7709 46.8212 52.968 47.3627 53.3953 48.4456C53.8229 49.5285 53.2814 50.7539 52.1701 51.2097L50.0613 52.0076C48.4655 52.6061 46.6702 52.9196 44.9035 52.9196C42.7379 52.9196 40.5436 52.4638 38.7199 51.5518C36.7536 50.583 33.9896 50.355 31.6528 50.9819L29.1167 51.6373C27.9767 51.9508 26.8085 51.2668 26.5235 50.127C26.2385 48.9871 26.894 47.8189 28.0338 47.5338L30.5699 46.8783C33.904 45.9949 37.751 46.3368 40.6006 47.7616C42.8233 48.8729 46.1003 48.987 48.551 48.0466L50.6596 47.2203Z" fill="#D0D1D3"/>
</svg>
