<svg width="80" height="81" viewBox="0 0 80 81" fill="none" xmlns="http://www.w3.org/2000/svg">
<path fill-rule="evenodd" clip-rule="evenodd" d="M5.45459 24.2484C5.45459 13.9749 13.7825 5.64697 24.056 5.64697H55.9441C66.2175 5.64697 74.5455 13.9749 74.5455 24.2484V56.1365C74.5455 66.4099 66.2175 74.7379 55.9441 74.7379H24.056C13.7825 74.7379 5.45459 66.4099 5.45459 56.1365V24.2484ZM40.0215 37.9555C40.631 37.9555 41.2406 37.7959 41.7849 37.4837L55.029 29.8352C55.0673 29.8096 55.1032 29.7865 55.1351 29.7659L55.1358 29.7655C55.158 29.7512 55.1782 29.7382 55.1959 29.7264C56.1246 29.1025 57.0828 28.4056 54.855 27.0995C54.7607 27.0412 54.652 26.976 54.5285 26.9108L41.7854 19.5592C41.241 19.247 40.6315 19.0875 40.0219 19.0875C39.4124 19.0875 38.8028 19.247 38.2585 19.5592L25.5084 26.9178C25.4392 26.9566 25.3727 26.9955 25.3087 27.0328L25.3084 27.033L25.3083 27.0331C25.265 27.0584 25.2228 27.083 25.1818 27.1064C22.9541 28.4055 23.9119 29.1094 24.841 29.7334L24.8696 29.7528C24.9069 29.7781 24.9506 29.8078 25.0079 29.8421L38.252 37.4907C38.8033 37.7955 39.4129 37.9554 40.0224 37.9554L40.0215 37.9555ZM37.0618 39.4066L23.3386 31.482V31.4819C21.4868 30.5007 21.4994 32.0322 21.5093 33.2315C21.5104 33.3623 21.5114 33.4892 21.51 33.6084C21.5026 33.9787 21.5026 35.8727 21.5026 38.2457V38.5866C21.5026 43.4192 21.51 49.9939 21.51 49.9939C21.51 51.2639 22.1852 52.4321 23.2808 53.0634L37.004 60.9807C38.8556 61.9687 38.8431 60.437 38.8333 59.238C38.8322 59.1074 38.8312 58.9807 38.8326 58.8616C38.84 58.4913 38.84 56.5974 38.84 54.2243V53.8835C38.84 49.0508 38.8326 42.4761 38.8326 42.4761C38.8326 41.2061 38.1574 40.0379 37.0618 39.4066ZM42.9385 39.4066L56.6687 31.482H56.6691C58.5279 30.4968 58.5081 32.0444 58.4928 33.2402C58.4912 33.3655 58.4897 33.4868 58.4904 33.601C58.4977 33.9714 58.4977 35.8653 58.4977 38.2383V38.5792C58.4977 43.4119 58.4904 49.9865 58.4904 49.9865C58.4904 51.2566 57.8152 52.4248 56.7196 53.0561L42.9964 60.9807C41.1447 61.9687 41.1573 60.4371 41.1671 59.238C41.1681 59.1074 41.1692 58.9807 41.1678 58.8616C41.1604 58.4913 41.1604 56.5974 41.1604 54.2244V53.8835C41.1604 49.0508 41.1678 42.4761 41.1678 42.4761C41.1678 41.2061 41.8429 40.0379 42.9385 39.4066Z" fill="#D0D1D3"/>
</svg>
