<svg width="30" height="34" viewBox="0 0 30 34" fill="none" xmlns="http://www.w3.org/2000/svg">
<path d="M17.6606 32.1408C17.3258 33.3784 16.0609 33.6666 14.8332 33.6666C13.6055 33.6666 12.3406 33.3784 12.0059 32.1408C11.5081 30.29 10.6665 25.6522 10.6665 23.4941C10.6665 21.2053 12.694 20.6458 14.8332 20.6458C16.9724 20.6458 18.9999 21.2053 18.9999 23.4941C18.9999 25.6392 18.1619 30.2766 17.6606 32.1408ZM10.4626 19.1194C9.24558 17.9275 8.51218 16.2435 8.58861 14.3929C8.72234 11.1556 11.3487 8.53637 14.5863 8.41105C18.1445 8.27329 21.0832 11.128 21.0832 14.6562C21.0832 16.4028 20.3629 17.9841 19.2039 19.1192C19.0298 19.2898 19.0476 19.5741 19.2448 19.7174C19.851 20.1578 20.3164 20.7163 20.6272 21.3686C20.7406 21.6065 21.0502 21.672 21.2424 21.4917C23.1191 19.7311 24.2732 17.209 24.2053 14.4237C24.0846 9.46235 20.065 5.42576 15.1042 5.28507C9.81166 5.13494 5.45821 9.39679 5.45821 14.6562C5.45821 17.349 6.59962 19.7799 8.42371 21.4915C8.61596 21.6719 8.92572 21.6067 9.03914 21.3686C9.34994 20.7162 9.81537 20.1578 10.4216 19.7174C10.6188 19.5741 10.6367 19.2899 10.4626 19.1194V19.1194ZM14.8332 0.333313C6.77358 0.333313 0.249878 6.85577 0.249878 14.9166C0.249878 20.7755 3.67449 25.701 8.43601 28.0291C8.71811 28.167 9.03933 27.9286 8.99167 27.6183C8.8366 26.6084 8.70899 25.6036 8.63972 24.7317C8.63022 24.6122 8.56492 24.5047 8.46537 24.4379C5.37944 22.3672 3.35053 18.8379 3.37507 14.845C3.41361 8.5796 8.53718 3.47472 14.8027 3.45838C21.1348 3.44184 26.2915 8.58833 26.2915 14.9166C26.2915 18.9487 24.1979 22.5006 21.0409 24.5434C20.9759 25.4573 20.8411 26.5348 20.6747 27.6183C20.6271 27.9286 20.9484 28.167 21.2304 28.0291C25.9808 25.7062 29.4165 20.7882 29.4165 14.9166C29.4165 6.85708 22.8941 0.333313 14.8332 0.333313ZM14.8332 10.75C12.532 10.75 10.6665 12.6155 10.6665 14.9166C10.6665 17.2178 12.532 19.0833 14.8332 19.0833C17.1344 19.0833 18.9999 17.2178 18.9999 14.9166C18.9999 12.6155 17.1344 10.75 14.8332 10.75Z" fill="#D0D1D3"/>
</svg>
