<svg width="34" height="30" viewBox="0 0 34 30" fill="none" xmlns="http://www.w3.org/2000/svg">
<path d="M30.3333 26.6667V3.33333C30.3333 1.5 28.8333 0 27 0H6.99998C5.16665 0 3.66665 1.5 3.66665 3.33333V26.6667H1.99998C1.08331 26.6667 0.333313 27.4167 0.333313 28.3333C0.333313 29.25 1.08331 30 1.99998 30H32C32.9166 30 33.6666 29.25 33.6666 28.3333C33.6666 27.4167 32.9166 26.6667 32 26.6667H30.3333ZM6.99998 26.6667V16.6667H15.3333V19.6667C14.6666 20.1667 14 21 14 22C14 23.6667 15.3333 25 17 25C18.6666 25 20 23.6667 20 22C20 21 19.5 20.1667 18.6666 19.6667V16.6667H27V26.6667H6.99998Z" fill="#D0D1D3"/>
</svg>
