<svg width="54" height="54" viewBox="0 0 54 54" fill="none" xmlns="http://www.w3.org/2000/svg">
<path d="M14.8059 43.5786L10.9131 46.8441L11.0312 38.7749C11.0323 38.6445 10.987 38.5179 10.9034 38.4179L9.18056 36.3642C9.1348 36.3096 9.07871 36.2644 9.01549 36.2315C8.95228 36.1985 8.88318 36.1783 8.81216 36.172C8.74113 36.1658 8.66957 36.1736 8.60156 36.195C8.53355 36.2164 8.47043 36.251 8.41581 36.2969L0.94419 42.5662C0.889512 42.612 0.844391 42.6681 0.811409 42.7313C0.778426 42.7945 0.758229 42.8636 0.751971 42.9346C0.745714 43.0057 0.753519 43.0772 0.774941 43.1452C0.796363 43.2132 0.830981 43.2764 0.876815 43.331L2.56556 45.3426C2.61145 45.3972 2.66764 45.4421 2.73092 45.475C2.79419 45.5078 2.86332 45.5278 2.93434 45.5339C3.00536 45.54 3.07689 45.532 3.14483 45.5105C3.21278 45.4889 3.27581 45.4542 3.33032 45.4082L6.78482 42.5094L6.73407 50.779C6.73294 50.9075 6.77761 51.0322 6.86006 51.1307L8.47532 53.0549C8.52115 53.1096 8.57734 53.1548 8.64066 53.1877C8.70398 53.2207 8.77319 53.2409 8.84432 53.2471C8.91545 53.2532 8.9871 53.2453 9.05516 53.2237C9.12322 53.2022 9.18635 53.1674 9.24094 53.1214L17.2061 46.4372C17.2609 46.3915 17.3061 46.3353 17.3392 46.272C17.3722 46.2087 17.3925 46.1395 17.3987 46.0684C17.405 45.9973 17.3971 45.9256 17.3756 45.8575C17.3541 45.7894 17.3194 45.7262 17.2734 45.6716L15.5716 43.6442C15.4783 43.5346 15.3456 43.4662 15.2023 43.4539C15.0589 43.4416 14.9165 43.4864 14.8059 43.5786ZM30.5227 28.3379L24.8667 31.6042L26.8171 21.4122C26.8469 21.2477 26.8177 21.0779 26.7348 20.9327L25.0102 17.9481C24.9645 17.8686 24.9035 17.7988 24.8308 17.7428C24.7581 17.6869 24.6751 17.6458 24.5865 17.622C24.4979 17.5982 24.4055 17.5921 24.3145 17.6041C24.2236 17.616 24.1359 17.6458 24.0564 17.6917L13.1977 23.9602C13.1181 24.0062 13.0484 24.0673 12.9925 24.1402C12.9367 24.2131 12.8957 24.2963 12.8719 24.385C12.8482 24.4738 12.8422 24.5663 12.8543 24.6574C12.8663 24.7484 12.8962 24.8362 12.9422 24.9157L14.6292 27.8382C14.675 27.9177 14.7361 27.9874 14.8089 28.0433C14.8818 28.0992 14.9649 28.1402 15.0535 28.1639C15.1422 28.1876 15.2347 28.1937 15.3257 28.1816C15.4167 28.1696 15.5044 28.1397 15.5838 28.0937L20.6054 25.1949L18.6944 35.652C18.664 35.815 18.6929 35.9835 18.7758 36.1271L20.3911 38.9245C20.4369 39.0039 20.498 39.0735 20.5707 39.1293C20.6435 39.185 20.7265 39.2259 20.8151 39.2496C20.9037 39.2732 20.9961 39.2792 21.087 39.2671C21.1779 39.255 21.2655 39.2251 21.3448 39.1791L32.9237 32.495C33.0033 32.4493 33.073 32.3883 33.129 32.3156C33.1849 32.2429 33.2259 32.1598 33.2496 32.0712C33.2734 31.9826 33.2794 31.8901 33.2673 31.7992C33.2552 31.7082 33.2253 31.6206 33.1792 31.5412L31.4773 28.5934C31.3845 28.433 31.2319 28.3159 31.0529 28.268C30.8739 28.2201 30.6832 28.2452 30.5227 28.3379ZM50.9146 13.693L44.0948 16.1762L48.1951 5.40148C48.2602 5.22728 48.2611 5.03556 48.1977 4.86073L46.8878 1.26098C46.853 1.16535 46.7998 1.07751 46.731 1.00248C46.6623 0.927446 46.5794 0.8667 46.4872 0.823712C46.395 0.780724 46.2952 0.756336 46.1935 0.751943C46.0918 0.747549 45.9903 0.763237 45.8947 0.798108L32.8021 5.56161C32.7061 5.59629 32.618 5.64957 32.5427 5.71838C32.4674 5.7872 32.4064 5.87019 32.3633 5.96261C32.3201 6.05504 32.2956 6.15507 32.2912 6.25697C32.2867 6.35888 32.3025 6.46066 32.3374 6.55648L33.6211 10.0801C33.6556 10.176 33.7088 10.2641 33.7776 10.3393C33.8464 10.4145 33.9293 10.4754 34.0217 10.5184C34.1141 10.5615 34.2141 10.5858 34.3159 10.59C34.4178 10.5942 34.5194 10.5782 34.6151 10.543L40.6692 8.33973L36.5619 19.4146C36.4976 19.5872 36.4967 19.7769 36.5593 19.9501L37.7861 23.3224C37.8567 23.5156 38.0011 23.673 38.1877 23.7598C38.3742 23.8466 38.5876 23.8557 38.7809 23.7852L52.7398 18.7041C52.8356 18.6692 52.9236 18.6158 52.9987 18.547C53.0738 18.4781 53.1347 18.3951 53.1777 18.3027C53.2208 18.2103 53.2453 18.1104 53.2497 18.0085C53.2541 17.9067 53.2384 17.805 53.2036 17.7092L51.9094 14.1559C51.8386 13.9627 51.6942 13.8056 51.5077 13.7188C51.3212 13.632 51.1079 13.6227 50.9146 13.693Z" fill="#D0D1D3"/>
</svg>
