<svg width="25" height="25" viewBox="0 0 25 25" fill="none" xmlns="http://www.w3.org/2000/svg">
<g clip-path="url(#clip0_4073_5171)">
<path fill-rule="evenodd" clip-rule="evenodd" d="M13.4529 3.61367C13.8008 3.8028 14.0173 4.16703 14.0173 4.56297V20.4061C14.0173 20.802 13.8008 21.1663 13.4529 21.3554C13.1051 21.5445 12.6817 21.5283 12.3493 21.313L5.62895 16.96H1.58055C0.983778 16.96 0.5 16.4763 0.5 15.8795V9.08958C0.5 8.49281 0.983778 8.00903 1.58055 8.00903H5.62895L12.3493 3.65605C12.6817 3.4408 13.1051 3.42454 13.4529 3.61367ZM11.8562 6.55029L6.53576 9.9965C6.3608 10.1098 6.15679 10.1701 5.94833 10.1701H2.6611V14.7989H5.94833C6.15679 14.7989 6.3608 14.8592 6.53576 14.9726L11.8562 18.4188V6.55029ZM16.5814 8.28665C17.0249 7.88728 17.7081 7.92302 18.1075 8.36647L20.362 10.8699L22.6165 8.36647C23.0159 7.92302 23.6991 7.88728 24.1425 8.28665C24.586 8.68601 24.6217 9.36924 24.2224 9.81268L21.8161 12.4845L24.2224 15.1564C24.6217 15.5998 24.586 16.2831 24.1425 16.6824C23.6991 17.0818 23.0159 17.046 22.6165 16.6026L20.362 14.0992L18.1075 16.6026C17.7081 17.046 17.0249 17.0818 16.5814 16.6824C16.138 16.2831 16.1023 15.5998 16.5016 15.1564L18.9078 12.4845L16.5016 9.81268C16.1023 9.36924 16.138 8.68601 16.5814 8.28665Z" fill="black"/>
</g>
<defs>
<clipPath id="clip0_4073_5171">
<rect width="24" height="24" fill="white" transform="translate(0.5 0.121338)"/>
</clipPath>
</defs>
</svg>
