<svg width="32" height="32" viewBox="0 0 32 32" fill="none" xmlns="http://www.w3.org/2000/svg">
<path fill-rule="evenodd" clip-rule="evenodd" d="M27.0222 12.4444L32 14.2222V17.7778L27.0222 19.5556C27.0222 20.0761 26.8317 20.4062 26.5901 20.8246L26.59 20.8247L26.59 20.8248C26.5016 20.9779 26.4063 21.1429 26.3111 21.3333L28.4444 25.9556L25.9556 28.4444L21.3333 26.3111C20.9778 26.4889 20.7111 26.5778 20.4444 26.6667C20.1778 26.7556 19.9111 26.8444 19.5556 27.0222L17.7778 32H14.2222L12.4444 27.0222C11.9239 27.0222 11.5938 26.8317 11.1754 26.5901L11.1753 26.5901L11.1753 26.59C11.0222 26.5016 10.8572 26.4064 10.6667 26.3111L6.04444 28.4444L3.55556 25.9556L5.68889 21.3333C5.51111 20.9778 5.42222 20.7111 5.33333 20.4444C5.24444 20.1778 5.15556 19.9111 4.97778 19.5556L0 17.7778V14.2222L4.97778 12.4444C5.15556 12.0889 5.24444 11.8222 5.33333 11.5556C5.42222 11.2889 5.51111 11.0222 5.68889 10.6667L3.55556 6.04444L6.04444 3.55556L10.6667 5.68889C11.0222 5.51111 11.2889 5.42222 11.5556 5.33333C11.8222 5.24444 12.0889 5.15556 12.4444 4.97778L14.2222 0H17.7778L19.5556 4.97778C19.9111 5.15556 20.1778 5.24444 20.4444 5.33333C20.7111 5.42222 20.9778 5.51111 21.3333 5.68889L25.9556 3.55556L28.4444 6.04444L26.3111 10.6667C26.4889 11.0222 26.5778 11.2889 26.6667 11.5556C26.7556 11.8222 26.8444 12.0889 27.0222 12.4444ZM13 11.2256C13 10.4483 13.848 9.96816 14.5145 10.3681L22.4731 15.1432C23.1204 15.5316 23.1204 16.4698 22.4731 16.8582L14.5145 21.6334C13.848 22.0333 13 21.5532 13 20.7759V11.2256Z" fill="#D0D1D3"/>
</svg>
