<svg width="50" height="50" viewBox="0 0 50 50" fill="none" xmlns="http://www.w3.org/2000/svg">
<path fill-rule="evenodd" clip-rule="evenodd" d="M0.818359 9.45472C0.818359 4.68508 4.6278 0.818359 9.32678 0.818359H40.6736C45.3726 0.818359 49.182 4.68508 49.182 9.45472V40.5456C49.182 45.3153 45.3726 49.182 40.6736 49.182H9.32678C4.6278 49.182 0.818359 45.3153 0.818359 40.5456V9.45472ZM27.5 34.375C27.5 35.75 26.375 36.875 25 36.875C23.625 36.875 22.5 35.75 22.5 34.375H27.5ZM32.5 23.125V29.375L35 31.875V33.125H15V31.875L17.5 29.375V23.125C17.5 19.275 19.55 16.075 23.125 15.225V14.375C23.125 13.3375 23.9625 12.5 25 12.5C26.0375 12.5 26.875 13.3375 26.875 14.375V15.225C30.4625 16.075 32.5 19.2875 32.5 23.125Z" fill="#7EE5EB"/>
</svg>
