<svg width="32" height="30" viewBox="0 0 32 30" fill="none" xmlns="http://www.w3.org/2000/svg">
<path fill-rule="evenodd" clip-rule="evenodd" d="M21.922 23.7299C22.4924 23.1221 22.8576 22.3504 22.966 21.5239L29.186 24.2879C29.4905 24.4236 29.824 24.481 30.1563 24.455C30.4886 24.4289 30.8091 24.3202 31.0887 24.1388C31.3683 23.9574 31.5981 23.7089 31.7573 23.4161C31.9164 23.1232 31.9999 22.7952 32 22.4619V7.53792C31.9997 7.20487 31.9163 6.87717 31.7572 6.58455C31.5982 6.29194 31.3685 6.04367 31.0892 5.86229C30.8099 5.68091 30.4897 5.57215 30.1577 5.54589C29.8257 5.51963 29.4924 5.5767 29.188 5.71192L22.966 8.47592C22.8389 7.5141 22.3666 6.63125 21.637 5.99178C20.9073 5.35231 19.9702 4.99981 19 4.99992H8.544L21.924 23.7299H21.922ZM1.694 5.72992C1.17044 6.09952 0.743305 6.58945 0.448516 7.15849C0.153726 7.72753 -9.20287e-05 8.35905 4.13079e-08 8.99992V20.9999C4.13079e-08 22.0608 0.421427 23.0782 1.17157 23.8283C1.92172 24.5785 2.93913 24.9999 4 24.9999H15.456L1.694 5.73192V5.72992ZM21.186 29.5799L1.186 1.57992L2.814 0.419922L22.814 28.4199L21.186 29.5799Z" fill="#969697"/>
</svg>
