<svg width="32" height="20" viewBox="0 0 32 20" fill="none" xmlns="http://www.w3.org/2000/svg">
<path fill-rule="evenodd" clip-rule="evenodd" d="M0 4C0 2.93913 0.421427 1.92172 1.17157 1.17157C1.92172 0.421427 2.93913 2.77024e-08 4 2.77024e-08H19C19.9702 -0.000114096 20.9073 0.352386 21.637 0.991856C22.3666 1.63133 22.8389 2.51418 22.966 3.476L29.186 0.712C29.4905 0.576343 29.824 0.518927 30.1563 0.544971C30.4886 0.571015 30.8091 0.679692 31.0887 0.861125C31.3683 1.04256 31.5981 1.29099 31.7573 1.58385C31.9164 1.8767 31.9999 2.20469 32 2.538V17.462C31.9997 17.795 31.9163 18.1228 31.7572 18.4154C31.5982 18.708 31.3685 18.9563 31.0892 19.1376C30.8099 19.319 30.4897 19.4278 30.1577 19.454C29.8257 19.4803 29.4924 19.4232 29.188 19.288L22.966 16.524C22.8389 17.4858 22.3666 18.3687 21.637 19.0081C20.9073 19.6476 19.9702 20.0001 19 20H4C2.93913 20 1.92172 19.5786 1.17157 18.8284C0.421427 18.0783 0 17.0609 0 16V4Z" fill="#7EE5EB"/>
</svg>
