<svg width="104" height="95" viewBox="0 0 104 95" fill="none" xmlns="http://www.w3.org/2000/svg">
<path fill-rule="evenodd" clip-rule="evenodd" d="M71.2465 75.8725C73.1004 73.8969 74.2872 71.3892 74.6395 68.703L94.8545 77.686C95.844 78.1269 96.9279 78.3135 98.0079 78.2288C99.0878 78.1442 100.129 77.791 101.038 77.2013C101.947 76.6117 102.694 75.8043 103.211 74.8525C103.728 73.9007 104 72.8347 104 71.7515V23.2485C103.999 22.1661 103.728 21.101 103.211 20.15C102.694 19.199 101.948 18.3922 101.04 17.8027C100.132 17.2132 99.0915 16.8597 98.0125 16.7744C96.9334 16.6891 95.8502 16.8745 94.861 17.314L74.6395 26.297C74.2264 23.1711 72.6914 20.3018 70.3201 18.2235C67.9489 16.1452 64.9031 14.9996 61.75 15H27.768L32.409 21.5H61.75C63.4739 21.5 65.1272 22.1848 66.3462 23.4038C67.5652 24.6228 68.25 26.2761 68.25 28V67C68.2512 68.1867 67.9275 69.3511 67.314 70.367L71.2465 75.8725ZM9.282 22.67C8.42298 23.2684 7.72137 24.0655 7.23696 24.9936C6.75256 25.9217 6.49972 26.9531 6.5 28V67C6.5 68.7239 7.18482 70.3772 8.40381 71.5962C9.62279 72.8152 11.2761 73.5 13 73.5H45.591L50.232 80H13C9.55219 80 6.24558 78.6303 3.80761 76.1924C1.36964 73.7544 0 70.4478 0 67V28C0 23.6125 2.171 19.732 5.5055 17.379L9.2755 22.67H9.282ZM97.5 71.745L74.75 61.6375V33.3625L97.5 23.2485V71.7515V71.745ZM68.8545 94.885L3.8545 3.88499L9.1455 0.11499L74.1455 91.115L68.8545 94.885Z" fill="#D0D1D3"/>
</svg>
