<svg width="32" height="30" viewBox="0 0 32 30" fill="none" xmlns="http://www.w3.org/2000/svg">
<path fill-rule="evenodd" clip-rule="evenodd" d="M21.922 23.73C22.4924 23.1222 22.8576 22.3506 22.966 21.524L29.186 24.288C29.4905 24.4237 29.824 24.4811 30.1563 24.4551C30.4886 24.429 30.8091 24.3204 31.0887 24.1389C31.3683 23.9575 31.5981 23.7091 31.7573 23.4162C31.9164 23.1233 31.9999 22.7954 32 22.462V7.53804C31.9997 7.205 31.9163 6.87729 31.7572 6.58468C31.5982 6.29206 31.3685 6.04379 31.0892 5.86241C30.8099 5.68103 30.4897 5.57227 30.1577 5.54602C29.8257 5.51976 29.4924 5.57683 29.188 5.71204L22.966 8.47604C22.8389 7.51422 22.3666 6.63137 21.637 5.9919C20.9073 5.35243 19.9702 4.99993 19 5.00004H8.544L21.924 23.73H21.922ZM1.694 5.73004C1.17044 6.09964 0.743305 6.58957 0.448516 7.15861C0.153726 7.72766 -9.20287e-05 8.35918 4.13079e-08 9.00004V21C4.13079e-08 22.0609 0.421427 23.0783 1.17157 23.8285C1.92172 24.5786 2.93913 25 4 25H15.456L1.694 5.73204V5.73004ZM21.186 29.58L1.186 1.58004L2.814 0.420044L22.814 28.42L21.186 29.58Z" fill="#525252"/>
</svg>
