<svg width="104" height="104" viewBox="0 0 104 104" fill="none" xmlns="http://www.w3.org/2000/svg">
<path d="M52 25.9999C67.327 25.9999 81.627 31.8629 92.2697 42.5056L98.397 36.3783C86.1207 24.0976 69.641 17.3333 52 17.3333C34.359 17.3376 17.8794 24.0976 5.60303 36.3783L11.7304 42.5056C22.373 31.8629 36.673 25.9999 52 25.9999ZM76.5744 61.9969C63.2537 48.6763 40.7464 48.6763 27.4257 61.9969L33.553 68.1243C43.55 58.1273 60.45 58.1273 70.447 68.1243L76.5744 61.9969Z" fill="#D0D1D3"/>
<path d="M88.5604 48.9363C68.7484 29.1156 35.2561 29.1156 15.4441 48.9363L21.5714 55.0636C38.0684 38.5666 65.9361 38.5666 82.4331 55.0636L88.5604 48.9363Z" fill="#D0D1D3"/>
<path d="M51.9999 86.6666C56.7864 86.6666 60.6666 82.7864 60.6666 77.9999C60.6666 73.2135 56.7864 69.3333 51.9999 69.3333C47.2135 69.3333 43.3333 73.2135 43.3333 77.9999C43.3333 82.7864 47.2135 86.6666 51.9999 86.6666Z" fill="#D0D1D3"/>
</svg>
