<svg width="1920" height="1080" viewBox="0 0 1920 1080" fill="none" xmlns="http://www.w3.org/2000/svg">
<g clip-path="url(#clip0_1603_1827)">
<rect width="1920" height="1080" fill="#202020"/>
<rect width="1920" height="1080" fill="url(#paint0_radial_1603_1827)" fill-opacity="0.4"/>
<g clip-path="url(#clip1_1603_1827)">
<g filter="url(#filter0_b_1603_1827)">
<path d="M942.75 550.25V509.943C942.75 507.125 945.625 504.25 948.5 504.25H971.5C974.375 504.25 977.25 507.125 977.25 510V550.25C977.25 551.775 977.856 553.238 978.934 554.316C980.012 555.394 981.475 556 983 556H1029C1030.52 556 1031.99 555.394 1033.07 554.316C1034.14 553.238 1034.75 551.775 1034.75 550.25V469.75C1034.75 468.994 1034.6 468.246 1034.32 467.547C1034.03 466.849 1033.6 466.214 1033.07 465.679L1017.5 450.12V412.25C1017.5 410.725 1016.89 409.262 1015.82 408.184C1014.74 407.106 1013.27 406.5 1011.75 406.5H1000.25C998.725 406.5 997.262 407.106 996.184 408.184C995.106 409.262 994.5 410.725 994.5 412.25V427.12L964.071 396.679C963.537 396.144 962.902 395.719 962.204 395.429C961.505 395.139 960.756 394.99 960 394.99C959.244 394.99 958.495 395.139 957.796 395.429C957.098 395.719 956.463 396.144 955.929 396.679L886.929 465.679C886.395 466.214 885.972 466.849 885.684 467.547C885.396 468.246 885.249 468.994 885.25 469.75V550.25C885.25 551.775 885.856 553.238 886.934 554.316C888.012 555.394 889.475 556 891 556H937C938.525 556 939.988 555.394 941.066 554.316C942.144 553.238 942.75 551.775 942.75 550.25Z" fill="url(#paint1_radial_1603_1827)"/>
<path d="M1033.75 469.748V469.75V550.25C1033.75 551.51 1033.25 552.718 1032.36 553.609C1031.47 554.5 1030.26 555 1029 555H983C981.74 555 980.532 554.5 979.641 553.609C978.75 552.718 978.25 551.51 978.25 550.25V510C978.25 508.237 977.379 506.558 976.16 505.34C974.942 504.121 973.263 503.25 971.5 503.25H948.5C946.738 503.25 945.06 504.121 943.842 505.33C942.626 506.539 941.75 508.204 941.75 509.943V550.25C941.75 551.51 941.25 552.718 940.359 553.609C939.468 554.5 938.26 555 937 555H891C889.74 555 888.532 554.5 887.641 553.609C886.75 552.718 886.25 551.51 886.25 550.25L886.25 469.75L886.25 469.748C886.249 469.124 886.371 468.506 886.609 467.929C886.847 467.352 887.196 466.827 887.637 466.385L956.636 397.386L956.637 397.385C957.078 396.943 957.602 396.592 958.179 396.352C958.757 396.113 959.375 395.99 960 395.99C960.625 395.99 961.243 396.113 961.821 396.352C962.398 396.592 962.922 396.943 963.363 397.385L963.364 397.386L993.793 427.826L995.5 429.534V427.12V412.25C995.5 410.99 996 409.782 996.891 408.891C997.782 408 998.99 407.5 1000.25 407.5H1011.75C1013.01 407.5 1014.22 408 1015.11 408.891C1016 409.782 1016.5 410.99 1016.5 412.25V450.12V450.534L1016.79 450.827L1032.36 466.385C1032.36 466.385 1032.36 466.385 1032.36 466.385C1032.8 466.827 1033.15 467.352 1033.39 467.929L1034.32 467.547L1033.39 467.929C1033.63 468.506 1033.75 469.124 1033.75 469.748ZM1034.75 550.25V469.75H885.25V550.25C885.25 551.775 885.856 553.238 886.934 554.316C888.012 555.394 889.475 556 891 556H937C938.525 556 939.988 555.394 941.066 554.316C942.144 553.238 942.75 551.775 942.75 550.25V509.943C942.75 507.125 945.625 504.25 948.5 504.25H971.5C974.375 504.25 977.25 507.125 977.25 510V550.25C977.25 551.775 977.856 553.238 978.934 554.316C980.012 555.394 981.475 556 983 556H1029C1030.52 556 1031.99 555.394 1033.07 554.316C1034.14 553.238 1034.75 551.775 1034.75 550.25Z" stroke="url(#paint2_radial_1603_1827)" stroke-opacity="0.08" stroke-width="2"/>
<path d="M1033.75 469.748V469.75V550.25C1033.75 551.51 1033.25 552.718 1032.36 553.609C1031.47 554.5 1030.26 555 1029 555H983C981.74 555 980.532 554.5 979.641 553.609C978.75 552.718 978.25 551.51 978.25 550.25V510C978.25 508.237 977.379 506.558 976.16 505.34C974.942 504.121 973.263 503.25 971.5 503.25H948.5C946.738 503.25 945.06 504.121 943.842 505.33C942.626 506.539 941.75 508.204 941.75 509.943V550.25C941.75 551.51 941.25 552.718 940.359 553.609C939.468 554.5 938.26 555 937 555H891C889.74 555 888.532 554.5 887.641 553.609C886.75 552.718 886.25 551.51 886.25 550.25L886.25 469.75L886.25 469.748C886.249 469.124 886.371 468.506 886.609 467.929C886.847 467.352 887.196 466.827 887.637 466.385L956.636 397.386L956.637 397.385C957.078 396.943 957.602 396.592 958.179 396.352C958.757 396.113 959.375 395.99 960 395.99C960.625 395.99 961.243 396.113 961.821 396.352C962.398 396.592 962.922 396.943 963.363 397.385L963.364 397.386L993.793 427.826L995.5 429.534V427.12V412.25C995.5 410.99 996 409.782 996.891 408.891C997.782 408 998.99 407.5 1000.25 407.5H1011.75C1013.01 407.5 1014.22 408 1015.11 408.891C1016 409.782 1016.5 410.99 1016.5 412.25V450.12V450.534L1016.79 450.827L1032.36 466.385C1032.36 466.385 1032.36 466.385 1032.36 466.385C1032.8 466.827 1033.15 467.352 1033.39 467.929L1034.32 467.547L1033.39 467.929C1033.63 468.506 1033.75 469.124 1033.75 469.748ZM1034.75 550.25V469.75H885.25V550.25C885.25 551.775 885.856 553.238 886.934 554.316C888.012 555.394 889.475 556 891 556H937C938.525 556 939.988 555.394 941.066 554.316C942.144 553.238 942.75 551.775 942.75 550.25V509.943C942.75 507.125 945.625 504.25 948.5 504.25H971.5C974.375 504.25 977.25 507.125 977.25 510V550.25C977.25 551.775 977.856 553.238 978.934 554.316C980.012 555.394 981.475 556 983 556H1029C1030.52 556 1031.99 555.394 1033.07 554.316C1034.14 553.238 1034.75 551.775 1034.75 550.25Z" stroke="url(#paint3_radial_1603_1827)" stroke-opacity="0.08" stroke-width="2"/>
<path d="M1033.75 469.748V469.75V550.25C1033.75 551.51 1033.25 552.718 1032.36 553.609C1031.47 554.5 1030.26 555 1029 555H983C981.74 555 980.532 554.5 979.641 553.609C978.75 552.718 978.25 551.51 978.25 550.25V510C978.25 508.237 977.379 506.558 976.16 505.34C974.942 504.121 973.263 503.25 971.5 503.25H948.5C946.738 503.25 945.06 504.121 943.842 505.33C942.626 506.539 941.75 508.204 941.75 509.943V550.25C941.75 551.51 941.25 552.718 940.359 553.609C939.468 554.5 938.26 555 937 555H891C889.74 555 888.532 554.5 887.641 553.609C886.75 552.718 886.25 551.51 886.25 550.25L886.25 469.75L886.25 469.748C886.249 469.124 886.371 468.506 886.609 467.929C886.847 467.352 887.196 466.827 887.637 466.385L956.636 397.386L956.637 397.385C957.078 396.943 957.602 396.592 958.179 396.352C958.757 396.113 959.375 395.99 960 395.99C960.625 395.99 961.243 396.113 961.821 396.352C962.398 396.592 962.922 396.943 963.363 397.385L963.364 397.386L993.793 427.826L995.5 429.534V427.12V412.25C995.5 410.99 996 409.782 996.891 408.891C997.782 408 998.99 407.5 1000.25 407.5H1011.75C1013.01 407.5 1014.22 408 1015.11 408.891C1016 409.782 1016.5 410.99 1016.5 412.25V450.12V450.534L1016.79 450.827L1032.36 466.385C1032.36 466.385 1032.36 466.385 1032.36 466.385C1032.8 466.827 1033.15 467.352 1033.39 467.929L1034.32 467.547L1033.39 467.929C1033.63 468.506 1033.75 469.124 1033.75 469.748ZM1034.75 550.25V469.75H885.25V550.25C885.25 551.775 885.856 553.238 886.934 554.316C888.012 555.394 889.475 556 891 556H937C938.525 556 939.988 555.394 941.066 554.316C942.144 553.238 942.75 551.775 942.75 550.25V509.943C942.75 507.125 945.625 504.25 948.5 504.25H971.5C974.375 504.25 977.25 507.125 977.25 510V550.25C977.25 551.775 977.856 553.238 978.934 554.316C980.012 555.394 981.475 556 983 556H1029C1030.52 556 1031.99 555.394 1033.07 554.316C1034.14 553.238 1034.75 551.775 1034.75 550.25Z" stroke="url(#paint4_linear_1603_1827)" stroke-opacity="0.4" stroke-width="2"/>
</g>
<g clip-path="url(#clip2_1603_1827)">
<path d="M942.75 557.25V597.557C942.75 600.375 945.625 603.25 948.5 603.25H971.5C974.375 603.25 977.25 600.375 977.25 597.5V557.25C977.25 555.725 977.856 554.262 978.934 553.184C980.012 552.106 981.475 551.5 983 551.5H1029C1030.52 551.5 1031.99 552.106 1033.07 553.184C1034.14 554.262 1034.75 555.725 1034.75 557.25V637.75C1034.75 638.506 1034.6 639.254 1034.32 639.953C1034.03 640.651 1033.6 641.286 1033.07 641.821L1017.5 657.38V695.25C1017.5 696.775 1016.89 698.238 1015.82 699.316C1014.74 700.394 1013.27 701 1011.75 701H1000.25C998.725 701 997.262 700.394 996.184 699.316C995.106 698.238 994.5 696.775 994.5 695.25V680.38L964.071 710.821C963.537 711.356 962.902 711.781 962.204 712.071C961.505 712.361 960.756 712.51 960 712.51C959.244 712.51 958.495 712.361 957.796 712.071C957.098 711.781 956.463 711.356 955.929 710.821L886.929 641.821C886.395 641.286 885.972 640.651 885.684 639.953C885.396 639.254 885.249 638.506 885.25 637.75V557.25C885.25 555.725 885.856 554.262 886.934 553.184C888.012 552.106 889.475 551.5 891 551.5H937C938.525 551.5 939.988 552.106 941.066 553.184C942.144 554.262 942.75 555.725 942.75 557.25Z" fill="url(#paint5_linear_1603_1827)"/>
</g>
</g>
<circle opacity="0.1" cx="880" cy="667" r="5" fill="white"/>
<circle opacity="0.2" cx="900" cy="667" r="5" fill="white"/>
<circle opacity="0.4" cx="920" cy="667" r="5" fill="white"/>
<circle opacity="0.7" cx="940" cy="667" r="5" fill="white"/>
<circle opacity="0.9" cx="960" cy="667" r="5" fill="white"/>
<circle opacity="0.8" cx="980" cy="667" r="5" fill="white"/>
<circle opacity="0.6" cx="1000" cy="667" r="5" fill="white"/>
<circle opacity="0.4" cx="1020" cy="667" r="5" fill="white"/>
<circle opacity="0.3" cx="1040" cy="667" r="5" fill="white"/>
</g>
<defs>
<filter id="filter0_b_1603_1827" x="845.25" y="354.99" width="229.5" height="241.01" filterUnits="userSpaceOnUse" color-interpolation-filters="sRGB">
<feFlood flood-opacity="0" result="BackgroundImageFix"/>
<feGaussianBlur in="BackgroundImage" stdDeviation="20"/>
<feComposite in2="SourceAlpha" operator="in" result="effect1_backgroundBlur_1603_1827"/>
<feBlend mode="normal" in="SourceGraphic" in2="effect1_backgroundBlur_1603_1827" result="shape"/>
</filter>
<radialGradient id="paint0_radial_1603_1827" cx="0" cy="0" r="1" gradientUnits="userSpaceOnUse" gradientTransform="translate(123.5 -390) rotate(69.1629) scale(1837.16 1837.16)">
<stop stop-color="#6F7075"/>
<stop offset="1" stop-color="#6F7075" stop-opacity="0"/>
</radialGradient>
<radialGradient id="paint1_radial_1603_1827" cx="0" cy="0" r="1" gradientUnits="userSpaceOnUse" gradientTransform="translate(886.595 399.78) rotate(46.1985) scale(210.733 336.918)">
<stop stop-color="white" stop-opacity="0.72"/>
<stop offset="1" stop-color="white" stop-opacity="0.24"/>
</radialGradient>
<radialGradient id="paint2_radial_1603_1827" cx="0" cy="0" r="1" gradientUnits="userSpaceOnUse" gradientTransform="translate(886.595 399.78) rotate(46.1985) scale(210.733 336.918)">
<stop stop-color="#E5E6E8" stop-opacity="0"/>
<stop offset="1" stop-color="#E5E6E8"/>
</radialGradient>
<radialGradient id="paint3_radial_1603_1827" cx="0" cy="0" r="1" gradientUnits="userSpaceOnUse" gradientTransform="translate(887.307 551.077) rotate(-46.1879) scale(209.664 334.865)">
<stop stop-color="#E5E6E8" stop-opacity="0"/>
<stop offset="1" stop-color="#E5E6E8"/>
</radialGradient>
<linearGradient id="paint4_linear_1603_1827" x1="888.019" y1="399.381" x2="1065.24" y2="474.562" gradientUnits="userSpaceOnUse">
<stop stop-color="white" stop-opacity="0.7"/>
<stop offset="1" stop-color="white" stop-opacity="0"/>
</linearGradient>
<linearGradient id="paint5_linear_1603_1827" x1="960" y1="648.032" x2="960" y2="551.5" gradientUnits="userSpaceOnUse">
<stop offset="0.310379" stop-color="white" stop-opacity="0"/>
<stop offset="0.948676" stop-color="white" stop-opacity="0.1"/>
<stop offset="1" stop-color="white" stop-opacity="0"/>
</linearGradient>
<clipPath id="clip0_1603_1827">
<rect width="1920" height="1080" fill="white"/>
</clipPath>
<clipPath id="clip1_1603_1827">
<rect width="184" height="238" fill="white" transform="translate(868 384)"/>
</clipPath>
<clipPath id="clip2_1603_1827">
<rect width="184" height="184" fill="white" transform="translate(868 552)"/>
</clipPath>
</defs>
</svg>
