<svg width="184" height="238" viewBox="0 0 184 238" fill="none" xmlns="http://www.w3.org/2000/svg">
<g clip-path="url(#clip0_1776_1056)">
<path d="M74.75 174.75V215.057C74.75 217.875 77.625 220.75 80.5 220.75H103.5C106.375 220.75 109.25 217.875 109.25 215V174.75C109.25 173.225 109.856 171.762 110.934 170.684C112.012 169.606 113.475 169 115 169H161C162.525 169 163.988 169.606 165.066 170.684C166.144 171.762 166.75 173.225 166.75 174.75V255.25C166.751 256.006 166.604 256.754 166.316 257.453C166.028 258.151 165.605 258.786 165.071 259.321L149.5 274.88V312.75C149.5 314.275 148.894 315.738 147.816 316.816C146.738 317.894 145.275 318.5 143.75 318.5H132.25C130.725 318.5 129.262 317.894 128.184 316.816C127.106 315.738 126.5 314.275 126.5 312.75V297.88L96.071 328.321C95.5369 328.856 94.9024 329.281 94.2038 329.571C93.5052 329.861 92.7563 330.01 92 330.01C91.2437 330.01 90.4948 329.861 89.7962 329.571C89.0976 329.281 88.4631 328.856 87.929 328.321L18.929 259.321C18.3954 258.786 17.9724 258.151 17.6843 257.453C17.3963 256.754 17.2487 256.006 17.25 255.25V174.75C17.25 173.225 17.8558 171.762 18.9341 170.684C20.0125 169.606 21.475 169 23 169H69C70.525 169 71.9875 169.606 73.0659 170.684C74.1442 171.762 74.75 173.225 74.75 174.75Z" fill="url(#paint0_linear_1776_1056)"/>
<path d="M74.75 166.25V125.943C74.75 123.125 77.625 120.25 80.5 120.25H103.5C106.375 120.25 109.25 123.125 109.25 126V166.25C109.25 167.775 109.856 169.238 110.934 170.316C112.012 171.394 113.475 172 115 172H161C162.525 172 163.988 171.394 165.066 170.316C166.144 169.238 166.75 167.775 166.75 166.25V85.75C166.751 84.9944 166.604 84.246 166.316 83.5474C166.028 82.8489 165.605 82.214 165.071 81.679L149.5 66.1195V28.25C149.5 26.725 148.894 25.2625 147.816 24.1842C146.738 23.1058 145.275 22.5 143.75 22.5H132.25C130.725 22.5 129.262 23.1058 128.184 24.1842C127.106 25.2625 126.5 26.725 126.5 28.25V43.1195L96.071 12.679C95.5369 12.1435 94.9024 11.7187 94.2038 11.4288C93.5052 11.139 92.7563 10.9897 92 10.9897C91.2437 10.9897 90.4948 11.139 89.7962 11.4288C89.0976 11.7187 88.4631 12.1435 87.929 12.679L18.929 81.679C18.3954 82.214 17.9724 82.8489 17.6843 83.5474C17.3963 84.246 17.2487 84.9944 17.25 85.75V166.25C17.25 167.775 17.8558 169.238 18.9341 170.316C20.0125 171.394 21.475 172 23 172H69C70.525 172 71.9875 171.394 73.0659 170.316C74.1442 169.238 74.75 167.775 74.75 166.25Z" fill="url(#paint1_radial_1776_1056)"/>
</g>
<defs>
<linearGradient id="paint0_linear_1776_1056" x1="92" y1="265.532" x2="92" y2="169" gradientUnits="userSpaceOnUse">
<stop offset="0.310379" stop-color="white" stop-opacity="0"/>
<stop offset="0.948676" stop-color="white" stop-opacity="0.1"/>
<stop offset="1" stop-color="white" stop-opacity="0"/>
</linearGradient>
<radialGradient id="paint1_radial_1776_1056" cx="0" cy="0" r="1" gradientUnits="userSpaceOnUse" gradientTransform="translate(18.5947 15.7802) rotate(46.1985) scale(210.733 336.918)">
<stop stop-color="#AAAAAA"/>
<stop offset="1" stop-color="#626262"/>
</radialGradient>
<clipPath id="clip0_1776_1056">
<rect width="184" height="238" fill="white"/>
</clipPath>
</defs>
</svg>
